<svg width="1015" height="1015" viewBox="0 0 1015 1015" fill="none" xmlns="http://www.w3.org/2000/svg">
<path d="M297.5 0C307.165 0 315 7.8351 315 17.5C315 27.1654 307.165 35 297.5 35C287.835 35 280 27.1654 280 17.5C280 7.8351 287.835 0 297.5 0Z" fill="#0D5474"/>
<path d="M437.5 0C447.165 0 455 7.8351 455 17.5C455 27.1654 447.165 35 437.5 35C427.835 35 420 27.1654 420 17.5C420 7.8351 427.835 0 437.5 0Z" fill="#0D5474"/>
<path d="M507.5 0C517.165 0 525 7.8351 525 17.5C525 27.1654 517.165 35 507.5 35C497.835 35 490 27.1654 490 17.5C490 7.8351 497.835 0 507.5 0Z" fill="#0D5474"/>
<path d="M542.5 0C552.165 0 560 7.8351 560 17.5C560 27.1654 552.165 35 542.5 35C532.835 35 525 27.1654 525 17.5C525 7.8351 532.835 0 542.5 0Z" fill="#0D5474"/>
<path d="M577.5 0C587.165 0 595 7.8351 595 17.5C595 27.1654 587.165 35 577.5 35C567.835 35 560 27.1654 560 17.5C560 7.8351 567.835 0 577.5 0Z" fill="#0D5474"/>
<path d="M612.5 0C622.165 0 630 7.8351 630 17.5C630 27.1654 622.165 35 612.5 35C602.835 35 595 27.1654 595 17.5C595 7.8351 602.835 0 612.5 0Z" fill="#0D5474"/>
<path d="M647.5 0C657.165 0 665 7.8351 665 17.5C665 27.1654 657.165 35 647.5 35C637.835 35 630 27.1654 630 17.5C630 7.8351 637.835 0 647.5 0Z" fill="#0D5474"/>
<path d="M367.5 35C377.165 35 385 42.8351 385 52.5C385 62.1654 377.165 70 367.5 70C357.835 70 350 62.1654 350 52.5C350 42.8351 357.835 35 367.5 35Z" fill="#0D5474"/>
<path d="M507.5 35C517.165 35 525 42.8351 525 52.5C525 62.1654 517.165 70 507.5 70C497.835 70 490 62.1654 490 52.5C490 42.8351 497.835 35 507.5 35Z" fill="#0D5474"/>
<path d="M542.5 35C552.165 35 560 42.8351 560 52.5C560 62.1654 552.165 70 542.5 70C532.835 70 525 62.1654 525 52.5C525 42.8351 532.835 35 542.5 35Z" fill="#0D5474"/>
<path d="M647.5 35C657.165 35 665 42.8351 665 52.5C665 62.1654 657.165 70 647.5 70C637.835 70 630 62.1654 630 52.5C630 42.8351 637.835 35 647.5 35Z" fill="#0D5474"/>
<path d="M367.5 70C377.165 70 385 77.8351 385 87.5C385 97.1654 377.165 105 367.5 105C357.835 105 350 97.1654 350 87.5C350 77.8351 357.835 70 367.5 70Z" fill="#0D5474"/>
<path d="M402.5 70C412.165 70 420 77.8351 420 87.5C420 97.1654 412.165 105 402.5 105C392.835 105 385 97.1654 385 87.5C385 77.8351 392.835 70 402.5 70Z" fill="#0D5474"/>
<path d="M472.5 70C482.165 70 490 77.8351 490 87.5C490 97.1654 482.165 105 472.5 105C462.835 105 455 97.1654 455 87.5C455 77.8351 462.835 70 472.5 70Z" fill="#0D5474"/>
<path d="M507.5 70C517.165 70 525 77.8351 525 87.5C525 97.1654 517.165 105 507.5 105C497.835 105 490 97.1654 490 87.5C490 77.8351 497.835 70 507.5 70Z" fill="#0D5474"/>
<path d="M647.5 70C657.165 70 665 77.8351 665 87.5C665 97.1654 657.165 105 647.5 105C637.835 105 630 97.1654 630 87.5C630 77.8351 637.835 70 647.5 70Z" fill="#0D5474"/>
<path d="M682.5 70C692.165 70 700 77.8351 700 87.5C700 97.1654 692.165 105 682.5 105C672.835 105 665 97.1654 665 87.5C665 77.8351 672.835 70 682.5 70Z" fill="#0D5474"/>
<path d="M297.5 105C307.165 105 315 112.835 315 122.5C315 132.165 307.165 140 297.5 140C287.835 140 280 132.165 280 122.5C280 112.835 287.835 105 297.5 105Z" fill="#0D5474"/>
<path d="M367.5 105C377.165 105 385 112.835 385 122.5C385 132.165 377.165 140 367.5 140C357.835 140 350 132.165 350 122.5C350 112.835 357.835 105 367.5 105Z" fill="#0D5474"/>
<path d="M402.5 105C412.165 105 420 112.835 420 122.5C420 132.165 412.165 140 402.5 140C392.835 140 385 132.165 385 122.5C385 112.835 392.835 105 402.5 105Z" fill="#0D5474"/>
<path d="M437.5 105C447.165 105 455 112.835 455 122.5C455 132.165 447.165 140 437.5 140C427.835 140 420 132.165 420 122.5C420 112.835 427.835 105 437.5 105Z" fill="#0D5474"/>
<path d="M472.5 105C482.165 105 490 112.835 490 122.5C490 132.165 482.165 140 472.5 140C462.835 140 455 132.165 455 122.5C455 112.835 462.835 105 472.5 105Z" fill="#0D5474"/>
<path d="M542.5 105C552.165 105 560 112.835 560 122.5C560 132.165 552.165 140 542.5 140C532.835 140 525 132.165 525 122.5C525 112.835 532.835 105 542.5 105Z" fill="#0D5474"/>
<path d="M577.5 105C587.165 105 595 112.835 595 122.5C595 132.165 587.165 140 577.5 140C567.835 140 560 132.165 560 122.5C560 112.835 567.835 105 577.5 105Z" fill="#0D5474"/>
<path d="M647.5 105C657.165 105 665 112.835 665 122.5C665 132.165 657.165 140 647.5 140C637.835 140 630 132.165 630 122.5C630 112.835 637.835 105 647.5 105Z" fill="#0D5474"/>
<path d="M472.5 140C482.165 140 490 147.835 490 157.5C490 167.165 482.165 175 472.5 175C462.835 175 455 167.165 455 157.5C455 147.835 462.835 140 472.5 140Z" fill="#0D5474"/>
<path d="M507.5 140C517.165 140 525 147.835 525 157.5C525 167.165 517.165 175 507.5 175C497.835 175 490 167.165 490 157.5C490 147.835 497.835 140 507.5 140Z" fill="#0D5474"/>
<path d="M542.5 140C552.165 140 560 147.835 560 157.5C560 167.165 552.165 175 542.5 175C532.835 175 525 167.165 525 157.5C525 147.835 532.835 140 542.5 140Z" fill="#0D5474"/>
<path d="M647.5 140C657.165 140 665 147.835 665 157.5C665 167.165 657.165 175 647.5 175C637.835 175 630 167.165 630 157.5C630 147.835 637.835 140 647.5 140Z" fill="#0D5474"/>
<path d="M682.5 140C692.165 140 700 147.835 700 157.5C700 167.165 692.165 175 682.5 175C672.835 175 665 167.165 665 157.5C665 147.835 672.835 140 682.5 140Z" fill="#0D5474"/>
<path d="M717.5 140C727.165 140 735 147.835 735 157.5C735 167.165 727.165 175 717.5 175C707.835 175 700 167.165 700 157.5C700 147.835 707.835 140 717.5 140Z" fill="#0D5474"/>
<path d="M472.5 175C482.165 175 490 182.835 490 192.5C490 202.165 482.165 210 472.5 210C462.835 210 455 202.165 455 192.5C455 182.835 462.835 175 472.5 175Z" fill="#0D5474"/>
<path d="M507.5 175C517.165 175 525 182.835 525 192.5C525 202.165 517.165 210 507.5 210C497.835 210 490 202.165 490 192.5C490 182.835 497.835 175 507.5 175Z" fill="#0D5474"/>
<path d="M577.5 175C587.165 175 595 182.835 595 192.5C595 202.165 587.165 210 577.5 210C567.835 210 560 202.165 560 192.5C560 182.835 567.835 175 577.5 175Z" fill="#0D5474"/>
<path d="M612.5 175C622.165 175 630 182.835 630 192.5C630 202.165 622.165 210 612.5 210C602.835 210 595 202.165 595 192.5C595 182.835 602.835 175 612.5 175Z" fill="#0D5474"/>
<path d="M682.5 175C692.165 175 700 182.835 700 192.5C700 202.165 692.165 210 682.5 210C672.835 210 665 202.165 665 192.5C665 182.835 672.835 175 682.5 175Z" fill="#0D5474"/>
<path d="M297.5 210C307.165 210 315 217.835 315 227.5C315 237.165 307.165 245 297.5 245C287.835 245 280 237.165 280 227.5C280 217.835 287.835 210 297.5 210Z" fill="#0D5474"/>
<path d="M367.5 210C377.165 210 385 217.835 385 227.5C385 237.165 377.165 245 367.5 245C357.835 245 350 237.165 350 227.5C350 217.835 357.835 210 367.5 210Z" fill="#0D5474"/>
<path d="M437.5 210C447.165 210 455 217.835 455 227.5C455 237.165 447.165 245 437.5 245C427.835 245 420 237.165 420 227.5C420 217.835 427.835 210 437.5 210Z" fill="#0D5474"/>
<path d="M507.5 210C517.165 210 525 217.835 525 227.5C525 237.165 517.165 245 507.5 245C497.835 245 490 237.165 490 227.5C490 217.835 497.835 210 507.5 210Z" fill="#0D5474"/>
<path d="M577.5 210C587.165 210 595 217.835 595 227.5C595 237.165 587.165 245 577.5 245C567.835 245 560 237.165 560 227.5C560 217.835 567.835 210 577.5 210Z" fill="#0D5474"/>
<path d="M647.5 210C657.165 210 665 217.835 665 227.5C665 237.165 657.165 245 647.5 245C637.835 245 630 237.165 630 227.5C630 217.835 637.835 210 647.5 210Z" fill="#0D5474"/>
<path d="M717.5 210C727.165 210 735 217.835 735 227.5C735 237.165 727.165 245 717.5 245C707.835 245 700 237.165 700 227.5C700 217.835 707.835 210 717.5 210Z" fill="#0D5474"/>
<path d="M332.5 245C342.165 245 350 252.835 350 262.5C350 272.165 342.165 280 332.5 280C322.835 280 315 272.165 315 262.5C315 252.835 322.835 245 332.5 245Z" fill="#0D5474"/>
<path d="M437.5 245C447.165 245 455 252.835 455 262.5C455 272.165 447.165 280 437.5 280C427.835 280 420 272.165 420 262.5C420 252.835 427.835 245 437.5 245Z" fill="#0D5474"/>
<path d="M542.5 245C552.165 245 560 252.835 560 262.5C560 272.165 552.165 280 542.5 280C532.835 280 525 272.165 525 262.5C525 252.835 532.835 245 542.5 245Z" fill="#0D5474"/>
<path d="M577.5 245C587.165 245 595 252.835 595 262.5C595 272.165 587.165 280 577.5 280C567.835 280 560 272.165 560 262.5C560 252.835 567.835 245 577.5 245Z" fill="#0D5474"/>
<path d="M612.5 245C622.165 245 630 252.835 630 262.5C630 272.165 622.165 280 612.5 280C602.835 280 595 272.165 595 262.5C595 252.835 602.835 245 612.5 245Z" fill="#0D5474"/>
<path d="M647.5 245C657.165 245 665 252.835 665 262.5C665 272.165 657.165 280 647.5 280C637.835 280 630 272.165 630 262.5C630 252.835 637.835 245 647.5 245Z" fill="#0D5474"/>
<path d="M87.5 280C97.1654 280 105 287.835 105 297.5C105 307.165 97.1654 315 87.5 315C77.8351 315 70 307.165 70 297.5C70 287.835 77.8351 280 87.5 280Z" fill="#0D5474"/>
<path d="M157.5 280C167.165 280 175 287.835 175 297.5C175 307.165 167.165 315 157.5 315C147.835 315 140 307.165 140 297.5C140 287.835 147.835 280 157.5 280Z" fill="#0D5474"/>
<path d="M192.5 280C202.165 280 210 287.835 210 297.5C210 307.165 202.165 315 192.5 315C182.835 315 175 307.165 175 297.5C175 287.835 182.835 280 192.5 280Z" fill="#0D5474"/>
<path d="M227.5 280C237.165 280 245 287.835 245 297.5C245 307.165 237.165 315 227.5 315C217.835 315 210 307.165 210 297.5C210 287.835 217.835 280 227.5 280Z" fill="#0D5474"/>
<path d="M297.5 280C307.165 280 315 287.835 315 297.5C315 307.165 307.165 315 297.5 315C287.835 315 280 307.165 280 297.5C280 287.835 287.835 280 297.5 280Z" fill="#0D5474"/>
<path d="M367.5 280C377.165 280 385 287.835 385 297.5C385 307.165 377.165 315 367.5 315C357.835 315 350 307.165 350 297.5C350 287.835 357.835 280 367.5 280Z" fill="#0D5474"/>
<path d="M402.5 280C412.165 280 420 287.835 420 297.5C420 307.165 412.165 315 402.5 315C392.835 315 385 307.165 385 297.5C385 287.835 392.835 280 402.5 280Z" fill="#0D5474"/>
<path d="M437.5 280C447.165 280 455 287.835 455 297.5C455 307.165 447.165 315 437.5 315C427.835 315 420 307.165 420 297.5C420 287.835 427.835 280 437.5 280Z" fill="#0D5474"/>
<path d="M472.5 280C482.165 280 490 287.835 490 297.5C490 307.165 482.165 315 472.5 315C462.835 315 455 307.165 455 297.5C455 287.835 462.835 280 472.5 280Z" fill="#0D5474"/>
<path d="M542.5 280C552.165 280 560 287.835 560 297.5C560 307.165 552.165 315 542.5 315C532.835 315 525 307.165 525 297.5C525 287.835 532.835 280 542.5 280Z" fill="#0D5474"/>
<path d="M647.5 280C657.165 280 665 287.835 665 297.5C665 307.165 657.165 315 647.5 315C637.835 315 630 307.165 630 297.5C630 287.835 637.835 280 647.5 280Z" fill="#0D5474"/>
<path d="M752.5 280C762.165 280 770 287.835 770 297.5C770 307.165 762.165 315 752.5 315C742.835 315 735 307.165 735 297.5C735 287.835 742.835 280 752.5 280Z" fill="#0D5474"/>
<path d="M892.5 280C902.165 280 910 287.835 910 297.5C910 307.165 902.165 315 892.5 315C882.835 315 875 307.165 875 297.5C875 287.835 882.835 280 892.5 280Z" fill="#0D5474"/>
<path d="M997.5 280C1007.17 280 1015 287.835 1015 297.5C1015 307.165 1007.17 315 997.5 315C987.835 315 980 307.165 980 297.5C980 287.835 987.835 280 997.5 280Z" fill="#0D5474"/>
<path d="M17.5 315C27.1654 315 35 322.835 35 332.5C35 342.165 27.1654 350 17.5 350C7.8351 350 0 342.165 0 332.5C0 322.835 7.8351 315 17.5 315Z" fill="#0D5474"/>
<path d="M52.5 315C62.1654 315 70 322.835 70 332.5C70 342.165 62.1654 350 52.5 350C42.8351 350 35 342.165 35 332.5C35 322.835 42.8351 315 52.5 315Z" fill="#0D5474"/>
<path d="M87.5 315C97.1654 315 105 322.835 105 332.5C105 342.165 97.1654 350 87.5 350C77.8351 350 70 342.165 70 332.5C70 322.835 77.8351 315 87.5 315Z" fill="#0D5474"/>
<path d="M192.5 315C202.165 315 210 322.835 210 332.5C210 342.165 202.165 350 192.5 350C182.835 350 175 342.165 175 332.5C175 322.835 182.835 315 192.5 315Z" fill="#0D5474"/>
<path d="M262.5 315C272.165 315 280 322.835 280 332.5C280 342.165 272.165 350 262.5 350C252.835 350 245 342.165 245 332.5C245 322.835 252.835 315 262.5 315Z" fill="#0D5474"/>
<path d="M297.5 315C307.165 315 315 322.835 315 332.5C315 342.165 307.165 350 297.5 350C287.835 350 280 342.165 280 332.5C280 322.835 287.835 315 297.5 315Z" fill="#0D5474"/>
<path d="M367.5 315C377.165 315 385 322.835 385 332.5C385 342.165 377.165 350 367.5 350C357.835 350 350 342.165 350 332.5C350 322.835 357.835 315 367.5 315Z" fill="#0D5474"/>
<path d="M437.5 315C447.165 315 455 322.835 455 332.5C455 342.165 447.165 350 437.5 350C427.835 350 420 342.165 420 332.5C420 322.835 427.835 315 437.5 315Z" fill="#0D5474"/>
<path d="M472.5 315C482.165 315 490 322.835 490 332.5C490 342.165 482.165 350 472.5 350C462.835 350 455 342.165 455 332.5C455 322.835 462.835 315 472.5 315Z" fill="#0D5474"/>
<path d="M542.5 315C552.165 315 560 322.835 560 332.5C560 342.165 552.165 350 542.5 350C532.835 350 525 342.165 525 332.5C525 322.835 532.835 315 542.5 315Z" fill="#0D5474"/>
<path d="M612.5 315C622.165 315 630 322.835 630 332.5C630 342.165 622.165 350 612.5 350C602.835 350 595 342.165 595 332.5C595 322.835 602.835 315 612.5 315Z" fill="#0D5474"/>
<path d="M647.5 315C657.165 315 665 322.835 665 332.5C665 342.165 657.165 350 647.5 350C637.835 350 630 342.165 630 332.5C630 322.835 637.835 315 647.5 315Z" fill="#0D5474"/>
<path d="M682.5 315C692.165 315 700 322.835 700 332.5C700 342.165 692.165 350 682.5 350C672.835 350 665 342.165 665 332.5C665 322.835 672.835 315 682.5 315Z" fill="#0D5474"/>
<path d="M752.5 315C762.165 315 770 322.835 770 332.5C770 342.165 762.165 350 752.5 350C742.835 350 735 342.165 735 332.5C735 322.835 742.835 315 752.5 315Z" fill="#0D5474"/>
<path d="M787.5 315C797.165 315 805 322.835 805 332.5C805 342.165 797.165 350 787.5 350C777.835 350 770 342.165 770 332.5C770 322.835 777.835 315 787.5 315Z" fill="#0D5474"/>
<path d="M927.5 315C937.165 315 945 322.835 945 332.5C945 342.165 937.165 350 927.5 350C917.835 350 910 342.165 910 332.5C910 322.835 917.835 315 927.5 315Z" fill="#0D5474"/>
<path d="M997.5 315C1007.17 315 1015 322.835 1015 332.5C1015 342.165 1007.17 350 997.5 350C987.835 350 980 342.165 980 332.5C980 322.835 987.835 315 997.5 315Z" fill="#0D5474"/>
<path d="M122.5 350C132.165 350 140 357.835 140 367.5C140 377.165 132.165 385 122.5 385C112.835 385 105 377.165 105 367.5C105 357.835 112.835 350 122.5 350Z" fill="#0D5474"/>
<path d="M157.5 350C167.165 350 175 357.835 175 367.5C175 377.165 167.165 385 157.5 385C147.835 385 140 377.165 140 367.5C140 357.835 147.835 350 157.5 350Z" fill="#0D5474"/>
<path d="M227.5 350C237.165 350 245 357.835 245 367.5C245 377.165 237.165 385 227.5 385C217.835 385 210 377.165 210 367.5C210 357.835 217.835 350 227.5 350Z" fill="#0D5474"/>
<path d="M822.5 350C832.165 350 840 357.835 840 367.5C840 377.165 832.165 385 822.5 385C812.835 385 805 377.165 805 367.5C805 357.835 812.835 350 822.5 350Z" fill="#0D5474"/>
<path d="M892.5 350C902.165 350 910 357.835 910 367.5C910 377.165 902.165 385 892.5 385C882.835 385 875 377.165 875 367.5C875 357.835 882.835 350 892.5 350Z" fill="#0D5474"/>
<path d="M962.5 350C972.165 350 980 357.835 980 367.5C980 377.165 972.165 385 962.5 385C952.835 385 945 377.165 945 367.5C945 357.835 952.835 350 962.5 350Z" fill="#0D5474"/>
<path d="M997.5 350C1007.17 350 1015 357.835 1015 367.5C1015 377.165 1007.17 385 997.5 385C987.835 385 980 377.165 980 367.5C980 357.835 987.835 350 997.5 350Z" fill="#0D5474"/>
<path d="M17.5 385C27.1654 385 35 392.835 35 402.5C35 412.165 27.1654 420 17.5 420C7.8351 420 0 412.165 0 402.5C0 392.835 7.8351 385 17.5 385Z" fill="#0D5474"/>
<path d="M87.5 385C97.1654 385 105 392.835 105 402.5C105 412.165 97.1654 420 87.5 420C77.8351 420 70 412.165 70 402.5C70 392.835 77.8351 385 87.5 385Z" fill="#0D5474"/>
<path d="M297.5 385C307.165 385 315 392.835 315 402.5C315 412.165 307.165 420 297.5 420C287.835 420 280 412.165 280 402.5C280 392.835 287.835 385 297.5 385Z" fill="#0D5474"/>
<path d="M332.5 385C342.165 385 350 392.835 350 402.5C350 412.165 342.165 420 332.5 420C322.835 420 315 412.165 315 402.5C315 392.835 322.835 385 332.5 385Z" fill="#0D5474"/>
<path d="M682.5 385C692.165 385 700 392.835 700 402.5C700 412.165 692.165 420 682.5 420C672.835 420 665 412.165 665 402.5C665 392.835 672.835 385 682.5 385Z" fill="#0D5474"/>
<path d="M752.5 385C762.165 385 770 392.835 770 402.5C770 412.165 762.165 420 752.5 420C742.835 420 735 412.165 735 402.5C735 392.835 742.835 385 752.5 385Z" fill="#0D5474"/>
<path d="M787.5 385C797.165 385 805 392.835 805 402.5C805 412.165 797.165 420 787.5 420C777.835 420 770 412.165 770 402.5C770 392.835 777.835 385 787.5 385Z" fill="#0D5474"/>
<path d="M962.5 385C972.165 385 980 392.835 980 402.5C980 412.165 972.165 420 962.5 420C952.835 420 945 412.165 945 402.5C945 392.835 952.835 385 962.5 385Z" fill="#0D5474"/>
<path d="M17.5 420C27.1654 420 35 427.835 35 437.5C35 447.165 27.1654 455 17.5 455C7.8351 455 0 447.165 0 437.5C0 427.835 7.8351 420 17.5 420Z" fill="#0D5474"/>
<path d="M87.5 420C97.1654 420 105 427.835 105 437.5C105 447.165 97.1654 455 87.5 455C77.8351 455 70 447.165 70 437.5C70 427.835 77.8351 420 87.5 420Z" fill="#0D5474"/>
<path d="M157.5 420C167.165 420 175 427.835 175 437.5C175 447.165 167.165 455 157.5 455C147.835 455 140 447.165 140 437.5C140 427.835 147.835 420 157.5 420Z" fill="#0D5474"/>
<path d="M227.5 420C237.165 420 245 427.835 245 437.5C245 447.165 237.165 455 227.5 455C217.835 455 210 447.165 210 437.5C210 427.835 217.835 420 227.5 420Z" fill="#0D5474"/>
<path d="M332.5 420C342.165 420 350 427.835 350 437.5C350 447.165 342.165 455 332.5 455C322.835 455 315 447.165 315 437.5C315 427.835 322.835 420 332.5 420Z" fill="#0D5474"/>
<path d="M717.5 420C727.165 420 735 427.835 735 437.5C735 447.165 727.165 455 717.5 455C707.835 455 700 447.165 700 437.5C700 427.835 707.835 420 717.5 420Z" fill="#0D5474"/>
<path d="M787.5 420C797.165 420 805 427.835 805 437.5C805 447.165 797.165 455 787.5 455C777.835 455 770 447.165 770 437.5C770 427.835 777.835 420 787.5 420Z" fill="#0D5474"/>
<path d="M822.5 420C832.165 420 840 427.835 840 437.5C840 447.165 832.165 455 822.5 455C812.835 455 805 447.165 805 437.5C805 427.835 812.835 420 822.5 420Z" fill="#0D5474"/>
<path d="M17.5 455C27.1654 455 35 462.835 35 472.5C35 482.165 27.1654 490 17.5 490C7.8351 490 0 482.165 0 472.5C0 462.835 7.8351 455 17.5 455Z" fill="#0D5474"/>
<path d="M157.5 455C167.165 455 175 462.835 175 472.5C175 482.165 167.165 490 157.5 490C147.835 490 140 482.165 140 472.5C140 462.835 147.835 455 157.5 455Z" fill="#0D5474"/>
<path d="M192.5 455C202.165 455 210 462.835 210 472.5C210 482.165 202.165 490 192.5 490C182.835 490 175 482.165 175 472.5C175 462.835 182.835 455 192.5 455Z" fill="#0D5474"/>
<path d="M262.5 455C272.165 455 280 462.835 280 472.5C280 482.165 272.165 490 262.5 490C252.835 490 245 482.165 245 472.5C245 462.835 252.835 455 262.5 455Z" fill="#0D5474"/>
<path d="M717.5 455C727.165 455 735 462.835 735 472.5C735 482.165 727.165 490 717.5 490C707.835 490 700 482.165 700 472.5C700 462.835 707.835 455 717.5 455Z" fill="#0D5474"/>
<path d="M752.5 455C762.165 455 770 462.835 770 472.5C770 482.165 762.165 490 752.5 490C742.835 490 735 482.165 735 472.5C735 462.835 742.835 455 752.5 455Z" fill="#0D5474"/>
<path d="M787.5 455C797.165 455 805 462.835 805 472.5C805 482.165 797.165 490 787.5 490C777.835 490 770 482.165 770 472.5C770 462.835 777.835 455 787.5 455Z" fill="#0D5474"/>
<path d="M822.5 455C832.165 455 840 462.835 840 472.5C840 482.165 832.165 490 822.5 490C812.835 490 805 482.165 805 472.5C805 462.835 812.835 455 822.5 455Z" fill="#0D5474"/>
<path d="M962.5 455C972.165 455 980 462.835 980 472.5C980 482.165 972.165 490 962.5 490C952.835 490 945 482.165 945 472.5C945 462.835 952.835 455 962.5 455Z" fill="#0D5474"/>
<path d="M997.5 455C1007.17 455 1015 462.835 1015 472.5C1015 482.165 1007.17 490 997.5 490C987.835 490 980 482.165 980 472.5C980 462.835 987.835 455 997.5 455Z" fill="#0D5474"/>
<path d="M52.5 490C62.1654 490 70 497.835 70 507.5C70 517.165 62.1654 525 52.5 525C42.8351 525 35 517.165 35 507.5C35 497.835 42.8351 490 52.5 490Z" fill="#0D5474"/>
<path d="M227.5 490C237.165 490 245 497.835 245 507.5C245 517.165 237.165 525 227.5 525C217.835 525 210 517.165 210 507.5C210 497.835 217.835 490 227.5 490Z" fill="#0D5474"/>
<path d="M262.5 490C272.165 490 280 497.835 280 507.5C280 517.165 272.165 525 262.5 525C252.835 525 245 517.165 245 507.5C245 497.835 252.835 490 262.5 490Z" fill="#0D5474"/>
<path d="M717.5 490C727.165 490 735 497.835 735 507.5C735 517.165 727.165 525 717.5 525C707.835 525 700 517.165 700 507.5C700 497.835 707.835 490 717.5 490Z" fill="#0D5474"/>
<path d="M752.5 490C762.165 490 770 497.835 770 507.5C770 517.165 762.165 525 752.5 525C742.835 525 735 517.165 735 507.5C735 497.835 742.835 490 752.5 490Z" fill="#0D5474"/>
<path d="M787.5 490C797.165 490 805 497.835 805 507.5C805 517.165 797.165 525 787.5 525C777.835 525 770 517.165 770 507.5C770 497.835 777.835 490 787.5 490Z" fill="#0D5474"/>
<path d="M822.5 490C832.165 490 840 497.835 840 507.5C840 517.165 832.165 525 822.5 525C812.835 525 805 517.165 805 507.5C805 497.835 812.835 490 822.5 490Z" fill="#0D5474"/>
<path d="M927.5 490C937.165 490 945 497.835 945 507.5C945 517.165 937.165 525 927.5 525C917.835 525 910 517.165 910 507.5C910 497.835 917.835 490 927.5 490Z" fill="#0D5474"/>
<path d="M997.5 490C1007.17 490 1015 497.835 1015 507.5C1015 517.165 1007.17 525 997.5 525C987.835 525 980 517.165 980 507.5C980 497.835 987.835 490 997.5 490Z" fill="#0D5474"/>
<path d="M17.5 525C27.1654 525 35 532.835 35 542.5C35 552.165 27.1654 560 17.5 560C7.8351 560 0 552.165 0 542.5C0 532.835 7.8351 525 17.5 525Z" fill="#0D5474"/>
<path d="M52.5 525C62.1654 525 70 532.835 70 542.5C70 552.165 62.1654 560 52.5 560C42.8351 560 35 552.165 35 542.5C35 532.835 42.8351 525 52.5 525Z" fill="#0D5474"/>
<path d="M87.5 525C97.1654 525 105 532.835 105 542.5C105 552.165 97.1654 560 87.5 560C77.8351 560 70 552.165 70 542.5C70 532.835 77.8351 525 87.5 525Z" fill="#0D5474"/>
<path d="M262.5 525C272.165 525 280 532.835 280 542.5C280 552.165 272.165 560 262.5 560C252.835 560 245 552.165 245 542.5C245 532.835 252.835 525 262.5 525Z" fill="#0D5474"/>
<path d="M297.5 525C307.165 525 315 532.835 315 542.5C315 552.165 307.165 560 297.5 560C287.835 560 280 552.165 280 542.5C280 532.835 287.835 525 297.5 525Z" fill="#0D5474"/>
<path d="M332.5 525C342.165 525 350 532.835 350 542.5C350 552.165 342.165 560 332.5 560C322.835 560 315 552.165 315 542.5C315 532.835 322.835 525 332.5 525Z" fill="#0D5474"/>
<path d="M752.5 525C762.165 525 770 532.835 770 542.5C770 552.165 762.165 560 752.5 560C742.835 560 735 552.165 735 542.5C735 532.835 742.835 525 752.5 525Z" fill="#0D5474"/>
<path d="M822.5 525C832.165 525 840 532.835 840 542.5C840 552.165 832.165 560 822.5 560C812.835 560 805 552.165 805 542.5C805 532.835 812.835 525 822.5 525Z" fill="#0D5474"/>
<path d="M122.5 560C132.165 560 140 567.835 140 577.5C140 587.165 132.165 595 122.5 595C112.835 595 105 587.165 105 577.5C105 567.835 112.835 560 122.5 560Z" fill="#0D5474"/>
<path d="M192.5 560C202.165 560 210 567.835 210 577.5C210 587.165 202.165 595 192.5 595C182.835 595 175 587.165 175 577.5C175 567.835 182.835 560 192.5 560Z" fill="#0D5474"/>
<path d="M227.5 560C237.165 560 245 567.835 245 577.5C245 587.165 237.165 595 227.5 595C217.835 595 210 587.165 210 577.5C210 567.835 217.835 560 227.5 560Z" fill="#0D5474"/>
<path d="M717.5 560C727.165 560 735 567.835 735 577.5C735 587.165 727.165 595 717.5 595C707.835 595 700 587.165 700 577.5C700 567.835 707.835 560 717.5 560Z" fill="#0D5474"/>
<path d="M752.5 560C762.165 560 770 567.835 770 577.5C770 587.165 762.165 595 752.5 595C742.835 595 735 587.165 735 577.5C735 567.835 742.835 560 752.5 560Z" fill="#0D5474"/>
<path d="M787.5 560C797.165 560 805 567.835 805 577.5C805 587.165 797.165 595 787.5 595C777.835 595 770 587.165 770 577.5C770 567.835 777.835 560 787.5 560Z" fill="#0D5474"/>
<path d="M892.5 560C902.165 560 910 567.835 910 577.5C910 587.165 902.165 595 892.5 595C882.835 595 875 587.165 875 577.5C875 567.835 882.835 560 892.5 560Z" fill="#0D5474"/>
<path d="M52.5 595C62.1654 595 70 602.835 70 612.5C70 622.165 62.1654 630 52.5 630C42.8351 630 35 622.165 35 612.5C35 602.835 42.8351 595 52.5 595Z" fill="#0D5474"/>
<path d="M297.5 595C307.165 595 315 602.835 315 612.5C315 622.165 307.165 630 297.5 630C287.835 630 280 622.165 280 612.5C280 602.835 287.835 595 297.5 595Z" fill="#0D5474"/>
<path d="M682.5 595C692.165 595 700 602.835 700 612.5C700 622.165 692.165 630 682.5 630C672.835 630 665 622.165 665 612.5C665 602.835 672.835 595 682.5 595Z" fill="#0D5474"/>
<path d="M717.5 595C727.165 595 735 602.835 735 612.5C735 622.165 727.165 630 717.5 630C707.835 630 700 622.165 700 612.5C700 602.835 707.835 595 717.5 595Z" fill="#0D5474"/>
<path d="M787.5 595C797.165 595 805 602.835 805 612.5C805 622.165 797.165 630 787.5 630C777.835 630 770 622.165 770 612.5C770 602.835 777.835 595 787.5 595Z" fill="#0D5474"/>
<path d="M962.5 595C972.165 595 980 602.835 980 612.5C980 622.165 972.165 630 962.5 630C952.835 630 945 622.165 945 612.5C945 602.835 952.835 595 962.5 595Z" fill="#0D5474"/>
<path d="M997.5 595C1007.17 595 1015 602.835 1015 612.5C1015 622.165 1007.17 630 997.5 630C987.835 630 980 622.165 980 612.5C980 602.835 987.835 595 997.5 595Z" fill="#0D5474"/>
<path d="M17.5 630C27.1654 630 35 637.835 35 647.5C35 657.165 27.1654 665 17.5 665C7.8351 665 0 657.165 0 647.5C0 637.835 7.8351 630 17.5 630Z" fill="#0D5474"/>
<path d="M122.5 630C132.165 630 140 637.835 140 647.5C140 657.165 132.165 665 122.5 665C112.835 665 105 657.165 105 647.5C105 637.835 112.835 630 122.5 630Z" fill="#0D5474"/>
<path d="M227.5 630C237.165 630 245 637.835 245 647.5C245 657.165 237.165 665 227.5 665C217.835 665 210 657.165 210 647.5C210 637.835 217.835 630 227.5 630Z" fill="#0D5474"/>
<path d="M262.5 630C272.165 630 280 637.835 280 647.5C280 657.165 272.165 665 262.5 665C252.835 665 245 657.165 245 647.5C245 637.835 252.835 630 262.5 630Z" fill="#0D5474"/>
<path d="M332.5 630C342.165 630 350 637.835 350 647.5C350 657.165 342.165 665 332.5 665C322.835 665 315 657.165 315 647.5C315 637.835 322.835 630 332.5 630Z" fill="#0D5474"/>
<path d="M682.5 630C692.165 630 700 637.835 700 647.5C700 657.165 692.165 665 682.5 665C672.835 665 665 657.165 665 647.5C665 637.835 672.835 630 682.5 630Z" fill="#0D5474"/>
<path d="M717.5 630C727.165 630 735 637.835 735 647.5C735 657.165 727.165 665 717.5 665C707.835 665 700 657.165 700 647.5C700 637.835 707.835 630 717.5 630Z" fill="#0D5474"/>
<path d="M752.5 630C762.165 630 770 637.835 770 647.5C770 657.165 762.165 665 752.5 665C742.835 665 735 657.165 735 647.5C735 637.835 742.835 630 752.5 630Z" fill="#0D5474"/>
<path d="M822.5 630C832.165 630 840 637.835 840 647.5C840 657.165 832.165 665 822.5 665C812.835 665 805 657.165 805 647.5C805 637.835 812.835 630 822.5 630Z" fill="#0D5474"/>
<path d="M857.5 630C867.165 630 875 637.835 875 647.5C875 657.165 867.165 665 857.5 665C847.835 665 840 657.165 840 647.5C840 637.835 847.835 630 857.5 630Z" fill="#0D5474"/>
<path d="M927.5 630C937.165 630 945 637.835 945 647.5C945 657.165 937.165 665 927.5 665C917.835 665 910 657.165 910 647.5C910 637.835 917.835 630 927.5 630Z" fill="#0D5474"/>
<path d="M962.5 630C972.165 630 980 637.835 980 647.5C980 657.165 972.165 665 962.5 665C952.835 665 945 657.165 945 647.5C945 637.835 952.835 630 962.5 630Z" fill="#0D5474"/>
<path d="M997.5 630C1007.17 630 1015 637.835 1015 647.5C1015 657.165 1007.17 665 997.5 665C987.835 665 980 657.165 980 647.5C980 637.835 987.835 630 997.5 630Z" fill="#0D5474"/>
<path d="M52.5 665C62.1654 665 70 672.835 70 682.5C70 692.165 62.1654 700 52.5 700C42.8351 700 35 692.165 35 682.5C35 672.835 42.8351 665 52.5 665Z" fill="#0D5474"/>
<path d="M87.5 665C97.1654 665 105 672.835 105 682.5C105 692.165 97.1654 700 87.5 700C77.8351 700 70 692.165 70 682.5C70 672.835 77.8351 665 87.5 665Z" fill="#0D5474"/>
<path d="M157.5 665C167.165 665 175 672.835 175 682.5C175 692.165 167.165 700 157.5 700C147.835 700 140 692.165 140 682.5C140 672.835 147.835 665 157.5 665Z" fill="#0D5474"/>
<path d="M332.5 665C342.165 665 350 672.835 350 682.5C350 692.165 342.165 700 332.5 700C322.835 700 315 692.165 315 682.5C315 672.835 322.835 665 332.5 665Z" fill="#0D5474"/>
<path d="M402.5 665C412.165 665 420 672.835 420 682.5C420 692.165 412.165 700 402.5 700C392.835 700 385 692.165 385 682.5C385 672.835 392.835 665 402.5 665Z" fill="#0D5474"/>
<path d="M437.5 665C447.165 665 455 672.835 455 682.5C455 692.165 447.165 700 437.5 700C427.835 700 420 692.165 420 682.5C420 672.835 427.835 665 437.5 665Z" fill="#0D5474"/>
<path d="M612.5 665C622.165 665 630 672.835 630 682.5C630 692.165 622.165 700 612.5 700C602.835 700 595 692.165 595 682.5C595 672.835 602.835 665 612.5 665Z" fill="#0D5474"/>
<path d="M717.5 665C727.165 665 735 672.835 735 682.5C735 692.165 727.165 700 717.5 700C707.835 700 700 692.165 700 682.5C700 672.835 707.835 665 717.5 665Z" fill="#0D5474"/>
<path d="M787.5 665C797.165 665 805 672.835 805 682.5C805 692.165 797.165 700 787.5 700C777.835 700 770 692.165 770 682.5C770 672.835 777.835 665 787.5 665Z" fill="#0D5474"/>
<path d="M962.5 665C972.165 665 980 672.835 980 682.5C980 692.165 972.165 700 962.5 700C952.835 700 945 692.165 945 682.5C945 672.835 952.835 665 962.5 665Z" fill="#0D5474"/>
<path d="M17.5 700C27.1654 700 35 707.835 35 717.5C35 727.165 27.1654 735 17.5 735C7.8351 735 0 727.165 0 717.5C0 707.835 7.8351 700 17.5 700Z" fill="#0D5474"/>
<path d="M87.5 700C97.1654 700 105 707.835 105 717.5C105 727.165 97.1654 735 87.5 735C77.8351 735 70 727.165 70 717.5C70 707.835 77.8351 700 87.5 700Z" fill="#0D5474"/>
<path d="M227.5 700C237.165 700 245 707.835 245 717.5C245 727.165 237.165 735 227.5 735C217.835 735 210 727.165 210 717.5C210 707.835 217.835 700 227.5 700Z" fill="#0D5474"/>
<path d="M297.5 700C307.165 700 315 707.835 315 717.5C315 727.165 307.165 735 297.5 735C287.835 735 280 727.165 280 717.5C280 707.835 287.835 700 297.5 700Z" fill="#0D5474"/>
<path d="M367.5 700C377.165 700 385 707.835 385 717.5C385 727.165 377.165 735 367.5 735C357.835 735 350 727.165 350 717.5C350 707.835 357.835 700 367.5 700Z" fill="#0D5474"/>
<path d="M437.5 700C447.165 700 455 707.835 455 717.5C455 727.165 447.165 735 437.5 735C427.835 735 420 727.165 420 717.5C420 707.835 427.835 700 437.5 700Z" fill="#0D5474"/>
<path d="M507.5 700C517.165 700 525 707.835 525 717.5C525 727.165 517.165 735 507.5 735C497.835 735 490 727.165 490 717.5C490 707.835 497.835 700 507.5 700Z" fill="#0D5474"/>
<path d="M612.5 700C622.165 700 630 707.835 630 717.5C630 727.165 622.165 735 612.5 735C602.835 735 595 727.165 595 717.5C595 707.835 602.835 700 612.5 700Z" fill="#0D5474"/>
<path d="M647.5 700C657.165 700 665 707.835 665 717.5C665 727.165 657.165 735 647.5 735C637.835 735 630 727.165 630 717.5C630 707.835 637.835 700 647.5 700Z" fill="#0D5474"/>
<path d="M682.5 700C692.165 700 700 707.835 700 717.5C700 727.165 692.165 735 682.5 735C672.835 735 665 727.165 665 717.5C665 707.835 672.835 700 682.5 700Z" fill="#0D5474"/>
<path d="M717.5 700C727.165 700 735 707.835 735 717.5C735 727.165 727.165 735 717.5 735C707.835 735 700 727.165 700 717.5C700 707.835 707.835 700 717.5 700Z" fill="#0D5474"/>
<path d="M752.5 700C762.165 700 770 707.835 770 717.5C770 727.165 762.165 735 752.5 735C742.835 735 735 727.165 735 717.5C735 707.835 742.835 700 752.5 700Z" fill="#0D5474"/>
<path d="M787.5 700C797.165 700 805 707.835 805 717.5C805 727.165 797.165 735 787.5 735C777.835 735 770 727.165 770 717.5C770 707.835 777.835 700 787.5 700Z" fill="#0D5474"/>
<path d="M822.5 700C832.165 700 840 707.835 840 717.5C840 727.165 832.165 735 822.5 735C812.835 735 805 727.165 805 717.5C805 707.835 812.835 700 822.5 700Z" fill="#0D5474"/>
<path d="M857.5 700C867.165 700 875 707.835 875 717.5C875 727.165 867.165 735 857.5 735C847.835 735 840 727.165 840 717.5C840 707.835 847.835 700 857.5 700Z" fill="#0D5474"/>
<path d="M962.5 700C972.165 700 980 707.835 980 717.5C980 727.165 972.165 735 962.5 735C952.835 735 945 727.165 945 717.5C945 707.835 952.835 700 962.5 700Z" fill="#0D5474"/>
<path d="M997.5 700C1007.17 700 1015 707.835 1015 717.5C1015 727.165 1007.17 735 997.5 735C987.835 735 980 727.165 980 717.5C980 707.835 987.835 700 997.5 700Z" fill="#0D5474"/>
<path d="M297.5 735C307.165 735 315 742.835 315 752.5C315 762.165 307.165 770 297.5 770C287.835 770 280 762.165 280 752.5C280 742.835 287.835 735 297.5 735Z" fill="#0D5474"/>
<path d="M367.5 735C377.165 735 385 742.835 385 752.5C385 762.165 377.165 770 367.5 770C357.835 770 350 762.165 350 752.5C350 742.835 357.835 735 367.5 735Z" fill="#0D5474"/>
<path d="M402.5 735C412.165 735 420 742.835 420 752.5C420 762.165 412.165 770 402.5 770C392.835 770 385 762.165 385 752.5C385 742.835 392.835 735 402.5 735Z" fill="#0D5474"/>
<path d="M437.5 735C447.165 735 455 742.835 455 752.5C455 762.165 447.165 770 437.5 770C427.835 770 420 762.165 420 752.5C420 742.835 427.835 735 437.5 735Z" fill="#0D5474"/>
<path d="M507.5 735C517.165 735 525 742.835 525 752.5C525 762.165 517.165 770 507.5 770C497.835 770 490 762.165 490 752.5C490 742.835 497.835 735 507.5 735Z" fill="#0D5474"/>
<path d="M577.5 735C587.165 735 595 742.835 595 752.5C595 762.165 587.165 770 577.5 770C567.835 770 560 762.165 560 752.5C560 742.835 567.835 735 577.5 735Z" fill="#0D5474"/>
<path d="M647.5 735C657.165 735 665 742.835 665 752.5C665 762.165 657.165 770 647.5 770C637.835 770 630 762.165 630 752.5C630 742.835 637.835 735 647.5 735Z" fill="#0D5474"/>
<path d="M717.5 735C727.165 735 735 742.835 735 752.5C735 762.165 727.165 770 717.5 770C707.835 770 700 762.165 700 752.5C700 742.835 707.835 735 717.5 735Z" fill="#0D5474"/>
<path d="M857.5 735C867.165 735 875 742.835 875 752.5C875 762.165 867.165 770 857.5 770C847.835 770 840 762.165 840 752.5C840 742.835 847.835 735 857.5 735Z" fill="#0D5474"/>
<path d="M997.5 735C1007.17 735 1015 742.835 1015 752.5C1015 762.165 1007.17 770 997.5 770C987.835 770 980 762.165 980 752.5C980 742.835 987.835 735 997.5 735Z" fill="#0D5474"/>
<path d="M402.5 770C412.165 770 420 777.835 420 787.5C420 797.165 412.165 805 402.5 805C392.835 805 385 797.165 385 787.5C385 777.835 392.835 770 402.5 770Z" fill="#0D5474"/>
<path d="M472.5 770C482.165 770 490 777.835 490 787.5C490 797.165 482.165 805 472.5 805C462.835 805 455 797.165 455 787.5C455 777.835 462.835 770 472.5 770Z" fill="#0D5474"/>
<path d="M647.5 770C657.165 770 665 777.835 665 787.5C665 797.165 657.165 805 647.5 805C637.835 805 630 797.165 630 787.5C630 777.835 637.835 770 647.5 770Z" fill="#0D5474"/>
<path d="M682.5 770C692.165 770 700 777.835 700 787.5C700 797.165 692.165 805 682.5 805C672.835 805 665 797.165 665 787.5C665 777.835 672.835 770 682.5 770Z" fill="#0D5474"/>
<path d="M717.5 770C727.165 770 735 777.835 735 787.5C735 797.165 727.165 805 717.5 805C707.835 805 700 797.165 700 787.5C700 777.835 707.835 770 717.5 770Z" fill="#0D5474"/>
<path d="M787.5 770C797.165 770 805 777.835 805 787.5C805 797.165 797.165 805 787.5 805C777.835 805 770 797.165 770 787.5C770 777.835 777.835 770 787.5 770Z" fill="#0D5474"/>
<path d="M857.5 770C867.165 770 875 777.835 875 787.5C875 797.165 867.165 805 857.5 805C847.835 805 840 797.165 840 787.5C840 777.835 847.835 770 857.5 770Z" fill="#0D5474"/>
<path d="M927.5 770C937.165 770 945 777.835 945 787.5C945 797.165 937.165 805 927.5 805C917.835 805 910 797.165 910 787.5C910 777.835 917.835 770 927.5 770Z" fill="#0D5474"/>
<path d="M962.5 770C972.165 770 980 777.835 980 787.5C980 797.165 972.165 805 962.5 805C952.835 805 945 797.165 945 787.5C945 777.835 952.835 770 962.5 770Z" fill="#0D5474"/>
<path d="M997.5 770C1007.17 770 1015 777.835 1015 787.5C1015 797.165 1007.17 805 997.5 805C987.835 805 980 797.165 980 787.5C980 777.835 987.835 770 997.5 770Z" fill="#0D5474"/>
<path d="M297.5 805C307.165 805 315 812.835 315 822.5C315 832.165 307.165 840 297.5 840C287.835 840 280 832.165 280 822.5C280 812.835 287.835 805 297.5 805Z" fill="#0D5474"/>
<path d="M367.5 805C377.165 805 385 812.835 385 822.5C385 832.165 377.165 840 367.5 840C357.835 840 350 832.165 350 822.5C350 812.835 357.835 805 367.5 805Z" fill="#0D5474"/>
<path d="M472.5 805C482.165 805 490 812.835 490 822.5C490 832.165 482.165 840 472.5 840C462.835 840 455 832.165 455 822.5C455 812.835 462.835 805 472.5 805Z" fill="#0D5474"/>
<path d="M507.5 805C517.165 805 525 812.835 525 822.5C525 832.165 517.165 840 507.5 840C497.835 840 490 832.165 490 822.5C490 812.835 497.835 805 507.5 805Z" fill="#0D5474"/>
<path d="M542.5 805C552.165 805 560 812.835 560 822.5C560 832.165 552.165 840 542.5 840C532.835 840 525 832.165 525 822.5C525 812.835 532.835 805 542.5 805Z" fill="#0D5474"/>
<path d="M577.5 805C587.165 805 595 812.835 595 822.5C595 832.165 587.165 840 577.5 840C567.835 840 560 832.165 560 822.5C560 812.835 567.835 805 577.5 805Z" fill="#0D5474"/>
<path d="M647.5 805C657.165 805 665 812.835 665 822.5C665 832.165 657.165 840 647.5 840C637.835 840 630 832.165 630 822.5C630 812.835 637.835 805 647.5 805Z" fill="#0D5474"/>
<path d="M717.5 805C727.165 805 735 812.835 735 822.5C735 832.165 727.165 840 717.5 840C707.835 840 700 832.165 700 822.5C700 812.835 707.835 805 717.5 805Z" fill="#0D5474"/>
<path d="M857.5 805C867.165 805 875 812.835 875 822.5C875 832.165 867.165 840 857.5 840C847.835 840 840 832.165 840 822.5C840 812.835 847.835 805 857.5 805Z" fill="#0D5474"/>
<path d="M997.5 805C1007.17 805 1015 812.835 1015 822.5C1015 832.165 1007.17 840 997.5 840C987.835 840 980 832.165 980 822.5C980 812.835 987.835 805 997.5 805Z" fill="#0D5474"/>
<path d="M297.5 840C307.165 840 315 847.835 315 857.5C315 867.165 307.165 875 297.5 875C287.835 875 280 867.165 280 857.5C280 847.835 287.835 840 297.5 840Z" fill="#0D5474"/>
<path d="M332.5 840C342.165 840 350 847.835 350 857.5C350 867.165 342.165 875 332.5 875C322.835 875 315 867.165 315 857.5C315 847.835 322.835 840 332.5 840Z" fill="#0D5474"/>
<path d="M402.5 840C412.165 840 420 847.835 420 857.5C420 867.165 412.165 875 402.5 875C392.835 875 385 867.165 385 857.5C385 847.835 392.835 840 402.5 840Z" fill="#0D5474"/>
<path d="M472.5 840C482.165 840 490 847.835 490 857.5C490 867.165 482.165 875 472.5 875C462.835 875 455 867.165 455 857.5C455 847.835 462.835 840 472.5 840Z" fill="#0D5474"/>
<path d="M647.5 840C657.165 840 665 847.835 665 857.5C665 867.165 657.165 875 647.5 875C637.835 875 630 867.165 630 857.5C630 847.835 637.835 840 647.5 840Z" fill="#0D5474"/>
<path d="M717.5 840C727.165 840 735 847.835 735 857.5C735 867.165 727.165 875 717.5 875C707.835 875 700 867.165 700 857.5C700 847.835 707.835 840 717.5 840Z" fill="#0D5474"/>
<path d="M752.5 840C762.165 840 770 847.835 770 857.5C770 867.165 762.165 875 752.5 875C742.835 875 735 867.165 735 857.5C735 847.835 742.835 840 752.5 840Z" fill="#0D5474"/>
<path d="M787.5 840C797.165 840 805 847.835 805 857.5C805 867.165 797.165 875 787.5 875C777.835 875 770 867.165 770 857.5C770 847.835 777.835 840 787.5 840Z" fill="#0D5474"/>
<path d="M822.5 840C832.165 840 840 847.835 840 857.5C840 867.165 832.165 875 822.5 875C812.835 875 805 867.165 805 857.5C805 847.835 812.835 840 822.5 840Z" fill="#0D5474"/>
<path d="M857.5 840C867.165 840 875 847.835 875 857.5C875 867.165 867.165 875 857.5 875C847.835 875 840 867.165 840 857.5C840 847.835 847.835 840 857.5 840Z" fill="#0D5474"/>
<path d="M892.5 840C902.165 840 910 847.835 910 857.5C910 867.165 902.165 875 892.5 875C882.835 875 875 867.165 875 857.5C875 847.835 882.835 840 892.5 840Z" fill="#0D5474"/>
<path d="M962.5 840C972.165 840 980 847.835 980 857.5C980 867.165 972.165 875 962.5 875C952.835 875 945 867.165 945 857.5C945 847.835 952.835 840 962.5 840Z" fill="#0D5474"/>
<path d="M997.5 840C1007.17 840 1015 847.835 1015 857.5C1015 867.165 1007.17 875 997.5 875C987.835 875 980 867.165 980 857.5C980 847.835 987.835 840 997.5 840Z" fill="#0D5474"/>
<path d="M437.5 875C447.165 875 455 882.835 455 892.5C455 902.165 447.165 910 437.5 910C427.835 910 420 902.165 420 892.5C420 882.835 427.835 875 437.5 875Z" fill="#0D5474"/>
<path d="M507.5 875C517.165 875 525 882.835 525 892.5C525 902.165 517.165 910 507.5 910C497.835 910 490 902.165 490 892.5C490 882.835 497.835 875 507.5 875Z" fill="#0D5474"/>
<path d="M542.5 875C552.165 875 560 882.835 560 892.5C560 902.165 552.165 910 542.5 910C532.835 910 525 902.165 525 892.5C525 882.835 532.835 875 542.5 875Z" fill="#0D5474"/>
<path d="M647.5 875C657.165 875 665 882.835 665 892.5C665 902.165 657.165 910 647.5 910C637.835 910 630 902.165 630 892.5C630 882.835 637.835 875 647.5 875Z" fill="#0D5474"/>
<path d="M717.5 875C727.165 875 735 882.835 735 892.5C735 902.165 727.165 910 717.5 910C707.835 910 700 902.165 700 892.5C700 882.835 707.835 875 717.5 875Z" fill="#0D5474"/>
<path d="M752.5 875C762.165 875 770 882.835 770 892.5C770 902.165 762.165 910 752.5 910C742.835 910 735 902.165 735 892.5C735 882.835 742.835 875 752.5 875Z" fill="#0D5474"/>
<path d="M857.5 875C867.165 875 875 882.835 875 892.5C875 902.165 867.165 910 857.5 910C847.835 910 840 902.165 840 892.5C840 882.835 847.835 875 857.5 875Z" fill="#0D5474"/>
<path d="M927.5 875C937.165 875 945 882.835 945 892.5C945 902.165 937.165 910 927.5 910C917.835 910 910 902.165 910 892.5C910 882.835 917.835 875 927.5 875Z" fill="#0D5474"/>
<path d="M297.5 910C307.165 910 315 917.835 315 927.5C315 937.165 307.165 945 297.5 945C287.835 945 280 937.165 280 927.5C280 917.835 287.835 910 297.5 910Z" fill="#0D5474"/>
<path d="M437.5 910C447.165 910 455 917.835 455 927.5C455 937.165 447.165 945 437.5 945C427.835 945 420 937.165 420 927.5C420 917.835 427.835 910 437.5 910Z" fill="#0D5474"/>
<path d="M507.5 910C517.165 910 525 917.835 525 927.5C525 937.165 517.165 945 507.5 945C497.835 945 490 937.165 490 927.5C490 917.835 497.835 910 507.5 910Z" fill="#0D5474"/>
<path d="M612.5 910C622.165 910 630 917.835 630 927.5C630 937.165 622.165 945 612.5 945C602.835 945 595 937.165 595 927.5C595 917.835 602.835 910 612.5 910Z" fill="#0D5474"/>
<path d="M682.5 910C692.165 910 700 917.835 700 927.5C700 937.165 692.165 945 682.5 945C672.835 945 665 937.165 665 927.5C665 917.835 672.835 910 682.5 910Z" fill="#0D5474"/>
<path d="M822.5 910C832.165 910 840 917.835 840 927.5C840 937.165 832.165 945 822.5 945C812.835 945 805 937.165 805 927.5C805 917.835 812.835 910 822.5 910Z" fill="#0D5474"/>
<path d="M857.5 910C867.165 910 875 917.835 875 927.5C875 937.165 867.165 945 857.5 945C847.835 945 840 937.165 840 927.5C840 917.835 847.835 910 857.5 910Z" fill="#0D5474"/>
<path d="M892.5 910C902.165 910 910 917.835 910 927.5C910 937.165 902.165 945 892.5 945C882.835 945 875 937.165 875 927.5C875 917.835 882.835 910 892.5 910Z" fill="#0D5474"/>
<path d="M997.5 910C1007.17 910 1015 917.835 1015 927.5C1015 937.165 1007.17 945 997.5 945C987.835 945 980 937.165 980 927.5C980 917.835 987.835 910 997.5 910Z" fill="#0D5474"/>
<path d="M367.5 945C377.165 945 385 952.835 385 962.5C385 972.165 377.165 980 367.5 980C357.835 980 350 972.165 350 962.5C350 952.835 357.835 945 367.5 945Z" fill="#0D5474"/>
<path d="M507.5 945C517.165 945 525 952.835 525 962.5C525 972.165 517.165 980 507.5 980C497.835 980 490 972.165 490 962.5C490 952.835 497.835 945 507.5 945Z" fill="#0D5474"/>
<path d="M577.5 945C587.165 945 595 952.835 595 962.5C595 972.165 587.165 980 577.5 980C567.835 980 560 972.165 560 962.5C560 952.835 567.835 945 577.5 945Z" fill="#0D5474"/>
<path d="M682.5 945C692.165 945 700 952.835 700 962.5C700 972.165 692.165 980 682.5 980C672.835 980 665 972.165 665 962.5C665 952.835 672.835 945 682.5 945Z" fill="#0D5474"/>
<path d="M752.5 945C762.165 945 770 952.835 770 962.5C770 972.165 762.165 980 752.5 980C742.835 980 735 972.165 735 962.5C735 952.835 742.835 945 752.5 945Z" fill="#0D5474"/>
<path d="M822.5 945C832.165 945 840 952.835 840 962.5C840 972.165 832.165 980 822.5 980C812.835 980 805 972.165 805 962.5C805 952.835 812.835 945 822.5 945Z" fill="#0D5474"/>
<path d="M892.5 945C902.165 945 910 952.835 910 962.5C910 972.165 902.165 980 892.5 980C882.835 980 875 972.165 875 962.5C875 952.835 882.835 945 892.5 945Z" fill="#0D5474"/>
<path d="M962.5 945C972.165 945 980 952.835 980 962.5C980 972.165 972.165 980 962.5 980C952.835 980 945 972.165 945 962.5C945 952.835 952.835 945 962.5 945Z" fill="#0D5474"/>
<path d="M437.5 980C447.165 980 455 987.835 455 997.5C455 1007.17 447.165 1015 437.5 1015C427.835 1015 420 1007.17 420 997.5C420 987.835 427.835 980 437.5 980Z" fill="#0D5474"/>
<path d="M472.5 980C482.165 980 490 987.835 490 997.5C490 1007.17 482.165 1015 472.5 1015C462.835 1015 455 1007.17 455 997.5C455 987.835 462.835 980 472.5 980Z" fill="#0D5474"/>
<path d="M577.5 980C587.165 980 595 987.835 595 997.5C595 1007.17 587.165 1015 577.5 1015C567.835 1015 560 1007.17 560 997.5C560 987.835 567.835 980 577.5 980Z" fill="#0D5474"/>
<path d="M717.5 980C727.165 980 735 987.835 735 997.5C735 1007.17 727.165 1015 717.5 1015C707.835 1015 700 1007.17 700 997.5C700 987.835 707.835 980 717.5 980Z" fill="#0D5474"/>
<path d="M752.5 980C762.165 980 770 987.835 770 997.5C770 1007.17 762.165 1015 752.5 1015C742.835 1015 735 1007.17 735 997.5C735 987.835 742.835 980 752.5 980Z" fill="#0D5474"/>
<path d="M787.5 980C797.165 980 805 987.835 805 997.5C805 1007.17 797.165 1015 787.5 1015C777.835 1015 770 1007.17 770 997.5C770 987.835 777.835 980 787.5 980Z" fill="#0D5474"/>
<path d="M857.5 980C867.165 980 875 987.835 875 997.5C875 1007.17 867.165 1015 857.5 1015C847.835 1015 840 1007.17 840 997.5C840 987.835 847.835 980 857.5 980Z" fill="#0D5474"/>
<path d="M892.5 980C902.165 980 910 987.835 910 997.5C910 1007.17 902.165 1015 892.5 1015C882.835 1015 875 1007.17 875 997.5C875 987.835 882.835 980 892.5 980Z" fill="#0D5474"/>
<path d="M962.5 980C972.165 980 980 987.835 980 997.5C980 1007.17 972.165 1015 962.5 1015C952.835 1015 945 1007.17 945 997.5C945 987.835 952.835 980 962.5 980Z" fill="#0D5474"/>
<path d="M997.5 980C1007.17 980 1015 987.835 1015 997.5C1015 1007.17 1007.17 1015 997.5 1015C987.835 1015 980 1007.17 980 997.5C980 987.835 987.835 980 997.5 980Z" fill="#0D5474"/>
<path d="M-4.76837e-06 162.241V82.6875C-4.76837e-06 37.0955 37.534 0 83.6454 0H161.357C207.466 0 245 37.0955 245 82.6875V245L83.6454 244.951C37.534 244.951 -4.76837e-06 207.858 -4.76837e-06 162.241ZM36.75 162.241C36.75 187.584 57.7857 208.203 83.6552 208.203L208.25 208.24V82.6875C208.25 57.357 187.214 36.75 161.357 36.75H83.6454C57.7857 36.75 36.75 57.357 36.75 82.6875V162.241Z" fill="#0D5474"/>
<path d="M1015 162.241V82.6875C1015 37.0955 977.466 0 931.355 0H853.643C807.534 0 770 37.0955 770 82.6875V245L931.355 244.951C977.466 244.951 1015 207.858 1015 162.241ZM978.25 162.241C978.25 187.584 957.214 208.203 931.345 208.203L806.75 208.24V82.6875C806.75 57.357 827.786 36.75 853.643 36.75H931.355C957.214 36.75 978.25 57.357 978.25 82.6875V162.241Z" fill="#0D5474"/>
<path d="M-4.76837e-06 852.759V932.312C-4.76837e-06 977.905 37.534 1015 83.6454 1015H161.357C207.466 1015 245 977.905 245 932.312V770L83.6454 770.049C37.534 770.049 -4.76837e-06 807.142 -4.76837e-06 852.759ZM36.75 852.759C36.75 827.416 57.7857 806.797 83.6552 806.797L208.25 806.76V932.312C208.25 957.643 187.214 978.25 161.357 978.25H83.6454C57.7857 978.25 36.75 957.643 36.75 932.312V852.759Z" fill="#0D5474"/>
<path d="M70 146.418V98.5547C70 82.8131 83.0158 70 99.0115 70H145.989C161.983 70 175 82.8131 175 98.5547V175L99.0115 174.956C83.0158 174.956 70 162.16 70 146.418Z" fill="#0D5474"/>
<path d="M945 146.418V98.5547C945 82.8131 931.984 70 915.988 70H869.011C853.017 70 840 82.8131 840 98.5547V175L915.988 174.956C931.984 174.956 945 162.16 945 146.418Z" fill="#0D5474"/>
<path d="M70 868.582V916.445C70 932.187 83.0158 945 99.0115 945H145.989C161.983 945 175 932.187 175 916.445V840L99.0115 840.044C83.0158 840.044 70 852.84 70 868.582Z" fill="#0D5474"/>
<g clip-path="url(#clip0_18_827)">
<path d="M585.6 370.861L514.16 476.621L584.35 477.516L447.413 652.13L502.166 511.299L432.657 511.121L511.942 350C511.942 350 532.718 350.578 550.589 355.608C568.413 360.625 585.6 370.861 585.6 370.861Z" fill="#FAB759"/>
<path d="M601.111 381.348C606.986 385.762 612.598 390.619 617.947 395.915C632.749 410.862 644.106 427.862 652.018 446.911C659.933 465.962 663.888 485.966 663.888 506.922C663.888 527.877 659.933 547.843 652.018 566.82C644.106 585.798 632.749 602.761 617.947 617.707C603.001 632.655 586.002 644.086 566.951 651.998C547.9 659.911 527.897 663.868 506.941 663.868C493.068 663.868 479.628 662.135 466.623 658.666L505.317 609.123C505.858 609.13 506.399 609.134 506.941 609.134C525.845 609.134 543.028 604.518 558.488 595.287C573.949 586.054 586.295 573.709 595.528 558.248C604.759 542.788 609.374 525.678 609.374 506.922C609.374 488.018 604.759 470.834 595.528 455.375C588.828 444.157 580.491 434.579 570.514 426.642L601.111 381.348ZM490.685 350.789L458.174 416.86C457.316 417.337 456.463 417.83 455.615 418.337C440.155 427.568 427.808 439.915 418.577 455.375C409.343 470.834 404.728 488.018 404.728 506.922C404.728 525.678 409.343 542.788 418.577 558.248C427.04 572.423 438.124 583.981 451.825 592.92L432.448 645.003C419.257 637.812 407.159 628.713 396.155 617.707C381.207 602.761 369.778 585.798 361.863 566.82C353.95 547.843 349.993 527.877 349.993 506.922C349.993 485.966 353.95 465.962 361.863 446.911C369.778 427.862 381.207 410.862 396.155 395.915C411.101 381.114 428.064 369.757 447.042 361.845C461.051 356.003 475.599 352.317 490.685 350.789Z" fill="#0D5474"/>
</g>
<defs>
<clipPath id="clip0_18_827">
<rect width="315" height="315" fill="white" transform="translate(350 350)"/>
</clipPath>
</defs>
</svg>
