<svg xmlns="http://www.w3.org/2000/svg" xmlns:xlink="http://www.w3.org/1999/xlink" width="1000" zoomAndPan="magnify" viewBox="0 0 750 749.999995" height="1000" preserveAspectRatio="xMidYMid meet" version="1.0"><defs><clipPath id="94c681ae2d"><path d="M 142 144 L 607 144 L 607 608.234375 L 142 608.234375 Z M 142 144 " clip-rule="nonzero"/></clipPath><clipPath id="508e657654"><path d="M 85.382812 212.683594 L 664.382812 212.683594 L 664.382812 537.433594 L 85.382812 537.433594 Z M 85.382812 212.683594 " clip-rule="nonzero"/></clipPath></defs><g clip-path="url(#94c681ae2d)"><path fill="#004aad" d="M 374.503906 608.257812 C 246.542969 608.257812 142.578125 504.289062 142.578125 376.328125 C 142.578125 248.367188 246.542969 144.398438 374.503906 144.398438 C 502.464844 144.398438 606.433594 248.367188 606.433594 376.328125 C 606.433594 504.289062 502.464844 608.257812 374.503906 608.257812 Z M 374.503906 509.621094 C 446.484375 509.621094 507.796875 448.304688 507.796875 376.328125 C 507.796875 304.351562 446.484375 243.035156 374.503906 243.035156 C 302.527344 243.035156 241.210938 304.351562 241.210938 376.328125 C 241.210938 448.304688 302.527344 509.621094 374.503906 509.621094 Z M 374.503906 509.621094 " fill-opacity="1" fill-rule="nonzero"/></g><g clip-path="url(#508e657654)"><path fill="#ffbd59" d="M 646.46875 212.683594 C 646.558594 214.636719 646.027344 216.539062 645.570312 218.417969 C 638.347656 245.71875 616.34375 255.039062 646.203125 242.785156 C 653.507812 239.679688 661.863281 235.988281 663.984375 227.8125 C 664.605469 239.925781 658.699219 253.214844 650.480469 263.222656 C 646.191406 268.804688 640.980469 272.921875 641.058594 274.960938 C 642.683594 275.5 656.824219 271.257812 657.949219 265.359375 C 658.035156 265.324219 658.214844 265.25 658.304688 265.21875 C 658.828125 278.519531 645.054688 303.628906 619.90625 317.867188 C 618.292969 318.878906 616.285156 319.433594 615.152344 321.066406 C 614.753906 321.460938 615.144531 321.933594 615.386719 322.285156 C 615.792969 322.867188 616.488281 323.109375 617.09375 323.421875 C 624.996094 327.195312 627.226562 337.453125 631.117188 339.105469 C 613.0625 349.875 610.347656 353.046875 597.292969 355.316406 C 589.292969 357.261719 596.8125 358.902344 599.574219 362.625 C 602.5 366.222656 603.585938 370.839844 605.691406 374.890625 C 606.101562 375.550781 606.707031 376.050781 607.152344 376.683594 C 605.429688 377.269531 603.617188 377.519531 601.886719 378.085938 C 597.644531 379.398438 593.863281 381.785156 589.835938 383.597656 C 576.335938 389.488281 562.492188 382.964844 560.414062 382.972656 C 559.992188 383.273438 559.398438 383.664062 559.417969 384.238281 C 559.960938 385.636719 565.550781 391.03125 561.382812 401.214844 C 560.8125 402.523438 561.054688 403.976562 561.058594 405.355469 C 560.992188 405.386719 560.855469 405.453125 560.792969 405.484375 C 556.449219 401.875 553.910156 406.289062 548.078125 406.261719 C 546.113281 406.304688 544.257812 405.570312 542.355469 405.21875 C 541.09375 405.167969 540.113281 406.332031 539.917969 407.503906 C 538.894531 412.300781 535.246094 414.257812 537.019531 419.457031 C 536.175781 419.136719 535.542969 418.417969 534.660156 418.199219 C 532.125 417.667969 529.667969 418.683594 527.253906 419.308594 C 525.496094 419.8125 523.660156 419.421875 521.871094 419.527344 C 520.644531 419.761719 519.964844 420.929688 519.296875 421.867188 C 518.476562 423.140625 515.339844 425.46875 514.222656 427.398438 C 513.632812 428.347656 513.859375 429.507812 513.929688 430.5625 C 512.160156 429.621094 513.011719 428.328125 506.9375 429.628906 C 503.929688 430.296875 502.609375 427.890625 500.15625 430.917969 C 497.40625 434.4375 494.878906 433.878906 493.160156 439.703125 C 492.664062 438.992188 492.269531 438.039062 491.324219 437.84375 C 488.613281 437.234375 483.21875 439.476562 480.230469 437.65625 C 479.167969 437.070312 478.144531 435.925781 476.816406 436.3125 C 475.507812 436.945312 474.585938 438.152344 473.289062 438.8125 C 469.539062 440.746094 466.832031 440.292969 463.71875 444.191406 C 461.089844 436.242188 453.035156 443.964844 449.042969 438.566406 C 448.382812 437.726562 447.863281 436.621094 446.75 436.316406 C 445.609375 436.03125 444.519531 436.585938 443.414062 436.761719 C 441.441406 437.097656 439.367188 437.03125 437.515625 437.894531 C 435.472656 428.554688 424.070312 432.847656 428.410156 410.523438 C 430.316406 400.5625 438.0625 378.84375 433.519531 370.761719 C 431.707031 367.449219 427.652344 367.632812 426.519531 368.539062 C 425.082031 369.6875 425.433594 369.613281 425.449219 377.746094 C 425.894531 403.933594 417.9375 406.617188 415.457031 425.136719 C 411.402344 456.628906 441.527344 468.597656 450.453125 488.683594 C 453.5 495.53125 448.457031 497.667969 449.871094 502.976562 C 447.042969 502.851562 445.605469 505.847656 441.917969 505.753906 C 440.636719 505.765625 439.335938 506.363281 438.703125 507.515625 C 436.207031 512.140625 429.53125 513.273438 430.953125 518.960938 C 430.839844 518.96875 430.605469 518.984375 430.488281 518.996094 C 428.519531 517.222656 426.914062 517.109375 421.253906 518.121094 C 419.683594 518.390625 418.117188 517.683594 416.566406 518.042969 C 415.089844 518.523438 414.929688 520.242188 414.109375 521.339844 C 412.621094 523.65625 409.71875 524.382812 407.976562 526.449219 C 406.546875 528.054688 405.988281 529.746094 407.875 530.804688 C 407.867188 530.929688 407.847656 531.171875 407.835938 531.292969 C 406.875 530.882812 405.933594 530.347656 404.875 530.246094 C 400.511719 529.949219 398.285156 531.941406 395.289062 531.632812 C 391.222656 531.125 390.925781 528 388.316406 528.628906 C 387.34375 529.203125 386.6875 530.183594 385.699219 530.742188 C 383.484375 532.039062 380.820312 532.097656 378.5 533.140625 C 375.3125 534.429688 375.464844 536.410156 374.925781 537.308594 C 373.019531 531.175781 366.914062 533.144531 363.371094 530.199219 C 362.605469 529.539062 361.839844 528.738281 360.785156 528.59375 C 358.296875 529.066406 357.949219 531.328125 354.464844 531.636719 C 351.464844 531.878906 348.539062 529.796875 344.703125 530.277344 C 343.734375 530.421875 342.890625 530.980469 341.929688 531.132812 C 342.285156 530.496094 343.136719 530.105469 343.136719 529.304688 C 343.3125 525.925781 337.167969 523.878906 335.449219 520.898438 C 334.589844 519.601562 334.8125 517.359375 331.972656 517.859375 C 326.597656 518.796875 323.035156 515.699219 319.269531 519.011719 C 319.203125 518.9375 319.078125 518.792969 319.015625 518.71875 C 319.136719 517.878906 319.382812 516.976562 318.957031 516.179688 C 317.65625 513.332031 314.871094 511.664062 312.648438 509.617188 C 311.078125 508.152344 310.757812 505.355469 308.714844 505.792969 C 305.320312 506.535156 302.585938 502.683594 299.945312 503.019531 C 300.101562 502.21875 300.5 501.433594 300.367188 500.601562 C 299.535156 495.34375 294.78125 493.710938 304.472656 480.546875 C 319.636719 460.367188 340.128906 451.636719 333.253906 418.460938 C 330.820312 408.320312 325.890625 403.902344 324.652344 385.371094 C 324.324219 382.769531 324.546875 373.742188 324.515625 370 C 324.667969 368.179688 319.136719 366.460938 316.542969 370.449219 C 308.324219 383.285156 330.949219 417.6875 318.519531 429.851562 C 312.257812 435.605469 313.535156 435.089844 312.269531 437.914062 C 310.1875 436.8125 307.738281 437.199219 305.53125 436.539062 C 304.625 436.3125 303.636719 435.753906 302.734375 436.308594 C 301.0625 436.859375 300.9375 440.695312 296.449219 440.59375 C 292.253906 440.753906 288.28125 437.957031 286.074219 444.167969 C 283.546875 440.484375 279.378906 440.414062 276.246094 438.621094 C 274.234375 437.519531 273.609375 434.746094 270.648438 436.929688 C 269.101562 438.234375 266.964844 438.71875 264.980469 438.445312 C 257.644531 437.023438 257.875 437.867188 256.78125 439.691406 C 255.8125 437.511719 256.664062 436.917969 251.714844 432.90625 C 248.917969 430.671875 249.054688 428.503906 245.617188 429.527344 C 242.324219 430.59375 238.742188 427.097656 236.09375 430.582031 C 235.777344 429.703125 236.339844 428.742188 235.859375 427.878906 C 234.546875 425.058594 231.484375 423.625 229.949219 420.953125 C 229.53125 420.113281 228.757812 419.496094 227.820312 419.347656 C 226.730469 419.476562 225.648438 419.828125 224.539062 419.703125 C 222.058594 419.359375 217.082031 417.316406 214.84375 418.316406 C 214.15625 418.613281 213.582031 419.109375 212.925781 419.464844 C 214.035156 413.734375 211.988281 413.707031 210.328125 408.851562 C 209.976562 407.929688 209.8125 406.929688 209.292969 406.082031 C 207.632812 403.691406 204.636719 407.164062 199.820312 406.0625 C 195.988281 405.460938 191.414062 402.007812 188.992188 405.667969 C 188.914062 405.617188 188.765625 405.515625 188.6875 405.460938 C 190.078125 400.042969 184.210938 397.675781 188.449219 387.359375 C 188.8125 386.449219 189.503906 385.59375 189.34375 384.554688 C 189.386719 384.199219 189.078125 383.960938 188.792969 383.820312 C 186.050781 383.3125 175.128906 388.308594 163.703125 384.953125 C 157.617188 383.203125 152.503906 379.0625 146.304688 377.632812 C 145.113281 377.289062 143.832031 377.183594 142.726562 376.582031 C 146.222656 373.011719 146.742188 365.777344 151.4375 361.40625 C 152.859375 359.90625 155.046875 359.214844 156.046875 357.320312 C 156.167969 354.824219 148.65625 355.761719 139.878906 351.574219 C 135.949219 349.78125 119.683594 339.613281 118.777344 338.992188 C 122.925781 337.515625 123.953125 328.144531 132.789062 323.375 C 133.433594 323.003906 134.175781 322.660156 134.527344 321.960938 C 135.054688 320.382812 132.507812 319.304688 130.933594 318.402344 C 103.976562 303.519531 90.140625 276.089844 91.589844 265.132812 C 92.203125 266.039062 92.699219 268.28125 96.019531 270.351562 C 99.019531 272.328125 105.832031 275.222656 109.089844 275.355469 C 109.144531 275.105469 109.1875 274.851562 109.214844 274.601562 C 107.171875 270.464844 85.398438 254.183594 85.746094 227.867188 C 85.796875 227.882812 85.894531 227.910156 85.945312 227.925781 C 87.996094 236.429688 98.027344 240.421875 105.753906 243.648438 C 118.042969 248.96875 118.0625 248.46875 118.882812 248.175781 C 119.015625 245.472656 117.726562 245.710938 113.765625 239.121094 C 109.507812 232.347656 103.984375 221.125 103.300781 213.066406 C 103.398438 213.050781 103.597656 213.019531 103.695312 213.003906 C 111.164062 228.847656 147.550781 236.679688 180.136719 250.34375 C 191.507812 255.132812 202.765625 260.167969 213.980469 265.316406 C 226.761719 271.050781 230.417969 277.023438 231.191406 273.375 C 230.875 271.371094 225.796875 251.675781 226.082031 249.664062 C 259.191406 266.96875 246.347656 276.207031 261.703125 288.511719 C 282.140625 304.582031 324.113281 319.917969 324.335938 312.808594 C 327.066406 294.710938 322.300781 287.71875 321.375 283.214844 C 328.128906 284.839844 332.117188 290.261719 346.074219 291.820312 C 354.269531 292.199219 359.511719 291.304688 363.429688 291.019531 C 366.1875 290.585938 381.011719 290.550781 382.667969 290.804688 C 387.042969 290.890625 395.191406 291.988281 397.144531 291.882812 C 419.726562 291.457031 419.640625 284.890625 428.519531 283.253906 C 427.921875 285.464844 423.738281 295.027344 424.691406 306.429688 C 425.742188 314.605469 424.367188 316.203125 434.78125 313.8125 C 461.042969 307.042969 483.234375 293.277344 490.28125 286.660156 C 496.203125 281.140625 497.667969 272.90625 501.765625 266.714844 C 507.820312 257.242188 523.203125 249.933594 523.914062 249.71875 C 517.011719 285.617188 513.003906 275.511719 537.890625 264.382812 C 556.886719 255.761719 581.300781 244.824219 599.132812 239.179688 C 637.453125 226.609375 642.367188 219.050781 646.472656 212.6875 Z M 646.46875 212.683594 " fill-opacity="1" fill-rule="nonzero"/></g></svg>