<svg width="170" height="170" viewBox="0 0 170 170" fill="none" xmlns="http://www.w3.org/2000/svg">
<path d="M0 85C0 96.56 2.26667 107.553 6.8 117.98C11.3333 128.407 17.34 137.473 24.82 145.18C32.3 152.887 41.3667 158.95 52.02 163.37C62.6733 167.79 73.6667 170 85 170C96.3333 170 107.327 167.79 117.98 163.37C128.633 158.95 137.7 152.887 145.18 145.18C152.66 137.473 158.667 128.407 163.2 117.98C167.733 107.553 170 96.56 170 85C170 73.44 167.733 62.4467 163.2 52.02C158.667 41.5933 152.66 32.5267 145.18 24.82C137.7 17.1133 128.69 11.1067 118.15 6.8C107.61 2.49333 96.56 0.226667 85 0C73.44 0 62.4467 2.26667 52.02 6.8C41.5933 11.3333 32.5267 17.34 24.82 24.82C17.1133 32.3 11.1067 41.3667 6.8 52.02C2.49333 62.6733 0.226667 73.6667 0 85ZM21.25 85C21.25 73.44 24.0833 62.7867 29.75 53.04C35.4167 43.2933 43.18 35.5867 53.04 29.92C62.9 24.2533 73.5533 21.3633 85 21.25C96.4467 21.1367 107.1 24.0267 116.96 29.92C126.82 35.8133 134.583 43.52 140.25 53.04C145.917 62.56 148.75 73.2133 148.75 85C148.75 96.7867 145.917 107.497 140.25 117.13C134.583 126.763 126.82 134.47 116.96 140.25C107.1 146.03 96.4467 148.863 85 148.75C73.5533 148.637 62.9 145.803 53.04 140.25C43.18 134.697 35.4167 126.99 29.75 117.13C24.0833 107.27 21.25 96.56 21.25 85Z" fill="#0E5474"/>
<g clip-path="url(#clip0_3_41)">
<path d="M19 85.5C19 94.544 20.7733 103.145 24.32 111.302C27.8667 119.459 32.566 126.553 38.418 132.582C44.27 138.611 51.3633 143.355 59.698 146.813C68.0327 150.271 76.6333 152 85.5 152C94.3667 152 102.967 150.271 111.302 146.813C119.637 143.355 126.73 138.611 132.582 132.582C138.434 126.553 143.133 119.459 146.68 111.302C150.227 103.145 152 94.544 152 85.5C152 76.456 150.227 67.8553 146.68 59.698C143.133 51.5407 138.434 44.4473 132.582 38.418C126.73 32.3887 119.681 27.6893 111.435 24.32C103.189 20.9507 94.544 19.1773 85.5 19C76.456 19 67.8553 20.7733 59.698 24.32C51.5407 27.8667 44.4473 32.566 38.418 38.418C32.3887 44.27 27.6893 51.3633 24.32 59.698C20.9507 68.0327 19.1773 76.6333 19 85.5ZM35.625 85.5C35.625 76.456 37.8417 68.1213 42.275 60.496C46.7083 52.8707 52.782 46.8413 60.496 42.408C68.21 37.9747 76.5447 35.7137 85.5 35.625C94.4553 35.5363 102.79 37.7973 110.504 42.408C118.218 47.0187 124.292 53.048 128.725 60.496C133.158 67.944 135.375 76.2787 135.375 85.5C135.375 94.7213 133.158 103.1 128.725 110.637C124.292 118.174 118.218 124.203 110.504 128.725C102.79 133.247 94.4553 135.464 85.5 135.375C76.5447 135.286 68.21 133.07 60.496 128.725C52.782 124.38 46.7083 118.351 42.275 110.637C37.8417 102.923 35.625 94.544 35.625 85.5Z" fill="#0E5474"/>
</g>
<path d="M85 38C85 38 62.654 54.6546 62.654 75.1995C62.654 95.7444 85 112.399 85 112.399C85 112.399 107.346 95.7444 107.346 75.1995C107.346 54.6546 85 38 85 38Z" fill="#F8B45C"/>
<path d="M64.857 107.207C61.0977 102.677 58.0826 98.0237 55.8951 93.3761C53.0237 87.2759 51.5674 81.1604 51.5674 75.1998C51.5674 71.2372 52.2149 67.2065 53.4896 63.157C39.2073 58.7899 24.8964 59.7913 24.8964 59.7913C24.8964 59.7913 22.5499 85.3982 39.1475 99.9258C47.611 107.334 59.3645 110.429 68.853 111.685C67.5624 110.337 66.2117 108.839 64.857 107.207Z" fill="#F8B45C"/>
<path d="M59.1334 119.869C47.7076 117.349 38.3453 112.948 31.3072 106.787C28.1061 103.985 25.3074 100.734 22.9377 97.0818C9.31049 102.833 0 112.399 0 112.399C0 112.399 19.0277 131.958 42.5 131.958C54.4697 131.958 65.282 126.872 73.006 121.886C68.8653 121.57 64.1093 120.966 59.1334 119.869Z" fill="#F8B45C"/>
<path d="M145.104 59.7913C145.104 59.7913 130.793 58.7899 116.511 63.157C117.785 67.2062 118.433 71.2372 118.433 75.1998C118.433 81.1604 116.977 87.2759 114.105 93.3761C111.918 98.0237 108.903 102.677 105.143 107.207C103.789 108.84 102.438 110.337 101.147 111.685C110.636 110.429 122.39 107.333 130.853 99.9258C147.45 85.398 145.104 59.7913 145.104 59.7913Z" fill="#F8B45C"/>
<path d="M147.062 97.0821C144.693 100.734 141.894 103.985 138.693 106.787C131.655 112.948 122.292 117.349 110.867 119.869C105.891 120.967 101.135 121.57 96.994 121.887C104.718 126.872 115.53 131.959 127.5 131.959C150.972 131.959 170 112.4 170 112.4C170 112.4 160.69 102.833 147.062 97.0821Z" fill="#F8B45C"/>
<defs>
<clipPath id="clip0_3_41">
<rect width="133" height="133" fill="white" transform="translate(19 19)"/>
</clipPath>
</defs>
</svg>
