<svg width="924" height="308" viewBox="0 0 924 308" fill="none" xmlns="http://www.w3.org/2000/svg">
<g clip-path="url(#clip0_42_8)">
<path d="M850.031 -0.277549H74.0116C71.183 -0.277549 68.3882 -0.277549 65.5665 -0.262121C63.2052 -0.246693 60.8625 -0.201953 58.4782 -0.164155C53.2984 -0.103225 48.1308 0.352443 43.0203 1.19889C37.9169 2.06377 32.9734 3.69436 28.3569 6.03551C23.7463 8.39657 19.5334 11.4645 15.8712 15.1279C12.1897 18.7807 9.12088 23.0029 6.78268 27.6321C4.43799 32.2525 2.81221 37.2038 1.9615 42.3147C1.10264 47.4191 0.640478 52.5823 0.579165 57.758C0.507426 60.1231 0.499712 62.4959 0.461914 64.8617V243.162C0.499712 245.558 0.507426 247.878 0.579165 250.275C0.640536 255.45 1.1027 260.612 1.9615 265.716C2.80992 270.83 4.4358 275.784 6.78268 280.406C9.11976 285.02 12.189 289.226 15.8712 292.858C19.5196 296.538 23.7351 299.608 28.3569 301.951C32.9733 304.298 37.9163 305.938 43.0203 306.817C48.1316 307.656 53.2987 308.112 58.4782 308.18C60.8618 308.233 63.2052 308.263 65.5672 308.263C68.3882 308.278 71.183 308.278 74.0116 308.278H850.03C852.803 308.278 855.62 308.278 858.392 308.263C860.743 308.263 863.154 308.233 865.504 308.18C870.674 308.116 875.831 307.66 880.932 306.817C886.052 305.932 891.013 304.292 895.652 301.951C900.269 299.607 904.481 296.537 908.126 292.858C911.799 289.211 914.875 285.009 917.241 280.406C919.57 275.78 921.18 270.827 922.016 265.716C922.877 260.611 923.355 255.45 923.449 250.274C923.479 247.878 923.479 245.558 923.479 243.162C923.541 240.36 923.541 237.573 923.541 234.725V73.2837C923.541 70.4581 923.541 67.6565 923.479 64.8617C923.479 62.4959 923.479 60.1231 923.449 57.7572C923.356 52.581 922.877 47.419 922.017 42.314C921.178 37.2065 919.568 32.2562 917.241 27.6329C912.48 18.3534 904.929 10.7999 895.652 6.03474C891.013 3.69933 886.052 2.06917 880.932 1.19812C875.832 0.348073 870.674 -0.107626 865.504 -0.164926C863.154 -0.202724 860.743 -0.248236 858.392 -0.262893C855.62 -0.27832 852.804 -0.277549 850.031 -0.277549Z" fill="black"/>
<path d="M65.6034 301.529C63.253 301.529 60.9597 301.499 58.6277 301.446C53.7973 301.383 48.9781 300.963 44.2097 300.189C39.7634 299.423 35.4562 297.998 31.4301 295.962C27.4408 293.942 23.8022 291.294 20.6538 288.12C17.4595 284.982 14.8001 281.343 12.7809 277.347C10.7398 273.325 9.32715 269.014 8.5923 264.564C7.79899 259.782 7.36989 254.947 7.30871 250.1C7.25934 248.473 7.19531 243.057 7.19531 243.057V64.8608C7.19531 64.8608 7.26319 59.5274 7.30871 57.9599C7.36748 53.121 7.79426 48.2936 8.58536 43.5195C9.32166 39.0572 10.7355 34.7335 12.7779 30.6982C14.7892 26.7047 17.4335 23.063 20.6082 19.9142C23.7796 16.7355 27.4299 14.074 31.4262 12.0267C35.4432 9.9972 39.7423 8.58288 44.1796 7.83115C48.9638 7.04912 53.7998 6.6265 58.647 6.56684L65.6073 6.47119H858.355L865.398 6.56916C870.201 6.62622 874.993 7.04551 879.734 7.82344C884.216 8.5848 888.56 10.0092 892.623 12.0499C900.629 16.1756 907.143 22.7028 911.252 30.7167C913.262 34.7244 914.654 39.013 915.381 43.437C916.181 48.2502 916.629 53.1154 916.721 57.9939C916.744 60.1784 916.744 62.525 916.744 64.8608C916.806 67.7535 916.806 70.5066 916.806 73.2828V234.724C916.806 237.526 916.806 240.261 916.744 243.018C916.744 245.526 916.744 247.824 916.714 250.19C916.623 254.981 916.182 259.76 915.394 264.487C914.675 268.969 913.27 273.314 911.229 277.369C909.196 281.322 906.552 284.93 903.395 288.059C900.244 291.25 896.599 293.914 892.601 295.946C888.549 297.998 884.211 299.428 879.734 300.187C874.966 300.966 870.146 301.387 865.315 301.445C863.008 301.499 860.7 301.527 858.393 301.528L850.031 301.543L65.6034 301.529Z" fill="white"/>
<path d="M193.284 153.147C193.37 146.452 195.149 139.887 198.454 134.064C201.759 128.24 206.483 123.348 212.187 119.841C208.564 114.665 203.783 110.406 198.226 107.402C192.668 104.397 186.486 102.73 180.172 102.532C166.702 101.118 153.643 110.593 146.778 110.593C139.782 110.593 129.213 102.673 117.832 102.907C110.471 103.145 103.297 105.286 97.0087 109.121C90.7208 112.955 85.5335 118.354 81.9521 124.789C66.4379 151.649 78.0103 191.123 92.8711 212.836C100.306 223.467 108.995 235.343 120.366 234.921C131.492 234.46 135.649 227.826 149.078 227.826C162.385 227.826 166.284 234.921 177.884 234.654C189.824 234.46 197.347 223.975 204.521 213.243C209.863 205.667 213.974 197.295 216.701 188.435C209.765 185.501 203.845 180.591 199.681 174.316C195.517 168.04 193.292 160.678 193.284 153.147ZM171.372 88.2539C177.882 80.4389 181.089 70.394 180.312 60.2524C170.367 61.2972 161.18 66.0508 154.582 73.5659C151.356 77.2371 148.886 81.5081 147.311 86.1347C145.737 90.7614 145.09 95.653 145.407 100.53C150.382 100.581 155.304 99.5028 159.801 97.3763C164.299 95.2498 168.254 92.1312 171.372 88.2539ZM326.774 209.075H290.261L281.492 234.966H266.026L300.611 139.175H316.679L351.264 234.966H335.535L326.774 209.075ZM294.042 197.127H322.984L308.717 155.108H308.317L294.042 197.127ZM425.954 200.051C425.954 221.753 414.338 235.697 396.809 235.697C392.368 235.929 387.952 234.906 384.066 232.745C380.18 230.584 376.981 227.372 374.835 223.478H374.503V258.07H360.167V165.127H374.044V176.743H374.307C376.552 172.867 379.805 169.672 383.721 167.498C387.636 165.324 392.068 164.252 396.545 164.396C414.27 164.396 425.954 178.409 425.954 200.051ZM411.219 200.051C411.219 185.911 403.913 176.615 392.764 176.615C381.81 176.615 374.443 186.106 374.443 200.05C374.443 214.122 381.81 223.546 392.764 223.546C403.913 223.546 411.219 214.319 411.219 200.051ZM502.826 200.051C502.826 221.753 491.206 235.697 473.676 235.697C469.236 235.929 464.82 234.906 460.933 232.745C457.047 230.584 453.848 227.372 451.702 223.478H451.371V258.07H437.035V165.127H450.911V176.743H451.175C453.419 172.867 456.672 169.672 460.588 167.498C464.504 165.324 468.936 164.252 473.412 164.396C491.138 164.396 502.826 178.409 502.826 200.051ZM488.087 200.051C488.087 185.911 480.78 176.615 469.631 176.615C458.677 176.615 451.311 186.106 451.311 200.05C451.311 214.122 458.677 223.546 469.631 223.546C480.78 223.546 488.087 214.319 488.087 200.051ZM553.622 208.277C554.684 217.776 563.912 224.013 576.522 224.013C588.605 224.013 597.298 217.776 597.298 209.21C597.298 201.775 592.055 197.323 579.641 194.272L567.227 191.282C549.637 187.033 541.471 178.807 541.471 165.458C541.471 148.93 555.874 137.578 576.319 137.578C596.568 137.578 610.444 148.93 610.911 165.458H596.44C595.574 155.899 587.671 150.128 576.123 150.128C564.575 150.128 556.672 155.967 556.672 164.463C556.672 171.236 561.72 175.221 574.067 178.271L584.62 180.863C604.274 185.511 612.432 193.406 612.432 207.417C612.432 225.338 598.165 236.563 575.46 236.563C554.216 236.563 539.873 225.601 538.947 208.276L553.622 208.277ZM643.386 148.6V165.127H656.667V176.479H643.386V214.981C643.386 220.962 646.045 223.749 651.884 223.749C653.46 223.722 655.034 223.611 656.599 223.418V234.703C653.974 235.193 651.306 235.415 648.637 235.365C634.497 235.365 628.983 230.055 628.983 216.51V176.479H618.828V165.127H628.983V148.6H643.386ZM664.351 200.051C664.351 178.076 677.292 164.268 697.474 164.268C717.723 164.268 730.605 178.076 730.605 200.051C730.605 222.085 717.79 235.832 697.474 235.832C677.164 235.832 664.351 222.085 664.351 200.051ZM715.998 200.051C715.998 184.977 709.09 176.08 697.474 176.08C685.858 176.08 678.95 185.044 678.95 200.051C678.95 215.185 685.858 224.013 697.474 224.013C709.09 224.013 715.998 215.185 715.998 200.051ZM742.423 165.127H756.096V177.014H756.428C757.353 173.301 759.528 170.02 762.587 167.722C765.647 165.425 769.404 164.25 773.227 164.396C774.879 164.39 776.526 164.57 778.139 164.931V178.34C776.053 177.703 773.877 177.41 771.697 177.474C769.615 177.389 767.539 177.756 765.611 178.55C763.684 179.344 761.951 180.545 760.532 182.071C759.113 183.598 758.041 185.413 757.39 187.393C756.739 189.373 756.524 191.471 756.759 193.542V234.966H742.423V165.127ZM844.234 214.453C842.305 227.132 829.958 235.832 814.162 235.832C793.845 235.832 781.234 222.22 781.234 200.382C781.234 178.476 793.913 164.268 813.559 164.268C832.881 164.268 845.032 177.542 845.032 198.717V203.628H795.705V204.495C795.478 207.065 795.799 209.654 796.649 212.091C797.499 214.527 798.858 216.755 800.635 218.626C802.412 220.497 804.566 221.969 806.956 222.943C809.345 223.917 811.915 224.372 814.493 224.277C817.881 224.594 821.281 223.81 824.187 222.04C827.092 220.27 829.349 217.609 830.622 214.453H844.234ZM795.773 193.61H830.689C830.818 191.298 830.468 188.986 829.66 186.816C828.853 184.647 827.606 182.668 825.997 181.004C824.389 179.339 822.454 178.025 820.313 177.144C818.173 176.263 815.873 175.834 813.559 175.884C811.225 175.87 808.911 176.318 806.75 177.203C804.59 178.089 802.626 179.393 800.973 181.041C799.319 182.689 798.008 184.648 797.116 186.805C796.224 188.962 795.767 191.275 795.773 193.61ZM292.249 67.0723C295.255 66.8566 298.271 67.3106 301.079 68.4016C303.888 69.4926 306.42 71.1934 308.492 73.3814C310.563 75.5693 312.124 78.1898 313.06 81.0538C313.997 83.9178 314.286 86.954 313.907 89.9432C313.907 104.647 305.959 113.1 292.249 113.1H275.623V67.0715L292.249 67.0723ZM282.773 106.591H291.451C293.598 106.719 295.747 106.367 297.742 105.56C299.736 104.753 301.525 103.511 302.979 101.925C304.433 100.34 305.515 98.4497 306.147 96.3931C306.778 94.3365 306.943 92.165 306.629 90.0366C306.92 87.9166 306.739 85.7585 306.098 83.7169C305.456 81.6754 304.372 79.8009 302.921 78.2278C301.47 76.6547 299.69 75.4219 297.707 74.6178C295.724 73.8137 293.587 73.4582 291.451 73.5767H282.773V106.591ZM321.982 95.7171C321.764 93.4344 322.025 91.1313 322.749 88.9554C323.473 86.7795 324.643 84.779 326.186 83.082C327.728 81.3851 329.608 80.0292 331.705 79.1014C333.802 78.1736 336.07 77.6943 338.363 77.6943C340.656 77.6943 342.924 78.1736 345.021 79.1014C347.118 80.0292 348.998 81.3851 350.54 83.082C352.082 84.779 353.253 86.7795 353.977 88.9554C354.701 91.1313 354.962 93.4344 354.743 95.7171C354.967 98.0025 354.709 100.309 353.987 102.489C353.266 104.669 352.096 106.674 350.553 108.374C349.01 110.075 347.129 111.434 345.029 112.364C342.93 113.295 340.659 113.775 338.363 113.775C336.067 113.775 333.796 113.295 331.696 112.364C329.597 111.434 327.715 110.075 326.173 108.374C324.63 106.674 323.46 104.669 322.738 102.489C322.017 100.309 321.759 98.0025 321.982 95.7171ZM347.693 95.7171C347.693 88.1876 344.31 83.7845 338.374 83.7845C332.415 83.7845 329.064 88.1876 329.064 95.7171C329.064 103.307 332.416 107.676 338.374 107.676C344.31 107.676 347.693 103.277 347.693 95.7171ZM398.293 113.1H391.181L384.002 87.5172H383.46L376.311 113.1H369.268L359.693 78.3639H366.646L372.869 104.869H373.381L380.522 78.3639H387.099L394.24 104.869H394.782L400.974 78.3639H407.83L398.293 113.1ZM415.882 78.3647H422.481V83.8824H422.994C423.863 81.9004 425.328 80.2389 427.186 79.1296C429.045 78.0202 431.203 77.5182 433.36 77.6936C435.05 77.5665 436.747 77.8214 438.325 78.4393C439.903 79.0571 441.322 80.0222 442.477 81.2629C443.631 82.5036 444.492 83.9882 444.995 85.6067C445.498 87.2252 445.63 88.9362 445.382 90.6128V113.099H438.527V92.3345C438.527 86.7528 436.101 83.9765 431.032 83.9765C429.884 83.9232 428.739 84.1185 427.674 84.5492C426.609 84.9799 425.65 85.6358 424.862 86.4718C424.074 87.3078 423.476 88.3043 423.11 89.3929C422.743 90.4816 422.616 91.6366 422.738 92.7789V113.1H415.882V78.3647ZM456.305 64.8044H463.16V113.1H456.305V64.8044ZM472.69 95.7171C472.471 93.4341 472.732 91.1307 473.456 88.9545C474.18 86.7783 475.351 84.7775 476.894 83.0803C478.436 81.3832 480.316 80.0271 482.414 79.0992C484.511 78.1713 486.779 77.6919 489.072 77.6919C491.366 77.6919 493.634 78.1713 495.731 79.0992C497.829 80.0271 499.709 81.3832 501.251 83.0803C502.794 84.7775 503.965 86.7783 504.689 88.9545C505.413 91.1307 505.674 93.4341 505.455 95.7171C505.677 98.0021 505.419 100.308 504.696 102.487C503.974 104.667 502.804 106.671 501.261 108.371C499.718 110.071 497.837 111.429 495.738 112.359C493.639 113.288 491.368 113.769 489.072 113.769C486.777 113.769 484.506 113.288 482.407 112.359C480.308 111.429 478.427 110.071 476.884 108.371C475.341 106.671 474.171 104.667 473.448 102.487C472.726 100.308 472.468 98.0021 472.69 95.7171ZM498.4 95.7171C498.4 88.1876 495.018 83.7845 489.082 83.7845C483.123 83.7845 479.771 88.1876 479.771 95.7171C479.771 103.307 483.124 107.676 489.082 107.676C495.018 107.676 498.4 103.277 498.4 95.7171ZM512.672 103.277C512.672 97.0238 517.327 93.4191 525.591 92.9069L535 92.3646V89.3662C535 85.6975 532.574 83.6263 527.889 83.6263C524.062 83.6263 521.41 85.031 520.649 87.4871H514.012C514.713 81.5204 520.325 77.6943 528.205 77.6943C536.913 77.6943 541.825 82.0295 541.825 89.3662V113.1H535.226V108.218H534.683C533.582 109.969 532.037 111.397 530.204 112.355C528.371 113.313 526.316 113.767 524.25 113.672C522.792 113.824 521.318 113.668 519.924 113.215C518.53 112.762 517.246 112.023 516.155 111.043C515.064 110.064 514.19 108.867 513.59 107.529C512.99 106.191 512.677 104.743 512.672 103.277ZM535 100.308V97.4041L526.517 97.9464C521.734 98.2665 519.564 99.8942 519.564 102.956C519.564 106.082 522.276 107.902 526.005 107.902C527.098 108.013 528.202 107.902 529.251 107.578C530.3 107.253 531.273 106.72 532.112 106.012C532.951 105.304 533.639 104.433 534.135 103.454C534.631 102.474 534.925 101.404 535 100.308ZM550.835 95.7171C550.835 84.741 556.477 77.7885 565.253 77.7885C567.424 77.6884 569.578 78.2083 571.464 79.2874C573.351 80.3665 574.891 81.9603 575.905 83.8824H576.417V64.8036H583.272V113.099H576.703V107.61H576.161C575.069 109.52 573.475 111.094 571.552 112.162C569.63 113.23 567.451 113.752 565.253 113.671C556.416 113.671 550.835 106.719 550.835 95.7171ZM557.916 95.7171C557.916 103.084 561.389 107.518 567.196 107.518C572.973 107.518 576.545 103.021 576.545 95.7464C576.545 88.5077 572.936 83.9465 567.196 83.9465C561.426 83.9465 557.916 88.4097 557.916 95.7171ZM611.634 95.7171C611.416 93.4344 611.677 91.1313 612.4 88.9554C613.124 86.7795 614.295 84.779 615.837 83.082C617.38 81.3851 619.26 80.0292 621.357 79.1014C623.454 78.1736 625.721 77.6943 628.014 77.6943C630.308 77.6943 632.575 78.1736 634.672 79.1014C636.769 80.0292 638.649 81.3851 640.192 83.082C641.734 84.779 642.905 86.7795 643.628 88.9554C644.352 91.1313 644.613 93.4344 644.395 95.7171C644.618 98.0025 644.361 100.309 643.639 102.489C642.917 104.669 641.747 106.674 640.205 108.374C638.662 110.075 636.78 111.434 634.681 112.364C632.581 113.295 630.311 113.775 628.014 113.775C625.718 113.775 623.447 113.295 621.348 112.364C619.249 111.434 617.367 110.075 615.824 108.374C614.281 106.674 613.112 104.669 612.39 102.489C611.668 100.309 611.411 98.0025 611.634 95.7171ZM637.344 95.7171C637.344 88.1876 633.962 83.7845 628.026 83.7845C622.067 83.7845 618.715 88.1876 618.715 95.7171C618.715 103.307 622.068 107.676 628.026 107.676C633.962 107.676 637.344 103.277 637.344 95.7171ZM653.593 78.3647H660.192V83.8824H660.704C661.573 81.9004 663.039 80.2389 664.897 79.1296C666.755 78.0202 668.913 77.5182 671.07 77.6936C672.76 77.5665 674.457 77.8214 676.036 78.4393C677.614 79.0571 679.033 80.0222 680.188 81.2629C681.342 82.5036 682.203 83.9882 682.706 85.6067C683.209 87.2252 683.341 88.9362 683.093 90.6128V113.099H676.238V92.3345C676.238 86.7528 673.812 83.9765 668.742 83.9765C667.595 83.9232 666.449 84.1185 665.384 84.5492C664.32 84.9799 663.36 85.6358 662.573 86.4718C661.785 87.3078 661.187 88.3043 660.82 89.3929C660.454 90.4816 660.327 91.6366 660.448 92.7789V113.1H653.594L653.593 78.3647ZM721.829 69.7166V78.5228H729.354V84.2967H721.829V102.157C721.829 105.796 723.327 107.39 726.74 107.39C727.614 107.387 728.486 107.334 729.353 107.231V112.941C728.122 113.162 726.875 113.279 725.625 113.292C718.002 113.292 714.966 110.61 714.966 103.913V84.2967H709.452V78.522H714.966V69.7174L721.829 69.7166ZM738.717 64.8044H745.513V83.9465H746.055C746.966 81.946 748.472 80.2751 750.367 79.1616C752.262 78.048 754.455 77.5459 756.646 77.7237C758.327 77.6321 760.008 77.9128 761.569 78.5457C763.129 79.1786 764.531 80.1481 765.673 81.385C766.816 82.6219 767.671 84.0958 768.179 85.7014C768.686 87.307 768.833 89.0049 768.609 90.6737V113.1H761.746V92.3646C761.746 86.816 759.162 84.0066 754.319 84.0066C753.141 83.9101 751.955 84.0721 750.846 84.4814C749.737 84.8906 748.731 85.5373 747.898 86.376C747.065 87.2148 746.425 88.2255 746.024 89.3373C745.622 90.4491 745.468 91.6353 745.573 92.8128V113.1H738.717V64.8044ZM808.58 103.72C807.649 106.895 805.631 109.641 802.879 111.478C800.128 113.316 796.818 114.127 793.528 113.77C791.24 113.83 788.966 113.392 786.864 112.486C784.762 111.579 782.882 110.226 781.355 108.52C779.829 106.814 778.692 104.796 778.023 102.607C777.354 100.418 777.17 98.109 777.483 95.8413C777.178 93.5665 777.365 91.2528 778.033 89.0567C778.7 86.8607 779.831 84.8336 781.349 83.1128C782.868 81.392 784.739 80.0175 786.835 79.0825C788.931 78.1476 791.203 77.6739 793.498 77.6936C803.163 77.6936 808.994 84.2967 808.994 95.2041V97.5962H784.466V97.9804C784.359 99.255 784.519 100.538 784.937 101.747C785.354 102.956 786.02 104.065 786.891 105.002C787.762 105.939 788.819 106.683 789.994 107.188C791.17 107.692 792.438 107.945 793.717 107.931C795.357 108.128 797.018 107.833 798.489 107.083C799.961 106.333 801.176 105.163 801.981 103.72H808.58ZM784.466 92.5266H802.011C802.097 91.3608 801.939 90.1899 801.546 89.089C801.152 87.9881 800.533 86.9816 799.728 86.1342C798.923 85.2868 797.949 84.6172 796.87 84.1684C795.791 83.7196 794.629 83.5016 793.461 83.5284C792.275 83.5134 791.098 83.736 790 84.183C788.902 84.63 787.904 85.2923 787.066 86.1309C786.228 86.9695 785.566 87.9674 785.119 89.0659C784.673 90.1643 784.451 91.341 784.466 92.5266Z" fill="black"/>
</g>
<defs>
<clipPath id="clip0_42_8">
<rect width="924" height="308" fill="white"/>
</clipPath>
</defs>
</svg>
