<?xml version="1.0" encoding="utf-8"?>
<!DOCTYPE svg PUBLIC "-//W3C//DTD SVG 1.1//EN" "http://www.w3.org/Graphics/SVG/1.1/DTD/svg11.dtd">
<svg version="1.1" id="Layer_1" xmlns="http://www.w3.org/2000/svg" xmlns:xlink="http://www.w3.org/1999/xlink" x="0px" y="0px"
width="259px" height="259px" viewBox="14 14 231 231" enable-background="new 0 0 259 259" xml:space="preserve">
<g transform="translate(14,14)"><g transform="translate(77,0) scale(0.014,0.014)"><g transform="" style="fill: rgb(255, 255, 255);">
<g>
	<path d="M0,500h500V0C223.861,0.001,0,223.854,0,500z"/>
</g>
</g></g><g transform="translate(84,0) scale(0.014,0.014)"><g transform="" style="fill: rgb(255, 255, 255);">
<g>
	<path d="M0,0v500h500C500,223.853,276.142,0,0,0z"/>
</g>
</g></g><g transform="translate(98,0) scale(0.014,0.014)"><g transform="" style="fill: rgb(255, 255, 255);">
<path d="M250,0c58.27,0,250,0,250,0s0,170.182,0,250c0,62.305,0,250,0,250s-174.219,0-250,0
	C111.881,500,0,388.021,0,250C0,111.963,111.881,0,250,0z"/>
</g></g><g transform="translate(105,0) scale(0.014,0.014)"><g transform="" style="fill: rgb(255, 255, 255);">
<g>
	<path d="M0,0v500h500C500,223.853,276.142,0,0,0z"/>
</g>
</g></g><g transform="translate(126,0) scale(0.014,0.014)"><g transform="" style="fill: rgb(255, 255, 255);">
<path d="M250,0c58.27,0,250,0,250,0s0,170.182,0,250c0,62.305,0,250,0,250s-174.219,0-250,0
	C111.881,500,0,388.021,0,250C0,111.963,111.881,0,250,0z"/>
</g></g><g transform="translate(133,0) scale(0.014,0.014)"><g transform="" style="fill: rgb(255, 255, 255);">
<path d="M250,500c-58.271,0-250,0-250,0s0-170.207,0-250C0,187.676,0,0,0,0s174.261,0,250,0c138.064,0,250,111.929,250,250
	C500,388.064,388.064,500,250,500z"/>
</g></g><g transform="translate(154,0) scale(0.014,0.014)"><g transform="" style="fill: rgb(255, 255, 255);">
<g>
	<path d="M0,500h500V0C223.861,0.001,0,223.854,0,500z"/>
</g>
</g></g><g transform="translate(161,0) scale(0.014,0.014)"><g transform="" style="fill: rgb(255, 255, 255);">
<g>
	<path d="M0,0v500h500C500,223.853,276.142,0,0,0z"/>
</g>
</g></g><g transform="translate(63,7) scale(0.014,0.014)"><g transform="" style="fill: rgb(255, 255, 255);">
<path d="M250,0c138.077,0,250,111.93,250,250c0,138.077-111.923,250-250,250C111.93,500,0,388.077,0,250C0,111.93,111.93,0,250,0z"
	/>
</g></g><g transform="translate(77,7) scale(0.07,0.07)"><g transform="" style="fill: rgb(255, 255, 255);">
<rect width="100" height="100"/>
</g></g><g transform="translate(84,7) scale(0.07,0.07)"><g transform="" style="fill: rgb(255, 255, 255);">
<rect width="100" height="100"/>
</g></g><g transform="translate(105,7) scale(0.07,0.07)"><g transform="" style="fill: rgb(255, 255, 255);">
<rect width="100" height="100"/>
</g></g><g transform="translate(112,7) scale(0.07,0.07)"><g transform="" style="fill: rgb(255, 255, 255);">
<rect width="100" height="100"/>
</g></g><g transform="translate(119,7) scale(0.014,0.014)"><g transform="" style="fill: rgb(255, 255, 255);">
<g>
	<path d="M0,0v500h500C500,223.853,276.142,0,0,0z"/>
</g>
</g></g><g transform="translate(147,7) scale(0.014,0.014)"><g transform="" style="fill: rgb(255, 255, 255);">
<path d="M250,0c58.27,0,250,0,250,0s0,170.182,0,250c0,62.305,0,250,0,250s-174.219,0-250,0
	C111.881,500,0,388.021,0,250C0,111.963,111.881,0,250,0z"/>
</g></g><g transform="translate(154,7) scale(0.07,0.07)"><g transform="" style="fill: rgb(255, 255, 255);">
<rect width="100" height="100"/>
</g></g><g transform="translate(161,7) scale(0.07,0.07)"><g transform="" style="fill: rgb(255, 255, 255);">
<rect width="100" height="100"/>
</g></g><g transform="translate(168,7) scale(0.014,0.014)"><g transform="" style="fill: rgb(255, 255, 255);">
<g>
	<path d="M0,0v500h500C500,223.853,276.142,0,0,0z"/>
</g>
</g></g><g transform="translate(70,14) scale(0.014,0.014)"><g transform="" style="fill: rgb(255, 255, 255);">
<path d="M250,0c58.27,0,250,0,250,0s0,170.182,0,250c0,62.305,0,250,0,250s-174.219,0-250,0
	C111.881,500,0,388.021,0,250C0,111.963,111.881,0,250,0z"/>
</g></g><g transform="translate(77,14) scale(0.07,0.07)"><g transform="" style="fill: rgb(255, 255, 255);">
<rect width="100" height="100"/>
</g></g><g transform="translate(84,14) scale(0.014,0.014)"><g transform="" style="fill: rgb(255, 255, 255);">
<g>
	<path d="M500,0H0v500C276.142,500,500,276.142,500,0z"/>
</g>
</g></g><g transform="translate(98,14) scale(0.014,0.014)"><g transform="" style="fill: rgb(255, 255, 255);">
<path d="M250,0c58.27,0,250,0,250,0s0,170.182,0,250c0,62.305,0,250,0,250s-174.219,0-250,0
	C111.881,500,0,388.021,0,250C0,111.963,111.881,0,250,0z"/>
</g></g><g transform="translate(105,14) scale(0.07,0.07)"><g transform="" style="fill: rgb(255, 255, 255);">
<rect width="100" height="100"/>
</g></g><g transform="translate(112,14) scale(0.07,0.07)"><g transform="" style="fill: rgb(255, 255, 255);">
<rect width="100" height="100"/>
</g></g><g transform="translate(119,14) scale(0.07,0.07)"><g transform="" style="fill: rgb(255, 255, 255);">
<rect width="100" height="100"/>
</g></g><g transform="translate(133,14) scale(0.014,0.014)"><g transform="" style="fill: rgb(255, 255, 255);">
<path d="M250,0c58.27,0,250,0,250,0s0,170.182,0,250c0,62.305,0,250,0,250s-174.219,0-250,0
	C111.881,500,0,388.021,0,250C0,111.963,111.881,0,250,0z"/>
</g></g><g transform="translate(140,14) scale(0.014,0.014)"><g transform="" style="fill: rgb(255, 255, 255);">
<path d="M250,500c-58.271,0-250,0-250,0s0-170.207,0-250C0,187.676,0,0,0,0s174.261,0,250,0c138.064,0,250,111.929,250,250
	C500,388.064,388.064,500,250,500z"/>
</g></g><g transform="translate(168,14) scale(0.014,0.014)"><g transform="" style="fill: rgb(255, 255, 255);">
<path d="M0,250C0,191.729,0,0,0,0s170.201,0,250,0c62.324,0,250,0,250,0s0,174.261,0,250c0,138.064-111.936,250-250,250
	C111.929,500,0,388.064,0,250z"/>
</g></g><g transform="translate(77,21) scale(0.07,0.07)"><g transform="" style="fill: rgb(255, 255, 255);">
<rect width="100" height="100"/>
</g></g><g transform="translate(91,21) scale(0.014,0.014)"><g transform="" style="fill: rgb(255, 255, 255);">
<path d="M500,250c0,58.266,0,250,0,250s-170.194,0-250-0.012c-62.324,0.012-250,0-250,0s0-174.241,0-249.994
	C0.006,111.931,111.929,0,249.994,0C388.064,0,500,111.93,500,250z"/>
</g></g><g transform="translate(105,21) scale(0.014,0.014)"><g transform="" style="fill: rgb(255, 255, 255);">
<path d="M0,250C0,191.729,0,0,0,0s170.201,0,250,0c62.324,0,250,0,250,0s0,174.261,0,250c0,138.064-111.936,250-250,250
	C111.929,500,0,388.064,0,250z"/>
</g></g><g transform="translate(119,21) scale(0.07,0.07)"><g transform="" style="fill: rgb(255, 255, 255);">
<rect width="100" height="100"/>
</g></g><g transform="translate(154,21) scale(0.014,0.014)"><g transform="" style="fill: rgb(255, 255, 255);">
<g>
	<path d="M0,500h500V0C223.861,0.001,0,223.854,0,500z"/>
</g>
</g></g><g transform="translate(161,21) scale(0.014,0.014)"><g transform="" style="fill: rgb(255, 255, 255);">
<g>
	<path d="M0,0v500h500C500,223.853,276.142,0,0,0z"/>
</g>
</g></g><g transform="translate(63,28) scale(0.014,0.014)"><g transform="" style="fill: rgb(255, 255, 255);">
<path d="M250,0c58.27,0,250,0,250,0s0,170.182,0,250c0,62.305,0,250,0,250s-174.219,0-250,0
	C111.881,500,0,388.021,0,250C0,111.963,111.881,0,250,0z"/>
</g></g><g transform="translate(70,28) scale(0.07,0.07)"><g transform="" style="fill: rgb(255, 255, 255);">
<rect width="100" height="100"/>
</g></g><g transform="translate(77,28) scale(0.07,0.07)"><g transform="" style="fill: rgb(255, 255, 255);">
<rect width="100" height="100"/>
</g></g><g transform="translate(84,28) scale(0.07,0.07)"><g transform="" style="fill: rgb(255, 255, 255);">
<rect width="100" height="100"/>
</g></g><g transform="translate(91,28) scale(0.014,0.014)"><g transform="" style="fill: rgb(255, 255, 255);">
<g>
	<path d="M500,0H0v500C276.142,500,500,276.142,500,0z"/>
</g>
</g></g><g transform="translate(112,28) scale(0.014,0.014)"><g transform="" style="fill: rgb(255, 255, 255);">
<path d="M250,0c58.27,0,250,0,250,0s0,170.182,0,250c0,62.305,0,250,0,250s-174.219,0-250,0
	C111.881,500,0,388.021,0,250C0,111.963,111.881,0,250,0z"/>
</g></g><g transform="translate(119,28) scale(0.014,0.014)"><g transform="" style="fill: rgb(255, 255, 255);">
<g>
	<path d="M500,0H0v500C276.142,500,500,276.142,500,0z"/>
</g>
</g></g><g transform="translate(133,28) scale(0.014,0.014)"><g transform="" style="fill: rgb(255, 255, 255);">
<path d="M250,0c138.077,0,250,111.93,250,250c0,138.077-111.923,250-250,250C111.93,500,0,388.077,0,250C0,111.93,111.93,0,250,0z"
	/>
</g></g><g transform="translate(147,28) scale(0.014,0.014)"><g transform="" style="fill: rgb(255, 255, 255);">
<path d="M250,0c58.27,0,250,0,250,0s0,170.182,0,250c0,62.305,0,250,0,250s-174.219,0-250,0
	C111.881,500,0,388.021,0,250C0,111.963,111.881,0,250,0z"/>
</g></g><g transform="translate(154,28) scale(0.07,0.07)"><g transform="" style="fill: rgb(255, 255, 255);">
<rect width="100" height="100"/>
</g></g><g transform="translate(161,28) scale(0.014,0.014)"><g transform="" style="fill: rgb(255, 255, 255);">
<g>
	<path d="M500,0H0v500C276.142,500,500,276.142,500,0z"/>
</g>
</g></g><g transform="translate(56,35) scale(0.014,0.014)"><g transform="" style="fill: rgb(255, 255, 255);">
<path d="M500,250c0,58.266,0,250,0,250s-170.194,0-250-0.012c-62.324,0.012-250,0-250,0s0-174.241,0-249.994
	C0.006,111.931,111.929,0,249.994,0C388.064,0,500,111.93,500,250z"/>
</g></g><g transform="translate(77,35) scale(0.014,0.014)"><g transform="" style="fill: rgb(255, 255, 255);">
<g>
	<path d="M500,500V0H0C0.001,276.142,223.853,500,500,500z"/>
</g>
</g></g><g transform="translate(84,35) scale(0.07,0.07)"><g transform="" style="fill: rgb(255, 255, 255);">
<rect width="100" height="100"/>
</g></g><g transform="translate(98,35) scale(0.014,0.014)"><g transform="" style="fill: rgb(255, 255, 255);">
<path d="M500,250c0,58.266,0,250,0,250s-170.194,0-250-0.012c-62.324,0.012-250,0-250,0s0-174.241,0-249.994
	C0.006,111.931,111.929,0,249.994,0C388.064,0,500,111.93,500,250z"/>
</g></g><g transform="translate(126,35) scale(0.014,0.014)"><g transform="" style="fill: rgb(255, 255, 255);">
<path d="M500,250c0,58.266,0,250,0,250s-170.194,0-250-0.012c-62.324,0.012-250,0-250,0s0-174.241,0-249.994
	C0.006,111.931,111.929,0,249.994,0C388.064,0,500,111.93,500,250z"/>
</g></g><g transform="translate(140,35) scale(0.014,0.014)"><g transform="" style="fill: rgb(255, 255, 255);">
<path d="M500,250c0,58.266,0,250,0,250s-170.194,0-250-0.012c-62.324,0.012-250,0-250,0s0-174.241,0-249.994
	C0.006,111.931,111.929,0,249.994,0C388.064,0,500,111.93,500,250z"/>
</g></g><g transform="translate(168,35) scale(0.014,0.014)"><g transform="" style="fill: rgb(255, 255, 255);">
<path d="M500,250c0,58.266,0,250,0,250s-170.194,0-250-0.012c-62.324,0.012-250,0-250,0s0-174.241,0-249.994
	C0.006,111.931,111.929,0,249.994,0C388.064,0,500,111.93,500,250z"/>
</g></g><g transform="translate(56,42) scale(0.014,0.014)"><g transform="" style="fill: rgb(255, 255, 255);">
<path d="M0,250C0,191.729,0,0,0,0s170.201,0,250,0c62.324,0,250,0,250,0s0,174.261,0,250c0,138.064-111.936,250-250,250
	C111.929,500,0,388.064,0,250z"/>
</g></g><g transform="translate(70,42) scale(0.014,0.014)"><g transform="" style="fill: rgb(255, 255, 255);">
<path d="M250,0c138.077,0,250,111.93,250,250c0,138.077-111.923,250-250,250C111.93,500,0,388.077,0,250C0,111.93,111.93,0,250,0z"
	/>
</g></g><g transform="translate(84,42) scale(0.07,0.07)"><g transform="" style="fill: rgb(255, 255, 255);">
<rect width="100" height="100"/>
</g></g><g transform="translate(98,42) scale(0.07,0.07)"><g transform="" style="fill: rgb(255, 255, 255);">
<rect width="100" height="100"/>
</g></g><g transform="translate(112,42) scale(0.014,0.014)"><g transform="" style="fill: rgb(255, 255, 255);">
<path d="M250,0c138.077,0,250,111.93,250,250c0,138.077-111.923,250-250,250C111.93,500,0,388.077,0,250C0,111.93,111.93,0,250,0z"
	/>
</g></g><g transform="translate(126,42) scale(0.014,0.014)"><g transform="" style="fill: rgb(255, 255, 255);">
<path d="M0,250C0,191.729,0,0,0,0s170.201,0,250,0c62.324,0,250,0,250,0s0,174.261,0,250c0,138.064-111.936,250-250,250
	C111.929,500,0,388.064,0,250z"/>
</g></g><g transform="translate(140,42) scale(0.07,0.07)"><g transform="" style="fill: rgb(255, 255, 255);">
<rect width="100" height="100"/>
</g></g><g transform="translate(154,42) scale(0.014,0.014)"><g transform="" style="fill: rgb(255, 255, 255);">
<path d="M250,0c138.077,0,250,111.93,250,250c0,138.077-111.923,250-250,250C111.93,500,0,388.077,0,250C0,111.93,111.93,0,250,0z"
	/>
</g></g><g transform="translate(168,42) scale(0.07,0.07)"><g transform="" style="fill: rgb(255, 255, 255);">
<rect width="100" height="100"/>
</g></g><g transform="translate(77,49) scale(0.014,0.014)"><g transform="" style="fill: rgb(255, 255, 255);">
<g>
	<path d="M0,500h500V0C223.861,0.001,0,223.854,0,500z"/>
</g>
</g></g><g transform="translate(84,49) scale(0.014,0.014)"><g transform="" style="fill: rgb(255, 255, 255);">
<g>
	<path d="M500,0H0v500C276.142,500,500,276.142,500,0z"/>
</g>
</g></g><g transform="translate(98,49) scale(0.07,0.07)"><g transform="" style="fill: rgb(255, 255, 255);">
<rect width="100" height="100"/>
</g></g><g transform="translate(119,49) scale(0.014,0.014)"><g transform="" style="fill: rgb(255, 255, 255);">
<path d="M250,0c138.077,0,250,111.93,250,250c0,138.077-111.923,250-250,250C111.93,500,0,388.077,0,250C0,111.93,111.93,0,250,0z"
	/>
</g></g><g transform="translate(133,49) scale(0.014,0.014)"><g transform="" style="fill: rgb(255, 255, 255);">
<g>
	<path d="M0,500h500V0C223.861,0.001,0,223.854,0,500z"/>
</g>
</g></g><g transform="translate(140,49) scale(0.07,0.07)"><g transform="" style="fill: rgb(255, 255, 255);">
<rect width="100" height="100"/>
</g></g><g transform="translate(147,49) scale(0.014,0.014)"><g transform="" style="fill: rgb(255, 255, 255);">
<g>
	<path d="M0,0v500h500C500,223.853,276.142,0,0,0z"/>
</g>
</g></g><g transform="translate(161,49) scale(0.014,0.014)"><g transform="" style="fill: rgb(255, 255, 255);">
<path d="M250,0c58.27,0,250,0,250,0s0,170.182,0,250c0,62.305,0,250,0,250s-174.219,0-250,0
	C111.881,500,0,388.021,0,250C0,111.963,111.881,0,250,0z"/>
</g></g><g transform="translate(168,49) scale(0.014,0.014)"><g transform="" style="fill: rgb(255, 255, 255);">
<g>
	<path d="M500,0H0v500C276.142,500,500,276.142,500,0z"/>
</g>
</g></g><g transform="translate(0,56) scale(0.014,0.014)"><g transform="" style="fill: rgb(255, 255, 255);">
<path d="M500,250c0,58.266,0,250,0,250s-170.194,0-250-0.012c-62.324,0.012-250,0-250,0s0-174.241,0-249.994
	C0.006,111.931,111.929,0,249.994,0C388.064,0,500,111.93,500,250z"/>
</g></g><g transform="translate(21,56) scale(0.014,0.014)"><g transform="" style="fill: rgb(255, 255, 255);">
<path d="M250,0c138.077,0,250,111.93,250,250c0,138.077-111.923,250-250,250C111.93,500,0,388.077,0,250C0,111.93,111.93,0,250,0z"
	/>
</g></g><g transform="translate(35,56) scale(0.014,0.014)"><g transform="" style="fill: rgb(255, 255, 255);">
<path d="M250,0c58.27,0,250,0,250,0s0,170.182,0,250c0,62.305,0,250,0,250s-174.219,0-250,0
	C111.881,500,0,388.021,0,250C0,111.963,111.881,0,250,0z"/>
</g></g><g transform="translate(42,56) scale(0.014,0.014)"><g transform="" style="fill: rgb(255, 255, 255);">
<path d="M250,500c-58.271,0-250,0-250,0s0-170.207,0-250C0,187.676,0,0,0,0s174.261,0,250,0c138.064,0,250,111.929,250,250
	C500,388.064,388.064,500,250,500z"/>
</g></g><g transform="translate(56,56) scale(0.014,0.014)"><g transform="" style="fill: rgb(255, 255, 255);">
<path d="M250,0c58.27,0,250,0,250,0s0,170.182,0,250c0,62.305,0,250,0,250s-174.219,0-250,0
	C111.881,500,0,388.021,0,250C0,111.963,111.881,0,250,0z"/>
</g></g><g transform="translate(63,56) scale(0.07,0.07)"><g transform="" style="fill: rgb(255, 255, 255);">
<rect width="100" height="100"/>
</g></g><g transform="translate(70,56) scale(0.07,0.07)"><g transform="" style="fill: rgb(255, 255, 255);">
<rect width="100" height="100"/>
</g></g><g transform="translate(77,56) scale(0.014,0.014)"><g transform="" style="fill: rgb(255, 255, 255);">
<g>
	<path d="M500,0H0v500C276.142,500,500,276.142,500,0z"/>
</g>
</g></g><g transform="translate(91,56) scale(0.014,0.014)"><g transform="" style="fill: rgb(255, 255, 255);">
<path d="M250,0c58.27,0,250,0,250,0s0,170.182,0,250c0,62.305,0,250,0,250s-174.219,0-250,0
	C111.881,500,0,388.021,0,250C0,111.963,111.881,0,250,0z"/>
</g></g><g transform="translate(98,56) scale(0.07,0.07)"><g transform="" style="fill: rgb(255, 255, 255);">
<rect width="100" height="100"/>
</g></g><g transform="translate(105,56) scale(0.014,0.014)"><g transform="" style="fill: rgb(255, 255, 255);">
<path d="M250,500c-58.271,0-250,0-250,0s0-170.207,0-250C0,187.676,0,0,0,0s174.261,0,250,0c138.064,0,250,111.929,250,250
	C500,388.064,388.064,500,250,500z"/>
</g></g><g transform="translate(133,56) scale(0.014,0.014)"><g transform="" style="fill: rgb(255, 255, 255);">
<path d="M0,250C0,191.729,0,0,0,0s170.201,0,250,0c62.324,0,250,0,250,0s0,174.261,0,250c0,138.064-111.936,250-250,250
	C111.929,500,0,388.064,0,250z"/>
</g></g><g transform="translate(147,56) scale(0.07,0.07)"><g transform="" style="fill: rgb(255, 255, 255);">
<rect width="100" height="100"/>
</g></g><g transform="translate(175,56) scale(0.014,0.014)"><g transform="" style="fill: rgb(255, 255, 255);">
<path d="M500,250c0,58.266,0,250,0,250s-170.194,0-250-0.012c-62.324,0.012-250,0-250,0s0-174.241,0-249.994
	C0.006,111.931,111.929,0,249.994,0C388.064,0,500,111.93,500,250z"/>
</g></g><g transform="translate(189,56) scale(0.014,0.014)"><g transform="" style="fill: rgb(255, 255, 255);">
<path d="M500,250c0,58.266,0,250,0,250s-170.194,0-250-0.012c-62.324,0.012-250,0-250,0s0-174.241,0-249.994
	C0.006,111.931,111.929,0,249.994,0C388.064,0,500,111.93,500,250z"/>
</g></g><g transform="translate(0,63) scale(0.07,0.07)"><g transform="" style="fill: rgb(255, 255, 255);">
<rect width="100" height="100"/>
</g></g><g transform="translate(7,63) scale(0.07,0.07)"><g transform="" style="fill: rgb(255, 255, 255);">
<rect width="100" height="100"/>
</g></g><g transform="translate(14,63) scale(0.014,0.014)"><g transform="" style="fill: rgb(255, 255, 255);">
<path d="M250,500c-58.271,0-250,0-250,0s0-170.207,0-250C0,187.676,0,0,0,0s174.261,0,250,0c138.064,0,250,111.929,250,250
	C500,388.064,388.064,500,250,500z"/>
</g></g><g transform="translate(49,63) scale(0.014,0.014)"><g transform="" style="fill: rgb(255, 255, 255);">
<path d="M500,250c0,58.266,0,250,0,250s-170.194,0-250-0.012c-62.324,0.012-250,0-250,0s0-174.241,0-249.994
	C0.006,111.931,111.929,0,249.994,0C388.064,0,500,111.93,500,250z"/>
</g></g><g transform="translate(63,63) scale(0.014,0.014)"><g transform="" style="fill: rgb(255, 255, 255);">
<g>
	<path d="M500,500V0H0C0.001,276.142,223.853,500,500,500z"/>
</g>
</g></g><g transform="translate(70,63) scale(0.07,0.07)"><g transform="" style="fill: rgb(255, 255, 255);">
<rect width="100" height="100"/>
</g></g><g transform="translate(112,63) scale(0.014,0.014)"><g transform="" style="fill: rgb(255, 255, 255);">
<path d="M500,250c0,58.266,0,250,0,250s-170.194,0-250-0.012c-62.324,0.012-250,0-250,0s0-174.241,0-249.994
	C0.006,111.931,111.929,0,249.994,0C388.064,0,500,111.93,500,250z"/>
</g></g><g transform="translate(140,63) scale(0.014,0.014)"><g transform="" style="fill: rgb(255, 255, 255);">
<path d="M250,0c58.27,0,250,0,250,0s0,170.182,0,250c0,62.305,0,250,0,250s-174.219,0-250,0
	C111.881,500,0,388.021,0,250C0,111.963,111.881,0,250,0z"/>
</g></g><g transform="translate(147,63) scale(0.014,0.014)"><g transform="" style="fill: rgb(255, 255, 255);">
<g>
	<path d="M500,0H0v500C276.142,500,500,276.142,500,0z"/>
</g>
</g></g><g transform="translate(168,63) scale(0.014,0.014)"><g transform="" style="fill: rgb(255, 255, 255);">
<path d="M250,0c58.27,0,250,0,250,0s0,170.182,0,250c0,62.305,0,250,0,250s-174.219,0-250,0
	C111.881,500,0,388.021,0,250C0,111.963,111.881,0,250,0z"/>
</g></g><g transform="translate(175,63) scale(0.07,0.07)"><g transform="" style="fill: rgb(255, 255, 255);">
<rect width="100" height="100"/>
</g></g><g transform="translate(182,63) scale(0.07,0.07)"><g transform="" style="fill: rgb(255, 255, 255);">
<rect width="100" height="100"/>
</g></g><g transform="translate(189,63) scale(0.07,0.07)"><g transform="" style="fill: rgb(255, 255, 255);">
<rect width="100" height="100"/>
</g></g><g transform="translate(217,63) scale(0.014,0.014)"><g transform="" style="fill: rgb(255, 255, 255);">
<path d="M250,0c58.27,0,250,0,250,0s0,170.182,0,250c0,62.305,0,250,0,250s-174.219,0-250,0
	C111.881,500,0,388.021,0,250C0,111.963,111.881,0,250,0z"/>
</g></g><g transform="translate(224,63) scale(0.014,0.014)"><g transform="" style="fill: rgb(255, 255, 255);">
<g>
	<path d="M0,0v500h500C500,223.853,276.142,0,0,0z"/>
</g>
</g></g><g transform="translate(0,70) scale(0.07,0.07)"><g transform="" style="fill: rgb(255, 255, 255);">
<rect width="100" height="100"/>
</g></g><g transform="translate(7,70) scale(0.014,0.014)"><g transform="" style="fill: rgb(255, 255, 255);">
<g>
	<path d="M500,0H0v500C276.142,500,500,276.142,500,0z"/>
</g>
</g></g><g transform="translate(21,70) scale(0.014,0.014)"><g transform="" style="fill: rgb(255, 255, 255);">
<path d="M250,0c138.077,0,250,111.93,250,250c0,138.077-111.923,250-250,250C111.93,500,0,388.077,0,250C0,111.93,111.93,0,250,0z"
	/>
</g></g><g transform="translate(42,70) scale(0.014,0.014)"><g transform="" style="fill: rgb(255, 255, 255);">
<path d="M250,0c58.27,0,250,0,250,0s0,170.182,0,250c0,62.305,0,250,0,250s-174.219,0-250,0
	C111.881,500,0,388.021,0,250C0,111.963,111.881,0,250,0z"/>
</g></g><g transform="translate(49,70) scale(0.07,0.07)"><g transform="" style="fill: rgb(255, 255, 255);">
<rect width="100" height="100"/>
</g></g><g transform="translate(56,70) scale(0.014,0.014)"><g transform="" style="fill: rgb(255, 255, 255);">
<path d="M250,500c-58.271,0-250,0-250,0s0-170.207,0-250C0,187.676,0,0,0,0s174.261,0,250,0c138.064,0,250,111.929,250,250
	C500,388.064,388.064,500,250,500z"/>
</g></g><g transform="translate(70,70) scale(0.014,0.014)"><g transform="" style="fill: rgb(255, 255, 255);">
<g>
	<path d="M500,500V0H0C0.001,276.142,223.853,500,500,500z"/>
</g>
</g></g><g transform="translate(77,70) scale(0.07,0.07)"><g transform="" style="fill: rgb(255, 255, 255);">
<rect width="100" height="100"/>
</g></g><g transform="translate(84,70) scale(0.014,0.014)"><g transform="" style="fill: rgb(255, 255, 255);">
<g>
	<path d="M0,0v500h500C500,223.853,276.142,0,0,0z"/>
</g>
</g></g><g transform="translate(112,70) scale(0.07,0.07)"><g transform="" style="fill: rgb(255, 255, 255);">
<rect width="100" height="100"/>
</g></g><g transform="translate(119,70) scale(0.014,0.014)"><g transform="" style="fill: rgb(255, 255, 255);">
<g>
	<path d="M0,0v500h500C500,223.853,276.142,0,0,0z"/>
</g>
</g></g><g transform="translate(133,70) scale(0.014,0.014)"><g transform="" style="fill: rgb(255, 255, 255);">
<path d="M250,0c138.077,0,250,111.93,250,250c0,138.077-111.923,250-250,250C111.93,500,0,388.077,0,250C0,111.93,111.93,0,250,0z"
	/>
</g></g><g transform="translate(189,70) scale(0.014,0.014)"><g transform="" style="fill: rgb(255, 255, 255);">
<g>
	<path d="M500,500V0H0C0.001,276.142,223.853,500,500,500z"/>
</g>
</g></g><g transform="translate(196,70) scale(0.014,0.014)"><g transform="" style="fill: rgb(255, 255, 255);">
<g>
	<path d="M0,0v500h500C500,223.853,276.142,0,0,0z"/>
</g>
</g></g><g transform="translate(210,70) scale(0.014,0.014)"><g transform="" style="fill: rgb(255, 255, 255);">
<path d="M250,0c138.077,0,250,111.93,250,250c0,138.077-111.923,250-250,250C111.93,500,0,388.077,0,250C0,111.93,111.93,0,250,0z"
	/>
</g></g><g transform="translate(224,70) scale(0.014,0.014)"><g transform="" style="fill: rgb(255, 255, 255);">
<path d="M0,250C0,191.729,0,0,0,0s170.201,0,250,0c62.324,0,250,0,250,0s0,174.261,0,250c0,138.064-111.936,250-250,250
	C111.929,500,0,388.064,0,250z"/>
</g></g><g transform="translate(0,77) scale(0.07,0.07)"><g transform="" style="fill: rgb(255, 255, 255);">
<rect width="100" height="100"/>
</g></g><g transform="translate(14,77) scale(0.014,0.014)"><g transform="" style="fill: rgb(255, 255, 255);">
<path d="M250,0c138.077,0,250,111.93,250,250c0,138.077-111.923,250-250,250C111.93,500,0,388.077,0,250C0,111.93,111.93,0,250,0z"
	/>
</g></g><g transform="translate(28,77) scale(0.014,0.014)"><g transform="" style="fill: rgb(255, 255, 255);">
<path d="M250,0c138.077,0,250,111.93,250,250c0,138.077-111.923,250-250,250C111.93,500,0,388.077,0,250C0,111.93,111.93,0,250,0z"
	/>
</g></g><g transform="translate(63,77) scale(0.014,0.014)"><g transform="" style="fill: rgb(255, 255, 255);">
<path d="M500,250c0,58.266,0,250,0,250s-170.194,0-250-0.012c-62.324,0.012-250,0-250,0s0-174.241,0-249.994
	C0.006,111.931,111.929,0,249.994,0C388.064,0,500,111.93,500,250z"/>
</g></g><g transform="translate(84,77) scale(0.014,0.014)"><g transform="" style="fill: rgb(255, 255, 255);">
<path d="M0,250C0,191.729,0,0,0,0s170.201,0,250,0c62.324,0,250,0,250,0s0,174.261,0,250c0,138.064-111.936,250-250,250
	C111.929,500,0,388.064,0,250z"/>
</g></g><g transform="translate(98,77) scale(0.014,0.014)"><g transform="" style="fill: rgb(255, 255, 255);">
<path d="M250,0c58.27,0,250,0,250,0s0,170.182,0,250c0,62.305,0,250,0,250s-174.219,0-250,0
	C111.881,500,0,388.021,0,250C0,111.963,111.881,0,250,0z"/>
</g></g><g transform="translate(105,77) scale(0.07,0.07)"><g transform="" style="fill: rgb(255, 255, 255);">
<rect width="100" height="100"/>
</g></g><g transform="translate(112,77) scale(0.07,0.07)"><g transform="" style="fill: rgb(255, 255, 255);">
<rect width="100" height="100"/>
</g></g><g transform="translate(119,77) scale(0.014,0.014)"><g transform="" style="fill: rgb(255, 255, 255);">
<g>
	<path d="M500,0H0v500C276.142,500,500,276.142,500,0z"/>
</g>
</g></g><g transform="translate(147,77) scale(0.014,0.014)"><g transform="" style="fill: rgb(255, 255, 255);">
<path d="M500,250c0,58.266,0,250,0,250s-170.194,0-250-0.012c-62.324,0.012-250,0-250,0s0-174.241,0-249.994
	C0.006,111.931,111.929,0,249.994,0C388.064,0,500,111.93,500,250z"/>
</g></g><g transform="translate(161,77) scale(0.014,0.014)"><g transform="" style="fill: rgb(255, 255, 255);">
<g>
	<path d="M0,500h500V0C223.861,0.001,0,223.854,0,500z"/>
</g>
</g></g><g transform="translate(168,77) scale(0.07,0.07)"><g transform="" style="fill: rgb(255, 255, 255);">
<rect width="100" height="100"/>
</g></g><g transform="translate(175,77) scale(0.014,0.014)"><g transform="" style="fill: rgb(255, 255, 255);">
<g>
	<path d="M0,0v500h500C500,223.853,276.142,0,0,0z"/>
</g>
</g></g><g transform="translate(196,77) scale(0.014,0.014)"><g transform="" style="fill: rgb(255, 255, 255);">
<g>
	<path d="M500,500V0H0C0.001,276.142,223.853,500,500,500z"/>
</g>
</g></g><g transform="translate(203,77) scale(0.014,0.014)"><g transform="" style="fill: rgb(255, 255, 255);">
<g>
	<path d="M0,0v500h500C500,223.853,276.142,0,0,0z"/>
</g>
</g></g><g transform="translate(217,77) scale(0.014,0.014)"><g transform="" style="fill: rgb(255, 255, 255);">
<path d="M500,250c0,58.266,0,250,0,250s-170.194,0-250-0.012c-62.324,0.012-250,0-250,0s0-174.241,0-249.994
	C0.006,111.931,111.929,0,249.994,0C388.064,0,500,111.93,500,250z"/>
</g></g><g transform="translate(0,84) scale(0.07,0.07)"><g transform="" style="fill: rgb(255, 255, 255);">
<rect width="100" height="100"/>
</g></g><g transform="translate(7,84) scale(0.014,0.014)"><g transform="" style="fill: rgb(255, 255, 255);">
<g>
	<path d="M0,0v500h500C500,223.853,276.142,0,0,0z"/>
</g>
</g></g><g transform="translate(42,84) scale(0.014,0.014)"><g transform="" style="fill: rgb(255, 255, 255);">
<path d="M250,0c58.27,0,250,0,250,0s0,170.182,0,250c0,62.305,0,250,0,250s-174.219,0-250,0
	C111.881,500,0,388.021,0,250C0,111.963,111.881,0,250,0z"/>
</g></g><g transform="translate(49,84) scale(0.014,0.014)"><g transform="" style="fill: rgb(255, 255, 255);">
<g>
	<path d="M0,0v500h500C500,223.853,276.142,0,0,0z"/>
</g>
</g></g><g transform="translate(63,84) scale(0.07,0.07)"><g transform="" style="fill: rgb(255, 255, 255);">
<rect width="100" height="100"/>
</g></g><g transform="translate(77,84) scale(0.014,0.014)"><g transform="" style="fill: rgb(255, 255, 255);">
<path d="M250,0c138.077,0,250,111.93,250,250c0,138.077-111.923,250-250,250C111.93,500,0,388.077,0,250C0,111.93,111.93,0,250,0z"
	/>
</g></g><g transform="translate(133,84) scale(0.014,0.014)"><g transform="" style="fill: rgb(255, 255, 255);">
<path d="M250,0c138.077,0,250,111.93,250,250c0,138.077-111.923,250-250,250C111.93,500,0,388.077,0,250C0,111.93,111.93,0,250,0z"
	/>
</g></g><g transform="translate(147,84) scale(0.014,0.014)"><g transform="" style="fill: rgb(255, 255, 255);">
<path d="M0,250C0,191.729,0,0,0,0s170.201,0,250,0c62.324,0,250,0,250,0s0,174.261,0,250c0,138.064-111.936,250-250,250
	C111.929,500,0,388.064,0,250z"/>
</g></g><g transform="translate(161,84) scale(0.014,0.014)"><g transform="" style="fill: rgb(255, 255, 255);">
<g>
	<path d="M500,500V0H0C0.001,276.142,223.853,500,500,500z"/>
</g>
</g></g><g transform="translate(168,84) scale(0.07,0.07)"><g transform="" style="fill: rgb(255, 255, 255);">
<rect width="100" height="100"/>
</g></g><g transform="translate(175,84) scale(0.07,0.07)"><g transform="" style="fill: rgb(255, 255, 255);">
<rect width="100" height="100"/>
</g></g><g transform="translate(182,84) scale(0.014,0.014)"><g transform="" style="fill: rgb(255, 255, 255);">
<g>
	<path d="M0,0v500h500C500,223.853,276.142,0,0,0z"/>
</g>
</g></g><g transform="translate(203,84) scale(0.07,0.07)"><g transform="" style="fill: rgb(255, 255, 255);">
<rect width="100" height="100"/>
</g></g><g transform="translate(217,84) scale(0.07,0.07)"><g transform="" style="fill: rgb(255, 255, 255);">
<rect width="100" height="100"/>
</g></g><g transform="translate(0,91) scale(0.014,0.014)"><g transform="" style="fill: rgb(255, 255, 255);">
<g>
	<path d="M500,500V0H0C0.001,276.142,223.853,500,500,500z"/>
</g>
</g></g><g transform="translate(7,91) scale(0.014,0.014)"><g transform="" style="fill: rgb(255, 255, 255);">
<g>
	<path d="M500,0H0v500C276.142,500,500,276.142,500,0z"/>
</g>
</g></g><g transform="translate(35,91) scale(0.014,0.014)"><g transform="" style="fill: rgb(255, 255, 255);">
<path d="M250,0c138.077,0,250,111.93,250,250c0,138.077-111.923,250-250,250C111.93,500,0,388.077,0,250C0,111.93,111.93,0,250,0z"
	/>
</g></g><g transform="translate(49,91) scale(0.07,0.07)"><g transform="" style="fill: rgb(255, 255, 255);">
<rect width="100" height="100"/>
</g></g><g transform="translate(63,91) scale(0.014,0.014)"><g transform="" style="fill: rgb(255, 255, 255);">
<g>
	<path d="M500,500V0H0C0.001,276.142,223.853,500,500,500z"/>
</g>
</g></g><g transform="translate(70,91) scale(0.014,0.014)"><g transform="" style="fill: rgb(255, 255, 255);">
<path d="M250,500c-58.271,0-250,0-250,0s0-170.207,0-250C0,187.676,0,0,0,0s174.261,0,250,0c138.064,0,250,111.929,250,250
	C500,388.064,388.064,500,250,500z"/>
</g></g><g transform="translate(84,91) scale(0.014,0.014)"><g transform="" style="fill: rgb(255, 255, 255);">
<path d="M500,250c0,58.266,0,250,0,250s-170.194,0-250-0.012c-62.324,0.012-250,0-250,0s0-174.241,0-249.994
	C0.006,111.931,111.929,0,249.994,0C388.064,0,500,111.93,500,250z"/>
</g></g><g transform="translate(105,91) scale(0.014,0.014)"><g transform="" style="fill: rgb(255, 255, 255);">
<path d="M250,0c58.27,0,250,0,250,0s0,170.182,0,250c0,62.305,0,250,0,250s-174.219,0-250,0
	C111.881,500,0,388.021,0,250C0,111.963,111.881,0,250,0z"/>
</g></g><g transform="translate(112,91) scale(0.014,0.014)"><g transform="" style="fill: rgb(255, 255, 255);">
<path d="M250,500c-58.271,0-250,0-250,0s0-170.207,0-250C0,187.676,0,0,0,0s174.261,0,250,0c138.064,0,250,111.929,250,250
	C500,388.064,388.064,500,250,500z"/>
</g></g><g transform="translate(182,91) scale(0.07,0.07)"><g transform="" style="fill: rgb(255, 255, 255);">
<rect width="100" height="100"/>
</g></g><g transform="translate(196,91) scale(0.014,0.014)"><g transform="" style="fill: rgb(255, 255, 255);">
<path d="M250,0c58.27,0,250,0,250,0s0,170.182,0,250c0,62.305,0,250,0,250s-174.219,0-250,0
	C111.881,500,0,388.021,0,250C0,111.963,111.881,0,250,0z"/>
</g></g><g transform="translate(203,91) scale(0.014,0.014)"><g transform="" style="fill: rgb(255, 255, 255);">
<g>
	<path d="M500,0H0v500C276.142,500,500,276.142,500,0z"/>
</g>
</g></g><g transform="translate(217,91) scale(0.07,0.07)"><g transform="" style="fill: rgb(255, 255, 255);">
<rect width="100" height="100"/>
</g></g><g transform="translate(224,91) scale(0.014,0.014)"><g transform="" style="fill: rgb(255, 255, 255);">
<path d="M250,500c-58.271,0-250,0-250,0s0-170.207,0-250C0,187.676,0,0,0,0s174.261,0,250,0c138.064,0,250,111.929,250,250
	C500,388.064,388.064,500,250,500z"/>
</g></g><g transform="translate(14,98) scale(0.014,0.014)"><g transform="" style="fill: rgb(255, 255, 255);">
<path d="M250,0c58.27,0,250,0,250,0s0,170.182,0,250c0,62.305,0,250,0,250s-174.219,0-250,0
	C111.881,500,0,388.021,0,250C0,111.963,111.881,0,250,0z"/>
</g></g><g transform="translate(21,98) scale(0.014,0.014)"><g transform="" style="fill: rgb(255, 255, 255);">
<g>
	<path d="M0,0v500h500C500,223.853,276.142,0,0,0z"/>
</g>
</g></g><g transform="translate(42,98) scale(0.014,0.014)"><g transform="" style="fill: rgb(255, 255, 255);">
<path d="M250,0c58.27,0,250,0,250,0s0,170.182,0,250c0,62.305,0,250,0,250s-174.219,0-250,0
	C111.881,500,0,388.021,0,250C0,111.963,111.881,0,250,0z"/>
</g></g><g transform="translate(49,98) scale(0.07,0.07)"><g transform="" style="fill: rgb(255, 255, 255);">
<rect width="100" height="100"/>
</g></g><g transform="translate(56,98) scale(0.014,0.014)"><g transform="" style="fill: rgb(255, 255, 255);">
<path d="M250,500c-58.271,0-250,0-250,0s0-170.207,0-250C0,187.676,0,0,0,0s174.261,0,250,0c138.064,0,250,111.929,250,250
	C500,388.064,388.064,500,250,500z"/>
</g></g><g transform="translate(77,98) scale(0.014,0.014)"><g transform="" style="fill: rgb(255, 255, 255);">
<g>
	<path d="M0,500h500V0C223.861,0.001,0,223.854,0,500z"/>
</g>
</g></g><g transform="translate(84,98) scale(0.07,0.07)"><g transform="" style="fill: rgb(255, 255, 255);">
<rect width="100" height="100"/>
</g></g><g transform="translate(91,98) scale(0.07,0.07)"><g transform="" style="fill: rgb(255, 255, 255);">
<rect width="100" height="100"/>
</g></g><g transform="translate(98,98) scale(0.014,0.014)"><g transform="" style="fill: rgb(255, 255, 255);">
<path d="M250,500c-58.271,0-250,0-250,0s0-170.207,0-250C0,187.676,0,0,0,0s174.261,0,250,0c138.064,0,250,111.929,250,250
	C500,388.064,388.064,500,250,500z"/>
</g></g><g transform="translate(119,98) scale(0.014,0.014)"><g transform="" style="fill: rgb(255, 255, 255);">
<g>
	<path d="M0,500h500V0C223.861,0.001,0,223.854,0,500z"/>
</g>
</g></g><g transform="translate(126,98) scale(0.014,0.014)"><g transform="" style="fill: rgb(255, 255, 255);">
<g>
	<path d="M0,0v500h500C500,223.853,276.142,0,0,0z"/>
</g>
</g></g><g transform="translate(140,98) scale(0.014,0.014)"><g transform="" style="fill: rgb(255, 255, 255);">
<path d="M250,0c58.27,0,250,0,250,0s0,170.182,0,250c0,62.305,0,250,0,250s-174.219,0-250,0
	C111.881,500,0,388.021,0,250C0,111.963,111.881,0,250,0z"/>
</g></g><g transform="translate(147,98) scale(0.07,0.07)"><g transform="" style="fill: rgb(255, 255, 255);">
<rect width="100" height="100"/>
</g></g><g transform="translate(154,98) scale(0.07,0.07)"><g transform="" style="fill: rgb(255, 255, 255);">
<rect width="100" height="100"/>
</g></g><g transform="translate(161,98) scale(0.014,0.014)"><g transform="" style="fill: rgb(255, 255, 255);">
<g>
	<path d="M0,0v500h500C500,223.853,276.142,0,0,0z"/>
</g>
</g></g><g transform="translate(175,98) scale(0.014,0.014)"><g transform="" style="fill: rgb(255, 255, 255);">
<path d="M250,0c58.27,0,250,0,250,0s0,170.182,0,250c0,62.305,0,250,0,250s-174.219,0-250,0
	C111.881,500,0,388.021,0,250C0,111.963,111.881,0,250,0z"/>
</g></g><g transform="translate(182,98) scale(0.07,0.07)"><g transform="" style="fill: rgb(255, 255, 255);">
<rect width="100" height="100"/>
</g></g><g transform="translate(189,98) scale(0.014,0.014)"><g transform="" style="fill: rgb(255, 255, 255);">
<path d="M250,500c-58.271,0-250,0-250,0s0-170.207,0-250C0,187.676,0,0,0,0s174.261,0,250,0c138.064,0,250,111.929,250,250
	C500,388.064,388.064,500,250,500z"/>
</g></g><g transform="translate(210,98) scale(0.014,0.014)"><g transform="" style="fill: rgb(255, 255, 255);">
<path d="M250,0c58.27,0,250,0,250,0s0,170.182,0,250c0,62.305,0,250,0,250s-174.219,0-250,0
	C111.881,500,0,388.021,0,250C0,111.963,111.881,0,250,0z"/>
</g></g><g transform="translate(217,98) scale(0.07,0.07)"><g transform="" style="fill: rgb(255, 255, 255);">
<rect width="100" height="100"/>
</g></g><g transform="translate(0,105) scale(0.014,0.014)"><g transform="" style="fill: rgb(255, 255, 255);">
<g>
	<path d="M0,500h500V0C223.861,0.001,0,223.854,0,500z"/>
</g>
</g></g><g transform="translate(7,105) scale(0.014,0.014)"><g transform="" style="fill: rgb(255, 255, 255);">
<path d="M250,500c-58.271,0-250,0-250,0s0-170.207,0-250C0,187.676,0,0,0,0s174.261,0,250,0c138.064,0,250,111.929,250,250
	C500,388.064,388.064,500,250,500z"/>
</g></g><g transform="translate(21,105) scale(0.014,0.014)"><g transform="" style="fill: rgb(255, 255, 255);">
<g>
	<path d="M500,500V0H0C0.001,276.142,223.853,500,500,500z"/>
</g>
</g></g><g transform="translate(28,105) scale(0.014,0.014)"><g transform="" style="fill: rgb(255, 255, 255);">
<g>
	<path d="M0,0v500h500C500,223.853,276.142,0,0,0z"/>
</g>
</g></g><g transform="translate(49,105) scale(0.014,0.014)"><g transform="" style="fill: rgb(255, 255, 255);">
<path d="M0,250C0,191.729,0,0,0,0s170.201,0,250,0c62.324,0,250,0,250,0s0,174.261,0,250c0,138.064-111.936,250-250,250
	C111.929,500,0,388.064,0,250z"/>
</g></g><g transform="translate(70,105) scale(0.014,0.014)"><g transform="" style="fill: rgb(255, 255, 255);">
<path d="M250,0c58.27,0,250,0,250,0s0,170.182,0,250c0,62.305,0,250,0,250s-174.219,0-250,0
	C111.881,500,0,388.021,0,250C0,111.963,111.881,0,250,0z"/>
</g></g><g transform="translate(77,105) scale(0.07,0.07)"><g transform="" style="fill: rgb(255, 255, 255);">
<rect width="100" height="100"/>
</g></g><g transform="translate(105,105) scale(0.014,0.014)"><g transform="" style="fill: rgb(255, 255, 255);">
<path d="M250,0c138.077,0,250,111.93,250,250c0,138.077-111.923,250-250,250C111.93,500,0,388.077,0,250C0,111.93,111.93,0,250,0z"
	/>
</g></g><g transform="translate(119,105) scale(0.07,0.07)"><g transform="" style="fill: rgb(255, 255, 255);">
<rect width="100" height="100"/>
</g></g><g transform="translate(126,105) scale(0.07,0.07)"><g transform="" style="fill: rgb(255, 255, 255);">
<rect width="100" height="100"/>
</g></g><g transform="translate(133,105) scale(0.014,0.014)"><g transform="" style="fill: rgb(255, 255, 255);">
<g>
	<path d="M0,0v500h500C500,223.853,276.142,0,0,0z"/>
</g>
</g></g><g transform="translate(147,105) scale(0.07,0.07)"><g transform="" style="fill: rgb(255, 255, 255);">
<rect width="100" height="100"/>
</g></g><g transform="translate(161,105) scale(0.014,0.014)"><g transform="" style="fill: rgb(255, 255, 255);">
<g>
	<path d="M500,500V0H0C0.001,276.142,223.853,500,500,500z"/>
</g>
</g></g><g transform="translate(168,105) scale(0.014,0.014)"><g transform="" style="fill: rgb(255, 255, 255);">
<g>
	<path d="M0,0v500h500C500,223.853,276.142,0,0,0z"/>
</g>
</g></g><g transform="translate(182,105) scale(0.07,0.07)"><g transform="" style="fill: rgb(255, 255, 255);">
<rect width="100" height="100"/>
</g></g><g transform="translate(196,105) scale(0.014,0.014)"><g transform="" style="fill: rgb(255, 255, 255);">
<path d="M500,250c0,58.266,0,250,0,250s-170.194,0-250-0.012c-62.324,0.012-250,0-250,0s0-174.241,0-249.994
	C0.006,111.931,111.929,0,249.994,0C388.064,0,500,111.93,500,250z"/>
</g></g><g transform="translate(217,105) scale(0.07,0.07)"><g transform="" style="fill: rgb(255, 255, 255);">
<rect width="100" height="100"/>
</g></g><g transform="translate(0,112) scale(0.07,0.07)"><g transform="" style="fill: rgb(255, 255, 255);">
<rect width="100" height="100"/>
</g></g><g transform="translate(28,112) scale(0.014,0.014)"><g transform="" style="fill: rgb(255, 255, 255);">
<g>
	<path d="M500,500V0H0C0.001,276.142,223.853,500,500,500z"/>
</g>
</g></g><g transform="translate(35,112) scale(0.07,0.07)"><g transform="" style="fill: rgb(255, 255, 255);">
<rect width="100" height="100"/>
</g></g><g transform="translate(42,112) scale(0.014,0.014)"><g transform="" style="fill: rgb(255, 255, 255);">
<path d="M250,500c-58.271,0-250,0-250,0s0-170.207,0-250C0,187.676,0,0,0,0s174.261,0,250,0c138.064,0,250,111.929,250,250
	C500,388.064,388.064,500,250,500z"/>
</g></g><g transform="translate(56,112) scale(0.014,0.014)"><g transform="" style="fill: rgb(255, 255, 255);">
<path d="M250,0c138.077,0,250,111.93,250,250c0,138.077-111.923,250-250,250C111.93,500,0,388.077,0,250C0,111.93,111.93,0,250,0z"
	/>
</g></g><g transform="translate(77,112) scale(0.07,0.07)"><g transform="" style="fill: rgb(255, 255, 255);">
<rect width="100" height="100"/>
</g></g><g transform="translate(84,112) scale(0.014,0.014)"><g transform="" style="fill: rgb(255, 255, 255);">
<g>
	<path d="M0,0v500h500C500,223.853,276.142,0,0,0z"/>
</g>
</g></g><g transform="translate(98,112) scale(0.014,0.014)"><g transform="" style="fill: rgb(255, 255, 255);">
<path d="M500,250c0,58.266,0,250,0,250s-170.194,0-250-0.012c-62.324,0.012-250,0-250,0s0-174.241,0-249.994
	C0.006,111.931,111.929,0,249.994,0C388.064,0,500,111.93,500,250z"/>
</g></g><g transform="translate(119,112) scale(0.014,0.014)"><g transform="" style="fill: rgb(255, 255, 255);">
<path d="M0,250C0,191.729,0,0,0,0s170.201,0,250,0c62.324,0,250,0,250,0s0,174.261,0,250c0,138.064-111.936,250-250,250
	C111.929,500,0,388.064,0,250z"/>
</g></g><g transform="translate(133,112) scale(0.014,0.014)"><g transform="" style="fill: rgb(255, 255, 255);">
<g>
	<path d="M500,500V0H0C0.001,276.142,223.853,500,500,500z"/>
</g>
</g></g><g transform="translate(140,112) scale(0.07,0.07)"><g transform="" style="fill: rgb(255, 255, 255);">
<rect width="100" height="100"/>
</g></g><g transform="translate(147,112) scale(0.07,0.07)"><g transform="" style="fill: rgb(255, 255, 255);">
<rect width="100" height="100"/>
</g></g><g transform="translate(154,112) scale(0.014,0.014)"><g transform="" style="fill: rgb(255, 255, 255);">
<path d="M250,500c-58.271,0-250,0-250,0s0-170.207,0-250C0,187.676,0,0,0,0s174.261,0,250,0c138.064,0,250,111.929,250,250
	C500,388.064,388.064,500,250,500z"/>
</g></g><g transform="translate(168,112) scale(0.07,0.07)"><g transform="" style="fill: rgb(255, 255, 255);">
<rect width="100" height="100"/>
</g></g><g transform="translate(182,112) scale(0.014,0.014)"><g transform="" style="fill: rgb(255, 255, 255);">
<path d="M0,250C0,191.729,0,0,0,0s170.201,0,250,0c62.324,0,250,0,250,0s0,174.261,0,250c0,138.064-111.936,250-250,250
	C111.929,500,0,388.064,0,250z"/>
</g></g><g transform="translate(196,112) scale(0.014,0.014)"><g transform="" style="fill: rgb(255, 255, 255);">
<g>
	<path d="M500,500V0H0C0.001,276.142,223.853,500,500,500z"/>
</g>
</g></g><g transform="translate(203,112) scale(0.014,0.014)"><g transform="" style="fill: rgb(255, 255, 255);">
<g>
	<path d="M0,0v500h500C500,223.853,276.142,0,0,0z"/>
</g>
</g></g><g transform="translate(217,112) scale(0.07,0.07)"><g transform="" style="fill: rgb(255, 255, 255);">
<rect width="100" height="100"/>
</g></g><g transform="translate(0,119) scale(0.014,0.014)"><g transform="" style="fill: rgb(255, 255, 255);">
<path d="M0,250C0,191.729,0,0,0,0s170.201,0,250,0c62.324,0,250,0,250,0s0,174.261,0,250c0,138.064-111.936,250-250,250
	C111.929,500,0,388.064,0,250z"/>
</g></g><g transform="translate(21,119) scale(0.014,0.014)"><g transform="" style="fill: rgb(255, 255, 255);">
<path d="M500,250c0,58.266,0,250,0,250s-170.194,0-250-0.012c-62.324,0.012-250,0-250,0s0-174.241,0-249.994
	C0.006,111.931,111.929,0,249.994,0C388.064,0,500,111.93,500,250z"/>
</g></g><g transform="translate(77,119) scale(0.014,0.014)"><g transform="" style="fill: rgb(255, 255, 255);">
<g>
	<path d="M500,500V0H0C0.001,276.142,223.853,500,500,500z"/>
</g>
</g></g><g transform="translate(84,119) scale(0.07,0.07)"><g transform="" style="fill: rgb(255, 255, 255);">
<rect width="100" height="100"/>
</g></g><g transform="translate(91,119) scale(0.07,0.07)"><g transform="" style="fill: rgb(255, 255, 255);">
<rect width="100" height="100"/>
</g></g><g transform="translate(98,119) scale(0.07,0.07)"><g transform="" style="fill: rgb(255, 255, 255);">
<rect width="100" height="100"/>
</g></g><g transform="translate(112,119) scale(0.014,0.014)"><g transform="" style="fill: rgb(255, 255, 255);">
<path d="M500,250c0,58.266,0,250,0,250s-170.194,0-250-0.012c-62.324,0.012-250,0-250,0s0-174.241,0-249.994
	C0.006,111.931,111.929,0,249.994,0C388.064,0,500,111.93,500,250z"/>
</g></g><g transform="translate(147,119) scale(0.014,0.014)"><g transform="" style="fill: rgb(255, 255, 255);">
<path d="M0,250C0,191.729,0,0,0,0s170.201,0,250,0c62.324,0,250,0,250,0s0,174.261,0,250c0,138.064-111.936,250-250,250
	C111.929,500,0,388.064,0,250z"/>
</g></g><g transform="translate(161,119) scale(0.014,0.014)"><g transform="" style="fill: rgb(255, 255, 255);">
<path d="M250,0c58.27,0,250,0,250,0s0,170.182,0,250c0,62.305,0,250,0,250s-174.219,0-250,0
	C111.881,500,0,388.021,0,250C0,111.963,111.881,0,250,0z"/>
</g></g><g transform="translate(168,119) scale(0.07,0.07)"><g transform="" style="fill: rgb(255, 255, 255);">
<rect width="100" height="100"/>
</g></g><g transform="translate(175,119) scale(0.014,0.014)"><g transform="" style="fill: rgb(255, 255, 255);">
<g>
	<path d="M0,0v500h500C500,223.853,276.142,0,0,0z"/>
</g>
</g></g><g transform="translate(189,119) scale(0.014,0.014)"><g transform="" style="fill: rgb(255, 255, 255);">
<path d="M250,0c138.077,0,250,111.93,250,250c0,138.077-111.923,250-250,250C111.93,500,0,388.077,0,250C0,111.93,111.93,0,250,0z"
	/>
</g></g><g transform="translate(203,119) scale(0.014,0.014)"><g transform="" style="fill: rgb(255, 255, 255);">
<path d="M0,250C0,191.729,0,0,0,0s170.201,0,250,0c62.324,0,250,0,250,0s0,174.261,0,250c0,138.064-111.936,250-250,250
	C111.929,500,0,388.064,0,250z"/>
</g></g><g transform="translate(217,119) scale(0.014,0.014)"><g transform="" style="fill: rgb(255, 255, 255);">
<path d="M0,250C0,191.729,0,0,0,0s170.201,0,250,0c62.324,0,250,0,250,0s0,174.261,0,250c0,138.064-111.936,250-250,250
	C111.929,500,0,388.064,0,250z"/>
</g></g><g transform="translate(7,126) scale(0.014,0.014)"><g transform="" style="fill: rgb(255, 255, 255);">
<path d="M250,0c58.27,0,250,0,250,0s0,170.182,0,250c0,62.305,0,250,0,250s-174.219,0-250,0
	C111.881,500,0,388.021,0,250C0,111.963,111.881,0,250,0z"/>
</g></g><g transform="translate(14,126) scale(0.07,0.07)"><g transform="" style="fill: rgb(255, 255, 255);">
<rect width="100" height="100"/>
</g></g><g transform="translate(21,126) scale(0.014,0.014)"><g transform="" style="fill: rgb(255, 255, 255);">
<g>
	<path d="M500,0H0v500C276.142,500,500,276.142,500,0z"/>
</g>
</g></g><g transform="translate(42,126) scale(0.014,0.014)"><g transform="" style="fill: rgb(255, 255, 255);">
<path d="M250,0c138.077,0,250,111.93,250,250c0,138.077-111.923,250-250,250C111.93,500,0,388.077,0,250C0,111.93,111.93,0,250,0z"
	/>
</g></g><g transform="translate(70,126) scale(0.014,0.014)"><g transform="" style="fill: rgb(255, 255, 255);">
<path d="M250,0c138.077,0,250,111.93,250,250c0,138.077-111.923,250-250,250C111.93,500,0,388.077,0,250C0,111.93,111.93,0,250,0z"
	/>
</g></g><g transform="translate(91,126) scale(0.07,0.07)"><g transform="" style="fill: rgb(255, 255, 255);">
<rect width="100" height="100"/>
</g></g><g transform="translate(98,126) scale(0.014,0.014)"><g transform="" style="fill: rgb(255, 255, 255);">
<g>
	<path d="M500,0H0v500C276.142,500,500,276.142,500,0z"/>
</g>
</g></g><g transform="translate(112,126) scale(0.014,0.014)"><g transform="" style="fill: rgb(255, 255, 255);">
<path d="M0,250C0,191.729,0,0,0,0s170.201,0,250,0c62.324,0,250,0,250,0s0,174.261,0,250c0,138.064-111.936,250-250,250
	C111.929,500,0,388.064,0,250z"/>
</g></g><g transform="translate(126,126) scale(0.014,0.014)"><g transform="" style="fill: rgb(255, 255, 255);">
<path d="M500,250c0,58.266,0,250,0,250s-170.194,0-250-0.012c-62.324,0.012-250,0-250,0s0-174.241,0-249.994
	C0.006,111.931,111.929,0,249.994,0C388.064,0,500,111.93,500,250z"/>
</g></g><g transform="translate(154,126) scale(0.014,0.014)"><g transform="" style="fill: rgb(255, 255, 255);">
<path d="M500,250c0,58.266,0,250,0,250s-170.194,0-250-0.012c-62.324,0.012-250,0-250,0s0-174.241,0-249.994
	C0.006,111.931,111.929,0,249.994,0C388.064,0,500,111.93,500,250z"/>
</g></g><g transform="translate(168,126) scale(0.07,0.07)"><g transform="" style="fill: rgb(255, 255, 255);">
<rect width="100" height="100"/>
</g></g><g transform="translate(175,126) scale(0.014,0.014)"><g transform="" style="fill: rgb(255, 255, 255);">
<g>
	<path d="M500,0H0v500C276.142,500,500,276.142,500,0z"/>
</g>
</g></g><g transform="translate(210,126) scale(0.014,0.014)"><g transform="" style="fill: rgb(255, 255, 255);">
<path d="M250,0c138.077,0,250,111.93,250,250c0,138.077-111.923,250-250,250C111.93,500,0,388.077,0,250C0,111.93,111.93,0,250,0z"
	/>
</g></g><g transform="translate(224,126) scale(0.014,0.014)"><g transform="" style="fill: rgb(255, 255, 255);">
<path d="M250,0c138.077,0,250,111.93,250,250c0,138.077-111.923,250-250,250C111.93,500,0,388.077,0,250C0,111.93,111.93,0,250,0z"
	/>
</g></g><g transform="translate(28,133) scale(0.014,0.014)"><g transform="" style="fill: rgb(255, 255, 255);">
<path d="M500,250c0,58.266,0,250,0,250s-170.194,0-250-0.012c-62.324,0.012-250,0-250,0s0-174.241,0-249.994
	C0.006,111.931,111.929,0,249.994,0C388.064,0,500,111.93,500,250z"/>
</g></g><g transform="translate(77,133) scale(0.014,0.014)"><g transform="" style="fill: rgb(255, 255, 255);">
<path d="M250,0c58.27,0,250,0,250,0s0,170.182,0,250c0,62.305,0,250,0,250s-174.219,0-250,0
	C111.881,500,0,388.021,0,250C0,111.963,111.881,0,250,0z"/>
</g></g><g transform="translate(84,133) scale(0.07,0.07)"><g transform="" style="fill: rgb(255, 255, 255);">
<rect width="100" height="100"/>
</g></g><g transform="translate(91,133) scale(0.014,0.014)"><g transform="" style="fill: rgb(255, 255, 255);">
<g>
	<path d="M500,0H0v500C276.142,500,500,276.142,500,0z"/>
</g>
</g></g><g transform="translate(119,133) scale(0.014,0.014)"><g transform="" style="fill: rgb(255, 255, 255);">
<g>
	<path d="M0,500h500V0C223.861,0.001,0,223.854,0,500z"/>
</g>
</g></g><g transform="translate(126,133) scale(0.07,0.07)"><g transform="" style="fill: rgb(255, 255, 255);">
<rect width="100" height="100"/>
</g></g><g transform="translate(140,133) scale(0.014,0.014)"><g transform="" style="fill: rgb(255, 255, 255);">
<path d="M250,0c58.27,0,250,0,250,0s0,170.182,0,250c0,62.305,0,250,0,250s-174.219,0-250,0
	C111.881,500,0,388.021,0,250C0,111.963,111.881,0,250,0z"/>
</g></g><g transform="translate(147,133) scale(0.07,0.07)"><g transform="" style="fill: rgb(255, 255, 255);">
<rect width="100" height="100"/>
</g></g><g transform="translate(154,133) scale(0.014,0.014)"><g transform="" style="fill: rgb(255, 255, 255);">
<g>
	<path d="M500,0H0v500C276.142,500,500,276.142,500,0z"/>
</g>
</g></g><g transform="translate(168,133) scale(0.07,0.07)"><g transform="" style="fill: rgb(255, 255, 255);">
<rect width="100" height="100"/>
</g></g><g transform="translate(189,133) scale(0.014,0.014)"><g transform="" style="fill: rgb(255, 255, 255);">
<path d="M250,0c138.077,0,250,111.93,250,250c0,138.077-111.923,250-250,250C111.93,500,0,388.077,0,250C0,111.93,111.93,0,250,0z"
	/>
</g></g><g transform="translate(28,140) scale(0.07,0.07)"><g transform="" style="fill: rgb(255, 255, 255);">
<rect width="100" height="100"/>
</g></g><g transform="translate(35,140) scale(0.07,0.07)"><g transform="" style="fill: rgb(255, 255, 255);">
<rect width="100" height="100"/>
</g></g><g transform="translate(42,140) scale(0.07,0.07)"><g transform="" style="fill: rgb(255, 255, 255);">
<rect width="100" height="100"/>
</g></g><g transform="translate(49,140) scale(0.014,0.014)"><g transform="" style="fill: rgb(255, 255, 255);">
<path d="M250,500c-58.271,0-250,0-250,0s0-170.207,0-250C0,187.676,0,0,0,0s174.261,0,250,0c138.064,0,250,111.929,250,250
	C500,388.064,388.064,500,250,500z"/>
</g></g><g transform="translate(70,140) scale(0.014,0.014)"><g transform="" style="fill: rgb(255, 255, 255);">
<path d="M500,250c0,58.266,0,250,0,250s-170.194,0-250-0.012c-62.324,0.012-250,0-250,0s0-174.241,0-249.994
	C0.006,111.931,111.929,0,249.994,0C388.064,0,500,111.93,500,250z"/>
</g></g><g transform="translate(112,140) scale(0.014,0.014)"><g transform="" style="fill: rgb(255, 255, 255);">
<g>
	<path d="M0,500h500V0C223.861,0.001,0,223.854,0,500z"/>
</g>
</g></g><g transform="translate(119,140) scale(0.07,0.07)"><g transform="" style="fill: rgb(255, 255, 255);">
<rect width="100" height="100"/>
</g></g><g transform="translate(126,140) scale(0.07,0.07)"><g transform="" style="fill: rgb(255, 255, 255);">
<rect width="100" height="100"/>
</g></g><g transform="translate(133,140) scale(0.014,0.014)"><g transform="" style="fill: rgb(255, 255, 255);">
<g>
	<path d="M0,0v500h500C500,223.853,276.142,0,0,0z"/>
</g>
</g></g><g transform="translate(147,140) scale(0.07,0.07)"><g transform="" style="fill: rgb(255, 255, 255);">
<rect width="100" height="100"/>
</g></g><g transform="translate(161,140) scale(0.014,0.014)"><g transform="" style="fill: rgb(255, 255, 255);">
<path d="M250,0c58.27,0,250,0,250,0s0,170.182,0,250c0,62.305,0,250,0,250s-174.219,0-250,0
	C111.881,500,0,388.021,0,250C0,111.963,111.881,0,250,0z"/>
</g></g><g transform="translate(168,140) scale(0.07,0.07)"><g transform="" style="fill: rgb(255, 255, 255);">
<rect width="100" height="100"/>
</g></g><g transform="translate(175,140) scale(0.014,0.014)"><g transform="" style="fill: rgb(255, 255, 255);">
<g>
	<path d="M0,0v500h500C500,223.853,276.142,0,0,0z"/>
</g>
</g></g><g transform="translate(217,140) scale(0.014,0.014)"><g transform="" style="fill: rgb(255, 255, 255);">
<g>
	<path d="M0,500h500V0C223.861,0.001,0,223.854,0,500z"/>
</g>
</g></g><g transform="translate(224,140) scale(0.014,0.014)"><g transform="" style="fill: rgb(255, 255, 255);">
<g>
	<path d="M0,0v500h500C500,223.853,276.142,0,0,0z"/>
</g>
</g></g><g transform="translate(21,147) scale(0.014,0.014)"><g transform="" style="fill: rgb(255, 255, 255);">
<path d="M250,0c58.27,0,250,0,250,0s0,170.182,0,250c0,62.305,0,250,0,250s-174.219,0-250,0
	C111.881,500,0,388.021,0,250C0,111.963,111.881,0,250,0z"/>
</g></g><g transform="translate(28,147) scale(0.07,0.07)"><g transform="" style="fill: rgb(255, 255, 255);">
<rect width="100" height="100"/>
</g></g><g transform="translate(35,147) scale(0.014,0.014)"><g transform="" style="fill: rgb(255, 255, 255);">
<g>
	<path d="M500,0H0v500C276.142,500,500,276.142,500,0z"/>
</g>
</g></g><g transform="translate(56,147) scale(0.014,0.014)"><g transform="" style="fill: rgb(255, 255, 255);">
<path d="M250,0c58.27,0,250,0,250,0s0,170.182,0,250c0,62.305,0,250,0,250s-174.219,0-250,0
	C111.881,500,0,388.021,0,250C0,111.963,111.881,0,250,0z"/>
</g></g><g transform="translate(63,147) scale(0.07,0.07)"><g transform="" style="fill: rgb(255, 255, 255);">
<rect width="100" height="100"/>
</g></g><g transform="translate(70,147) scale(0.014,0.014)"><g transform="" style="fill: rgb(255, 255, 255);">
<g>
	<path d="M500,0H0v500C276.142,500,500,276.142,500,0z"/>
</g>
</g></g><g transform="translate(84,147) scale(0.014,0.014)"><g transform="" style="fill: rgb(255, 255, 255);">
<path d="M500,250c0,58.266,0,250,0,250s-170.194,0-250-0.012c-62.324,0.012-250,0-250,0s0-174.241,0-249.994
	C0.006,111.931,111.929,0,249.994,0C388.064,0,500,111.93,500,250z"/>
</g></g><g transform="translate(105,147) scale(0.014,0.014)"><g transform="" style="fill: rgb(255, 255, 255);">
<g>
	<path d="M0,500h500V0C223.861,0.001,0,223.854,0,500z"/>
</g>
</g></g><g transform="translate(112,147) scale(0.014,0.014)"><g transform="" style="fill: rgb(255, 255, 255);">
<g>
	<path d="M500,0H0v500C276.142,500,500,276.142,500,0z"/>
</g>
</g></g><g transform="translate(126,147) scale(0.014,0.014)"><g transform="" style="fill: rgb(255, 255, 255);">
<g>
	<path d="M500,500V0H0C0.001,276.142,223.853,500,500,500z"/>
</g>
</g></g><g transform="translate(133,147) scale(0.07,0.07)"><g transform="" style="fill: rgb(255, 255, 255);">
<rect width="100" height="100"/>
</g></g><g transform="translate(140,147) scale(0.07,0.07)"><g transform="" style="fill: rgb(255, 255, 255);">
<rect width="100" height="100"/>
</g></g><g transform="translate(147,147) scale(0.014,0.014)"><g transform="" style="fill: rgb(255, 255, 255);">
<g>
	<path d="M500,0H0v500C276.142,500,500,276.142,500,0z"/>
</g>
</g></g><g transform="translate(168,147) scale(0.07,0.07)"><g transform="" style="fill: rgb(255, 255, 255);">
<rect width="100" height="100"/>
</g></g><g transform="translate(175,147) scale(0.07,0.07)"><g transform="" style="fill: rgb(255, 255, 255);">
<rect width="100" height="100"/>
</g></g><g transform="translate(182,147) scale(0.014,0.014)"><g transform="" style="fill: rgb(255, 255, 255);">
<path d="M250,500c-58.271,0-250,0-250,0s0-170.207,0-250C0,187.676,0,0,0,0s174.261,0,250,0c138.064,0,250,111.929,250,250
	C500,388.064,388.064,500,250,500z"/>
</g></g><g transform="translate(203,147) scale(0.014,0.014)"><g transform="" style="fill: rgb(255, 255, 255);">
<path d="M250,0c138.077,0,250,111.93,250,250c0,138.077-111.923,250-250,250C111.93,500,0,388.077,0,250C0,111.93,111.93,0,250,0z"
	/>
</g></g><g transform="translate(217,147) scale(0.014,0.014)"><g transform="" style="fill: rgb(255, 255, 255);">
<g>
	<path d="M500,500V0H0C0.001,276.142,223.853,500,500,500z"/>
</g>
</g></g><g transform="translate(224,147) scale(0.07,0.07)"><g transform="" style="fill: rgb(255, 255, 255);">
<rect width="100" height="100"/>
</g></g><g transform="translate(0,154) scale(0.014,0.014)"><g transform="" style="fill: rgb(255, 255, 255);">
<path d="M250,0c58.27,0,250,0,250,0s0,170.182,0,250c0,62.305,0,250,0,250s-174.219,0-250,0
	C111.881,500,0,388.021,0,250C0,111.963,111.881,0,250,0z"/>
</g></g><g transform="translate(7,154) scale(0.07,0.07)"><g transform="" style="fill: rgb(255, 255, 255);">
<rect width="100" height="100"/>
</g></g><g transform="translate(14,154) scale(0.014,0.014)"><g transform="" style="fill: rgb(255, 255, 255);">
<path d="M250,500c-58.271,0-250,0-250,0s0-170.207,0-250C0,187.676,0,0,0,0s174.261,0,250,0c138.064,0,250,111.929,250,250
	C500,388.064,388.064,500,250,500z"/>
</g></g><g transform="translate(28,154) scale(0.014,0.014)"><g transform="" style="fill: rgb(255, 255, 255);">
<path d="M0,250C0,191.729,0,0,0,0s170.201,0,250,0c62.324,0,250,0,250,0s0,174.261,0,250c0,138.064-111.936,250-250,250
	C111.929,500,0,388.064,0,250z"/>
</g></g><g transform="translate(42,154) scale(0.014,0.014)"><g transform="" style="fill: rgb(255, 255, 255);">
<path d="M250,0c138.077,0,250,111.93,250,250c0,138.077-111.923,250-250,250C111.93,500,0,388.077,0,250C0,111.93,111.93,0,250,0z"
	/>
</g></g><g transform="translate(63,154) scale(0.014,0.014)"><g transform="" style="fill: rgb(255, 255, 255);">
<path d="M0,250C0,191.729,0,0,0,0s170.201,0,250,0c62.324,0,250,0,250,0s0,174.261,0,250c0,138.064-111.936,250-250,250
	C111.929,500,0,388.064,0,250z"/>
</g></g><g transform="translate(84,154) scale(0.07,0.07)"><g transform="" style="fill: rgb(255, 255, 255);">
<rect width="100" height="100"/>
</g></g><g transform="translate(91,154) scale(0.014,0.014)"><g transform="" style="fill: rgb(255, 255, 255);">
<g>
	<path d="M0,0v500h500C500,223.853,276.142,0,0,0z"/>
</g>
</g></g><g transform="translate(105,154) scale(0.014,0.014)"><g transform="" style="fill: rgb(255, 255, 255);">
<path d="M0,250C0,191.729,0,0,0,0s170.201,0,250,0c62.324,0,250,0,250,0s0,174.261,0,250c0,138.064-111.936,250-250,250
	C111.929,500,0,388.064,0,250z"/>
</g></g><g transform="translate(119,154) scale(0.014,0.014)"><g transform="" style="fill: rgb(255, 255, 255);">
<path d="M250,0c138.077,0,250,111.93,250,250c0,138.077-111.923,250-250,250C111.93,500,0,388.077,0,250C0,111.93,111.93,0,250,0z"
	/>
</g></g><g transform="translate(140,154) scale(0.014,0.014)"><g transform="" style="fill: rgb(255, 255, 255);">
<path d="M0,250C0,191.729,0,0,0,0s170.201,0,250,0c62.324,0,250,0,250,0s0,174.261,0,250c0,138.064-111.936,250-250,250
	C111.929,500,0,388.064,0,250z"/>
</g></g><g transform="translate(154,154) scale(0.014,0.014)"><g transform="" style="fill: rgb(255, 255, 255);">
<path d="M500,250c0,58.266,0,250,0,250s-170.194,0-250-0.012c-62.324,0.012-250,0-250,0s0-174.241,0-249.994
	C0.006,111.931,111.929,0,249.994,0C388.064,0,500,111.93,500,250z"/>
</g></g><g transform="translate(168,154) scale(0.07,0.07)"><g transform="" style="fill: rgb(255, 255, 255);">
<rect width="100" height="100"/>
</g></g><g transform="translate(175,154) scale(0.014,0.014)"><g transform="" style="fill: rgb(255, 255, 255);">
<g>
	<path d="M500,0H0v500C276.142,500,500,276.142,500,0z"/>
</g>
</g></g><g transform="translate(189,154) scale(0.014,0.014)"><g transform="" style="fill: rgb(255, 255, 255);">
<path d="M250,0c58.27,0,250,0,250,0s0,170.182,0,250c0,62.305,0,250,0,250s-174.219,0-250,0
	C111.881,500,0,388.021,0,250C0,111.963,111.881,0,250,0z"/>
</g></g><g transform="translate(196,154) scale(0.014,0.014)"><g transform="" style="fill: rgb(255, 255, 255);">
<g>
	<path d="M0,0v500h500C500,223.853,276.142,0,0,0z"/>
</g>
</g></g><g transform="translate(210,154) scale(0.014,0.014)"><g transform="" style="fill: rgb(255, 255, 255);">
<path d="M250,0c138.077,0,250,111.93,250,250c0,138.077-111.923,250-250,250C111.93,500,0,388.077,0,250C0,111.93,111.93,0,250,0z"
	/>
</g></g><g transform="translate(224,154) scale(0.07,0.07)"><g transform="" style="fill: rgb(255, 255, 255);">
<rect width="100" height="100"/>
</g></g><g transform="translate(7,161) scale(0.014,0.014)"><g transform="" style="fill: rgb(255, 255, 255);">
<path d="M0,250C0,191.729,0,0,0,0s170.201,0,250,0c62.324,0,250,0,250,0s0,174.261,0,250c0,138.064-111.936,250-250,250
	C111.929,500,0,388.064,0,250z"/>
</g></g><g transform="translate(35,161) scale(0.014,0.014)"><g transform="" style="fill: rgb(255, 255, 255);">
<path d="M500,250c0,58.266,0,250,0,250s-170.194,0-250-0.012c-62.324,0.012-250,0-250,0s0-174.241,0-249.994
	C0.006,111.931,111.929,0,249.994,0C388.064,0,500,111.93,500,250z"/>
</g></g><g transform="translate(77,161) scale(0.014,0.014)"><g transform="" style="fill: rgb(255, 255, 255);">
<path d="M250,0c58.27,0,250,0,250,0s0,170.182,0,250c0,62.305,0,250,0,250s-174.219,0-250,0
	C111.881,500,0,388.021,0,250C0,111.963,111.881,0,250,0z"/>
</g></g><g transform="translate(84,161) scale(0.07,0.07)"><g transform="" style="fill: rgb(255, 255, 255);">
<rect width="100" height="100"/>
</g></g><g transform="translate(91,161) scale(0.014,0.014)"><g transform="" style="fill: rgb(255, 255, 255);">
<g>
	<path d="M500,0H0v500C276.142,500,500,276.142,500,0z"/>
</g>
</g></g><g transform="translate(112,161) scale(0.014,0.014)"><g transform="" style="fill: rgb(255, 255, 255);">
<path d="M250,0c138.077,0,250,111.93,250,250c0,138.077-111.923,250-250,250C111.93,500,0,388.077,0,250C0,111.93,111.93,0,250,0z"
	/>
</g></g><g transform="translate(147,161) scale(0.014,0.014)"><g transform="" style="fill: rgb(255, 255, 255);">
<g>
	<path d="M0,500h500V0C223.861,0.001,0,223.854,0,500z"/>
</g>
</g></g><g transform="translate(154,161) scale(0.07,0.07)"><g transform="" style="fill: rgb(255, 255, 255);">
<rect width="100" height="100"/>
</g></g><g transform="translate(161,161) scale(0.07,0.07)"><g transform="" style="fill: rgb(255, 255, 255);">
<rect width="100" height="100"/>
</g></g><g transform="translate(168,161) scale(0.07,0.07)"><g transform="" style="fill: rgb(255, 255, 255);">
<rect width="100" height="100"/>
</g></g><g transform="translate(182,161) scale(0.014,0.014)"><g transform="" style="fill: rgb(255, 255, 255);">
<path d="M500,250c0,58.266,0,250,0,250s-170.194,0-250-0.012c-62.324,0.012-250,0-250,0s0-174.241,0-249.994
	C0.006,111.931,111.929,0,249.994,0C388.064,0,500,111.93,500,250z"/>
</g></g><g transform="translate(196,161) scale(0.07,0.07)"><g transform="" style="fill: rgb(255, 255, 255);">
<rect width="100" height="100"/>
</g></g><g transform="translate(203,161) scale(0.014,0.014)"><g transform="" style="fill: rgb(255, 255, 255);">
<g>
	<path d="M0,0v500h500C500,223.853,276.142,0,0,0z"/>
</g>
</g></g><g transform="translate(224,161) scale(0.07,0.07)"><g transform="" style="fill: rgb(255, 255, 255);">
<rect width="100" height="100"/>
</g></g><g transform="translate(0,168) scale(0.014,0.014)"><g transform="" style="fill: rgb(255, 255, 255);">
<path d="M250,0c138.077,0,250,111.93,250,250c0,138.077-111.923,250-250,250C111.93,500,0,388.077,0,250C0,111.93,111.93,0,250,0z"
	/>
</g></g><g transform="translate(21,168) scale(0.014,0.014)"><g transform="" style="fill: rgb(255, 255, 255);">
<path d="M250,0c58.27,0,250,0,250,0s0,170.182,0,250c0,62.305,0,250,0,250s-174.219,0-250,0
	C111.881,500,0,388.021,0,250C0,111.963,111.881,0,250,0z"/>
</g></g><g transform="translate(28,168) scale(0.07,0.07)"><g transform="" style="fill: rgb(255, 255, 255);">
<rect width="100" height="100"/>
</g></g><g transform="translate(35,168) scale(0.07,0.07)"><g transform="" style="fill: rgb(255, 255, 255);">
<rect width="100" height="100"/>
</g></g><g transform="translate(42,168) scale(0.014,0.014)"><g transform="" style="fill: rgb(255, 255, 255);">
<path d="M250,500c-58.271,0-250,0-250,0s0-170.207,0-250C0,187.676,0,0,0,0s174.261,0,250,0c138.064,0,250,111.929,250,250
	C500,388.064,388.064,500,250,500z"/>
</g></g><g transform="translate(63,168) scale(0.014,0.014)"><g transform="" style="fill: rgb(255, 255, 255);">
<g>
	<path d="M0,500h500V0C223.861,0.001,0,223.854,0,500z"/>
</g>
</g></g><g transform="translate(70,168) scale(0.014,0.014)"><g transform="" style="fill: rgb(255, 255, 255);">
<g>
	<path d="M0,0v500h500C500,223.853,276.142,0,0,0z"/>
</g>
</g></g><g transform="translate(98,168) scale(0.014,0.014)"><g transform="" style="fill: rgb(255, 255, 255);">
<path d="M250,0c58.27,0,250,0,250,0s0,170.182,0,250c0,62.305,0,250,0,250s-174.219,0-250,0
	C111.881,500,0,388.021,0,250C0,111.963,111.881,0,250,0z"/>
</g></g><g transform="translate(105,168) scale(0.014,0.014)"><g transform="" style="fill: rgb(255, 255, 255);">
<path d="M250,500c-58.271,0-250,0-250,0s0-170.207,0-250C0,187.676,0,0,0,0s174.261,0,250,0c138.064,0,250,111.929,250,250
	C500,388.064,388.064,500,250,500z"/>
</g></g><g transform="translate(119,168) scale(0.014,0.014)"><g transform="" style="fill: rgb(255, 255, 255);">
<path d="M250,0c138.077,0,250,111.93,250,250c0,138.077-111.923,250-250,250C111.93,500,0,388.077,0,250C0,111.93,111.93,0,250,0z"
	/>
</g></g><g transform="translate(133,168) scale(0.014,0.014)"><g transform="" style="fill: rgb(255, 255, 255);">
<g>
	<path d="M0,500h500V0C223.861,0.001,0,223.854,0,500z"/>
</g>
</g></g><g transform="translate(140,168) scale(0.07,0.07)"><g transform="" style="fill: rgb(255, 255, 255);">
<rect width="100" height="100"/>
</g></g><g transform="translate(147,168) scale(0.07,0.07)"><g transform="" style="fill: rgb(255, 255, 255);">
<rect width="100" height="100"/>
</g></g><g transform="translate(161,168) scale(0.07,0.07)"><g transform="" style="fill: rgb(255, 255, 255);">
<rect width="100" height="100"/>
</g></g><g transform="translate(168,168) scale(0.07,0.07)"><g transform="" style="fill: rgb(255, 255, 255);">
<rect width="100" height="100"/>
</g></g><g transform="translate(175,168) scale(0.07,0.07)"><g transform="" style="fill: rgb(255, 255, 255);">
<rect width="100" height="100"/>
</g></g><g transform="translate(182,168) scale(0.07,0.07)"><g transform="" style="fill: rgb(255, 255, 255);">
<rect width="100" height="100"/>
</g></g><g transform="translate(189,168) scale(0.07,0.07)"><g transform="" style="fill: rgb(255, 255, 255);">
<rect width="100" height="100"/>
</g></g><g transform="translate(196,168) scale(0.07,0.07)"><g transform="" style="fill: rgb(255, 255, 255);">
<rect width="100" height="100"/>
</g></g><g transform="translate(203,168) scale(0.07,0.07)"><g transform="" style="fill: rgb(255, 255, 255);">
<rect width="100" height="100"/>
</g></g><g transform="translate(224,168) scale(0.07,0.07)"><g transform="" style="fill: rgb(255, 255, 255);">
<rect width="100" height="100"/>
</g></g><g transform="translate(56,175) scale(0.014,0.014)"><g transform="" style="fill: rgb(255, 255, 255);">
<path d="M250,0c58.27,0,250,0,250,0s0,170.182,0,250c0,62.305,0,250,0,250s-174.219,0-250,0
	C111.881,500,0,388.021,0,250C0,111.963,111.881,0,250,0z"/>
</g></g><g transform="translate(63,175) scale(0.07,0.07)"><g transform="" style="fill: rgb(255, 255, 255);">
<rect width="100" height="100"/>
</g></g><g transform="translate(70,175) scale(0.07,0.07)"><g transform="" style="fill: rgb(255, 255, 255);">
<rect width="100" height="100"/>
</g></g><g transform="translate(84,175) scale(0.014,0.014)"><g transform="" style="fill: rgb(255, 255, 255);">
<path d="M250,0c58.27,0,250,0,250,0s0,170.182,0,250c0,62.305,0,250,0,250s-174.219,0-250,0
	C111.881,500,0,388.021,0,250C0,111.963,111.881,0,250,0z"/>
</g></g><g transform="translate(91,175) scale(0.014,0.014)"><g transform="" style="fill: rgb(255, 255, 255);">
<path d="M250,500c-58.271,0-250,0-250,0s0-170.207,0-250C0,187.676,0,0,0,0s174.261,0,250,0c138.064,0,250,111.929,250,250
	C500,388.064,388.064,500,250,500z"/>
</g></g><g transform="translate(133,175) scale(0.014,0.014)"><g transform="" style="fill: rgb(255, 255, 255);">
<path d="M0,250C0,191.729,0,0,0,0s170.201,0,250,0c62.324,0,250,0,250,0s0,174.261,0,250c0,138.064-111.936,250-250,250
	C111.929,500,0,388.064,0,250z"/>
</g></g><g transform="translate(147,175) scale(0.014,0.014)"><g transform="" style="fill: rgb(255, 255, 255);">
<path d="M0,250C0,191.729,0,0,0,0s170.201,0,250,0c62.324,0,250,0,250,0s0,174.261,0,250c0,138.064-111.936,250-250,250
	C111.929,500,0,388.064,0,250z"/>
</g></g><g transform="translate(161,175) scale(0.014,0.014)"><g transform="" style="fill: rgb(255, 255, 255);">
<g>
	<path d="M500,500V0H0C0.001,276.142,223.853,500,500,500z"/>
</g>
</g></g><g transform="translate(168,175) scale(0.07,0.07)"><g transform="" style="fill: rgb(255, 255, 255);">
<rect width="100" height="100"/>
</g></g><g transform="translate(196,175) scale(0.07,0.07)"><g transform="" style="fill: rgb(255, 255, 255);">
<rect width="100" height="100"/>
</g></g><g transform="translate(203,175) scale(0.07,0.07)"><g transform="" style="fill: rgb(255, 255, 255);">
<rect width="100" height="100"/>
</g></g><g transform="translate(224,175) scale(0.014,0.014)"><g transform="" style="fill: rgb(255, 255, 255);">
<path d="M0,250C0,191.729,0,0,0,0s170.201,0,250,0c62.324,0,250,0,250,0s0,174.261,0,250c0,138.064-111.936,250-250,250
	C111.929,500,0,388.064,0,250z"/>
</g></g><g transform="translate(70,182) scale(0.07,0.07)"><g transform="" style="fill: rgb(255, 255, 255);">
<rect width="100" height="100"/>
</g></g><g transform="translate(112,182) scale(0.014,0.014)"><g transform="" style="fill: rgb(255, 255, 255);">
<path d="M500,250c0,58.266,0,250,0,250s-170.194,0-250-0.012c-62.324,0.012-250,0-250,0s0-174.241,0-249.994
	C0.006,111.931,111.929,0,249.994,0C388.064,0,500,111.93,500,250z"/>
</g></g><g transform="translate(140,182) scale(0.014,0.014)"><g transform="" style="fill: rgb(255, 255, 255);">
<path d="M500,250c0,58.266,0,250,0,250s-170.194,0-250-0.012c-62.324,0.012-250,0-250,0s0-174.241,0-249.994
	C0.006,111.931,111.929,0,249.994,0C388.064,0,500,111.93,500,250z"/>
</g></g><g transform="translate(168,182) scale(0.07,0.07)"><g transform="" style="fill: rgb(255, 255, 255);">
<rect width="100" height="100"/>
</g></g><g transform="translate(182,182) scale(0.014,0.014)"><g transform="" style="fill: rgb(255, 255, 255);">
<path d="M250,0c138.077,0,250,111.93,250,250c0,138.077-111.923,250-250,250C111.93,500,0,388.077,0,250C0,111.93,111.93,0,250,0z"
	/>
</g></g><g transform="translate(196,182) scale(0.07,0.07)"><g transform="" style="fill: rgb(255, 255, 255);">
<rect width="100" height="100"/>
</g></g><g transform="translate(203,182) scale(0.07,0.07)"><g transform="" style="fill: rgb(255, 255, 255);">
<rect width="100" height="100"/>
</g></g><g transform="translate(210,182) scale(0.07,0.07)"><g transform="" style="fill: rgb(255, 255, 255);">
<rect width="100" height="100"/>
</g></g><g transform="translate(217,182) scale(0.014,0.014)"><g transform="" style="fill: rgb(255, 255, 255);">
<path d="M250,500c-58.271,0-250,0-250,0s0-170.207,0-250C0,187.676,0,0,0,0s174.261,0,250,0c138.064,0,250,111.929,250,250
	C500,388.064,388.064,500,250,500z"/>
</g></g><g transform="translate(56,189) scale(0.014,0.014)"><g transform="" style="fill: rgb(255, 255, 255);">
<path d="M250,0c138.077,0,250,111.93,250,250c0,138.077-111.923,250-250,250C111.93,500,0,388.077,0,250C0,111.93,111.93,0,250,0z"
	/>
</g></g><g transform="translate(70,189) scale(0.014,0.014)"><g transform="" style="fill: rgb(255, 255, 255);">
<g>
	<path d="M500,500V0H0C0.001,276.142,223.853,500,500,500z"/>
</g>
</g></g><g transform="translate(77,189) scale(0.014,0.014)"><g transform="" style="fill: rgb(255, 255, 255);">
<path d="M250,500c-58.271,0-250,0-250,0s0-170.207,0-250C0,187.676,0,0,0,0s174.261,0,250,0c138.064,0,250,111.929,250,250
	C500,388.064,388.064,500,250,500z"/>
</g></g><g transform="translate(91,189) scale(0.014,0.014)"><g transform="" style="fill: rgb(255, 255, 255);">
<path d="M500,250c0,58.266,0,250,0,250s-170.194,0-250-0.012c-62.324,0.012-250,0-250,0s0-174.241,0-249.994
	C0.006,111.931,111.929,0,249.994,0C388.064,0,500,111.93,500,250z"/>
</g></g><g transform="translate(112,189) scale(0.07,0.07)"><g transform="" style="fill: rgb(255, 255, 255);">
<rect width="100" height="100"/>
</g></g><g transform="translate(133,189) scale(0.014,0.014)"><g transform="" style="fill: rgb(255, 255, 255);">
<path d="M250,0c58.27,0,250,0,250,0s0,170.182,0,250c0,62.305,0,250,0,250s-174.219,0-250,0
	C111.881,500,0,388.021,0,250C0,111.963,111.881,0,250,0z"/>
</g></g><g transform="translate(140,189) scale(0.07,0.07)"><g transform="" style="fill: rgb(255, 255, 255);">
<rect width="100" height="100"/>
</g></g><g transform="translate(147,189) scale(0.07,0.07)"><g transform="" style="fill: rgb(255, 255, 255);">
<rect width="100" height="100"/>
</g></g><g transform="translate(154,189) scale(0.014,0.014)"><g transform="" style="fill: rgb(255, 255, 255);">
<g>
	<path d="M0,0v500h500C500,223.853,276.142,0,0,0z"/>
</g>
</g></g><g transform="translate(168,189) scale(0.07,0.07)"><g transform="" style="fill: rgb(255, 255, 255);">
<rect width="100" height="100"/>
</g></g><g transform="translate(196,189) scale(0.07,0.07)"><g transform="" style="fill: rgb(255, 255, 255);">
<rect width="100" height="100"/>
</g></g><g transform="translate(63,196) scale(0.014,0.014)"><g transform="" style="fill: rgb(255, 255, 255);">
<path d="M500,250c0,58.266,0,250,0,250s-170.194,0-250-0.012c-62.324,0.012-250,0-250,0s0-174.241,0-249.994
	C0.006,111.931,111.929,0,249.994,0C388.064,0,500,111.93,500,250z"/>
</g></g><g transform="translate(91,196) scale(0.014,0.014)"><g transform="" style="fill: rgb(255, 255, 255);">
<g>
	<path d="M500,500V0H0C0.001,276.142,223.853,500,500,500z"/>
</g>
</g></g><g transform="translate(98,196) scale(0.07,0.07)"><g transform="" style="fill: rgb(255, 255, 255);">
<rect width="100" height="100"/>
</g></g><g transform="translate(105,196) scale(0.07,0.07)"><g transform="" style="fill: rgb(255, 255, 255);">
<rect width="100" height="100"/>
</g></g><g transform="translate(112,196) scale(0.014,0.014)"><g transform="" style="fill: rgb(255, 255, 255);">
<g>
	<path d="M500,0H0v500C276.142,500,500,276.142,500,0z"/>
</g>
</g></g><g transform="translate(140,196) scale(0.07,0.07)"><g transform="" style="fill: rgb(255, 255, 255);">
<rect width="100" height="100"/>
</g></g><g transform="translate(147,196) scale(0.07,0.07)"><g transform="" style="fill: rgb(255, 255, 255);">
<rect width="100" height="100"/>
</g></g><g transform="translate(154,196) scale(0.014,0.014)"><g transform="" style="fill: rgb(255, 255, 255);">
<g>
	<path d="M500,0H0v500C276.142,500,500,276.142,500,0z"/>
</g>
</g></g><g transform="translate(168,196) scale(0.07,0.07)"><g transform="" style="fill: rgb(255, 255, 255);">
<rect width="100" height="100"/>
</g></g><g transform="translate(175,196) scale(0.07,0.07)"><g transform="" style="fill: rgb(255, 255, 255);">
<rect width="100" height="100"/>
</g></g><g transform="translate(182,196) scale(0.07,0.07)"><g transform="" style="fill: rgb(255, 255, 255);">
<rect width="100" height="100"/>
</g></g><g transform="translate(189,196) scale(0.07,0.07)"><g transform="" style="fill: rgb(255, 255, 255);">
<rect width="100" height="100"/>
</g></g><g transform="translate(196,196) scale(0.07,0.07)"><g transform="" style="fill: rgb(255, 255, 255);">
<rect width="100" height="100"/>
</g></g><g transform="translate(203,196) scale(0.014,0.014)"><g transform="" style="fill: rgb(255, 255, 255);">
<path d="M250,500c-58.271,0-250,0-250,0s0-170.207,0-250C0,187.676,0,0,0,0s174.261,0,250,0c138.064,0,250,111.929,250,250
	C500,388.064,388.064,500,250,500z"/>
</g></g><g transform="translate(224,196) scale(0.014,0.014)"><g transform="" style="fill: rgb(255, 255, 255);">
<path d="M250,0c138.077,0,250,111.93,250,250c0,138.077-111.923,250-250,250C111.93,500,0,388.077,0,250C0,111.93,111.93,0,250,0z"
	/>
</g></g><g transform="translate(56,203) scale(0.014,0.014)"><g transform="" style="fill: rgb(255, 255, 255);">
<path d="M250,0c58.27,0,250,0,250,0s0,170.182,0,250c0,62.305,0,250,0,250s-174.219,0-250,0
	C111.881,500,0,388.021,0,250C0,111.963,111.881,0,250,0z"/>
</g></g><g transform="translate(63,203) scale(0.07,0.07)"><g transform="" style="fill: rgb(255, 255, 255);">
<rect width="100" height="100"/>
</g></g><g transform="translate(70,203) scale(0.014,0.014)"><g transform="" style="fill: rgb(255, 255, 255);">
<g>
	<path d="M0,0v500h500C500,223.853,276.142,0,0,0z"/>
</g>
</g></g><g transform="translate(105,203) scale(0.014,0.014)"><g transform="" style="fill: rgb(255, 255, 255);">
<path d="M0,250C0,191.729,0,0,0,0s170.201,0,250,0c62.324,0,250,0,250,0s0,174.261,0,250c0,138.064-111.936,250-250,250
	C111.929,500,0,388.064,0,250z"/>
</g></g><g transform="translate(133,203) scale(0.014,0.014)"><g transform="" style="fill: rgb(255, 255, 255);">
<path d="M250,0c58.27,0,250,0,250,0s0,170.182,0,250c0,62.305,0,250,0,250s-174.219,0-250,0
	C111.881,500,0,388.021,0,250C0,111.963,111.881,0,250,0z"/>
</g></g><g transform="translate(140,203) scale(0.07,0.07)"><g transform="" style="fill: rgb(255, 255, 255);">
<rect width="100" height="100"/>
</g></g><g transform="translate(147,203) scale(0.07,0.07)"><g transform="" style="fill: rgb(255, 255, 255);">
<rect width="100" height="100"/>
</g></g><g transform="translate(168,203) scale(0.014,0.014)"><g transform="" style="fill: rgb(255, 255, 255);">
<path d="M0,250C0,191.729,0,0,0,0s170.201,0,250,0c62.324,0,250,0,250,0s0,174.261,0,250c0,138.064-111.936,250-250,250
	C111.929,500,0,388.064,0,250z"/>
</g></g><g transform="translate(182,203) scale(0.014,0.014)"><g transform="" style="fill: rgb(255, 255, 255);">
<path d="M0,250C0,191.729,0,0,0,0s170.201,0,250,0c62.324,0,250,0,250,0s0,174.261,0,250c0,138.064-111.936,250-250,250
	C111.929,500,0,388.064,0,250z"/>
</g></g><g transform="translate(196,203) scale(0.07,0.07)"><g transform="" style="fill: rgb(255, 255, 255);">
<rect width="100" height="100"/>
</g></g><g transform="translate(63,210) scale(0.014,0.014)"><g transform="" style="fill: rgb(255, 255, 255);">
<g>
	<path d="M500,500V0H0C0.001,276.142,223.853,500,500,500z"/>
</g>
</g></g><g transform="translate(70,210) scale(0.014,0.014)"><g transform="" style="fill: rgb(255, 255, 255);">
<g>
	<path d="M500,0H0v500C276.142,500,500,276.142,500,0z"/>
</g>
</g></g><g transform="translate(98,210) scale(0.014,0.014)"><g transform="" style="fill: rgb(255, 255, 255);">
<path d="M250,0c138.077,0,250,111.93,250,250c0,138.077-111.923,250-250,250C111.93,500,0,388.077,0,250C0,111.93,111.93,0,250,0z"
	/>
</g></g><g transform="translate(140,210) scale(0.07,0.07)"><g transform="" style="fill: rgb(255, 255, 255);">
<rect width="100" height="100"/>
</g></g><g transform="translate(147,210) scale(0.07,0.07)"><g transform="" style="fill: rgb(255, 255, 255);">
<rect width="100" height="100"/>
</g></g><g transform="translate(154,210) scale(0.07,0.07)"><g transform="" style="fill: rgb(255, 255, 255);">
<rect width="100" height="100"/>
</g></g><g transform="translate(161,210) scale(0.014,0.014)"><g transform="" style="fill: rgb(255, 255, 255);">
<g>
	<path d="M0,0v500h500C500,223.853,276.142,0,0,0z"/>
</g>
</g></g><g transform="translate(196,210) scale(0.014,0.014)"><g transform="" style="fill: rgb(255, 255, 255);">
<path d="M0,250C0,191.729,0,0,0,0s170.201,0,250,0c62.324,0,250,0,250,0s0,174.261,0,250c0,138.064-111.936,250-250,250
	C111.929,500,0,388.064,0,250z"/>
</g></g><g transform="translate(210,210) scale(0.014,0.014)"><g transform="" style="fill: rgb(255, 255, 255);">
<path d="M250,0c138.077,0,250,111.93,250,250c0,138.077-111.923,250-250,250C111.93,500,0,388.077,0,250C0,111.93,111.93,0,250,0z"
	/>
</g></g><g transform="translate(224,210) scale(0.014,0.014)"><g transform="" style="fill: rgb(255, 255, 255);">
<path d="M250,0c138.077,0,250,111.93,250,250c0,138.077-111.923,250-250,250C111.93,500,0,388.077,0,250C0,111.93,111.93,0,250,0z"
	/>
</g></g><g transform="translate(105,217) scale(0.014,0.014)"><g transform="" style="fill: rgb(255, 255, 255);">
<path d="M250,0c58.27,0,250,0,250,0s0,170.182,0,250c0,62.305,0,250,0,250s-174.219,0-250,0
	C111.881,500,0,388.021,0,250C0,111.963,111.881,0,250,0z"/>
</g></g><g transform="translate(112,217) scale(0.07,0.07)"><g transform="" style="fill: rgb(255, 255, 255);">
<rect width="100" height="100"/>
</g></g><g transform="translate(119,217) scale(0.07,0.07)"><g transform="" style="fill: rgb(255, 255, 255);">
<rect width="100" height="100"/>
</g></g><g transform="translate(126,217) scale(0.07,0.07)"><g transform="" style="fill: rgb(255, 255, 255);">
<rect width="100" height="100"/>
</g></g><g transform="translate(133,217) scale(0.07,0.07)"><g transform="" style="fill: rgb(255, 255, 255);">
<rect width="100" height="100"/>
</g></g><g transform="translate(140,217) scale(0.07,0.07)"><g transform="" style="fill: rgb(255, 255, 255);">
<rect width="100" height="100"/>
</g></g><g transform="translate(147,217) scale(0.07,0.07)"><g transform="" style="fill: rgb(255, 255, 255);">
<rect width="100" height="100"/>
</g></g><g transform="translate(154,217) scale(0.07,0.07)"><g transform="" style="fill: rgb(255, 255, 255);">
<rect width="100" height="100"/>
</g></g><g transform="translate(161,217) scale(0.07,0.07)"><g transform="" style="fill: rgb(255, 255, 255);">
<rect width="100" height="100"/>
</g></g><g transform="translate(168,217) scale(0.014,0.014)"><g transform="" style="fill: rgb(255, 255, 255);">
<g>
	<path d="M0,0v500h500C500,223.853,276.142,0,0,0z"/>
</g>
</g></g><g transform="translate(182,217) scale(0.014,0.014)"><g transform="" style="fill: rgb(255, 255, 255);">
<path d="M250,0c138.077,0,250,111.93,250,250c0,138.077-111.923,250-250,250C111.93,500,0,388.077,0,250C0,111.93,111.93,0,250,0z"
	/>
</g></g><g transform="translate(203,217) scale(0.014,0.014)"><g transform="" style="fill: rgb(255, 255, 255);">
<path d="M500,250c0,58.266,0,250,0,250s-170.194,0-250-0.012c-62.324,0.012-250,0-250,0s0-174.241,0-249.994
	C0.006,111.931,111.929,0,249.994,0C388.064,0,500,111.93,500,250z"/>
</g></g><g transform="translate(56,224) scale(0.014,0.014)"><g transform="" style="fill: rgb(255, 255, 255);">
<path d="M250,0c58.27,0,250,0,250,0s0,170.182,0,250c0,62.305,0,250,0,250s-174.219,0-250,0
	C111.881,500,0,388.021,0,250C0,111.963,111.881,0,250,0z"/>
</g></g><g transform="translate(63,224) scale(0.07,0.07)"><g transform="" style="fill: rgb(255, 255, 255);">
<rect width="100" height="100"/>
</g></g><g transform="translate(70,224) scale(0.014,0.014)"><g transform="" style="fill: rgb(255, 255, 255);">
<path d="M250,500c-58.271,0-250,0-250,0s0-170.207,0-250C0,187.676,0,0,0,0s174.261,0,250,0c138.064,0,250,111.929,250,250
	C500,388.064,388.064,500,250,500z"/>
</g></g><g transform="translate(84,224) scale(0.014,0.014)"><g transform="" style="fill: rgb(255, 255, 255);">
<path d="M250,0c138.077,0,250,111.93,250,250c0,138.077-111.923,250-250,250C111.93,500,0,388.077,0,250C0,111.93,111.93,0,250,0z"
	/>
</g></g><g transform="translate(98,224) scale(0.014,0.014)"><g transform="" style="fill: rgb(255, 255, 255);">
<path d="M250,0c138.077,0,250,111.93,250,250c0,138.077-111.923,250-250,250C111.93,500,0,388.077,0,250C0,111.93,111.93,0,250,0z"
	/>
</g></g><g transform="translate(112,224) scale(0.014,0.014)"><g transform="" style="fill: rgb(255, 255, 255);">
<path d="M0,250C0,191.729,0,0,0,0s170.201,0,250,0c62.324,0,250,0,250,0s0,174.261,0,250c0,138.064-111.936,250-250,250
	C111.929,500,0,388.064,0,250z"/>
</g></g><g transform="translate(126,224) scale(0.014,0.014)"><g transform="" style="fill: rgb(255, 255, 255);">
<g>
	<path d="M500,500V0H0C0.001,276.142,223.853,500,500,500z"/>
</g>
</g></g><g transform="translate(133,224) scale(0.014,0.014)"><g transform="" style="fill: rgb(255, 255, 255);">
<g>
	<path d="M500,0H0v500C276.142,500,500,276.142,500,0z"/>
</g>
</g></g><g transform="translate(147,224) scale(0.014,0.014)"><g transform="" style="fill: rgb(255, 255, 255);">
<path d="M0,250C0,191.729,0,0,0,0s170.201,0,250,0c62.324,0,250,0,250,0s0,174.261,0,250c0,138.064-111.936,250-250,250
	C111.929,500,0,388.064,0,250z"/>
</g></g><g transform="translate(168,224) scale(0.014,0.014)"><g transform="" style="fill: rgb(255, 255, 255);">
<g>
	<path d="M500,500V0H0C0.001,276.142,223.853,500,500,500z"/>
</g>
</g></g><g transform="translate(175,224) scale(0.014,0.014)"><g transform="" style="fill: rgb(255, 255, 255);">
<path d="M250,500c-58.271,0-250,0-250,0s0-170.207,0-250C0,187.676,0,0,0,0s174.261,0,250,0c138.064,0,250,111.929,250,250
	C500,388.064,388.064,500,250,500z"/>
</g></g><g transform="translate(196,224) scale(0.014,0.014)"><g transform="" style="fill: rgb(255, 255, 255);">
<path d="M250,0c58.27,0,250,0,250,0s0,170.182,0,250c0,62.305,0,250,0,250s-174.219,0-250,0
	C111.881,500,0,388.021,0,250C0,111.963,111.881,0,250,0z"/>
</g></g><g transform="translate(203,224) scale(0.014,0.014)"><g transform="" style="fill: rgb(255, 255, 255);">
<g>
	<path d="M500,0H0v500C276.142,500,500,276.142,500,0z"/>
</g>
</g></g><g transform="translate(217,224) scale(0.014,0.014)"><g transform="" style="fill: rgb(255, 255, 255);">
<path d="M250,0c138.077,0,250,111.93,250,250c0,138.077-111.923,250-250,250C111.93,500,0,388.077,0,250C0,111.93,111.93,0,250,0z"
	/>
</g></g><g transform="translate(0,0) scale(0.49, 0.49)"><g transform=" translate(100, 0) scale(-1,1) " style="fill: rgb(255, 255, 255);">
<g>
	<path style="fill:none;" d="M85,66.221V33.75C85,23.411,76.414,15,65.859,15H34.14C23.586,15,15,23.411,15,33.75v51.246
		l50.855-0.016C76.414,84.98,85,76.564,85,66.221z"/>
	<path d="M100,66.221V33.75C100,15.141,84.68,0,65.859,0H34.14C15.32,0,0,15.141,0,33.75V100l65.859-0.02
		C84.68,99.98,100,84.84,100,66.221z M85,66.221c0,10.344-8.586,18.76-19.145,18.76L15,84.996V33.75C15,23.411,23.586,15,34.14,15
		h31.719C76.414,15,85,23.411,85,33.75V66.221z"/>
</g>
</g></g><g transform="translate(182,0) scale(0.49, 0.49)"><g transform="" style="fill: rgb(255, 255, 255);">
<g>
	<path style="fill:none;" d="M85,66.221V33.75C85,23.411,76.414,15,65.859,15H34.14C23.586,15,15,23.411,15,33.75v51.246
		l50.855-0.016C76.414,84.98,85,76.564,85,66.221z"/>
	<path d="M100,66.221V33.75C100,15.141,84.68,0,65.859,0H34.14C15.32,0,0,15.141,0,33.75V100l65.859-0.02
		C84.68,99.98,100,84.84,100,66.221z M85,66.221c0,10.344-8.586,18.76-19.145,18.76L15,84.996V33.75C15,23.411,23.586,15,34.14,15
		h31.719C76.414,15,85,23.411,85,33.75V66.221z"/>
</g>
</g></g><g transform="translate(0,182) scale(0.49, 0.49)"><g transform=" translate(100, 0) scale(-1,1)  translate(0,100) scale(1,-1) " style="fill: rgb(255, 255, 255);">
<g>
	<path style="fill:none;" d="M85,66.221V33.75C85,23.411,76.414,15,65.859,15H34.14C23.586,15,15,23.411,15,33.75v51.246
		l50.855-0.016C76.414,84.98,85,76.564,85,66.221z"/>
	<path d="M100,66.221V33.75C100,15.141,84.68,0,65.859,0H34.14C15.32,0,0,15.141,0,33.75V100l65.859-0.02
		C84.68,99.98,100,84.84,100,66.221z M85,66.221c0,10.344-8.586,18.76-19.145,18.76L15,84.996V33.75C15,23.411,23.586,15,34.14,15
		h31.719C76.414,15,85,23.411,85,33.75V66.221z"/>
</g>
</g></g><g transform="translate(14,14) scale(0.21, 0.21)"><g transform=" translate(100, 0) scale(-1,1) " style="fill: rgb(255, 255, 255);">
<path d="M100,72.779V27.195C100,12.203,87.604,0,72.37,0H27.63C12.397,0,0,12.203,0,27.195V100l72.37-0.042
	C87.604,99.958,100,87.771,100,72.779z"/>
</g></g><g transform="translate(196,14) scale(0.21, 0.21)"><g transform="" style="fill: rgb(255, 255, 255);">
<path d="M100,72.779V27.195C100,12.203,87.604,0,72.37,0H27.63C12.397,0,0,12.203,0,27.195V100l72.37-0.042
	C87.604,99.958,100,87.771,100,72.779z"/>
</g></g><g transform="translate(14,196) scale(0.21, 0.21)"><g transform=" translate(100, 0) scale(-1,1)  translate(0,100) scale(1,-1) " style="fill: rgb(255, 255, 255);">
<path d="M100,72.779V27.195C100,12.203,87.604,0,72.37,0H27.63C12.397,0,0,12.203,0,27.195V100l72.37-0.042
	C87.604,99.958,100,87.771,100,72.779z"/>
</g></g></g></svg>