<?xml version="1.0" encoding="utf-8"?>
<!-- Uploaded to: SVG Repo, www.svgrepo.com, Generator: SVG Repo Mixer Tools -->
<svg width="800px" height="800px" viewBox="0 -7.89 113.08 113.08" xmlns="http://www.w3.org/2000/svg">

<defs>

<style>.cls-1{fill:#ffffff;}</style>

</defs>

<g id="Layer_2" data-name="Layer 2">

<g id="Layer_1-2" data-name="Layer 1">

<path d="M50.34,26.8c9.34-.24,18.69.89,28.08-.7C84.9,25,91.48,24.57,98,23.65a9.79,9.79,0,0,1,10.3,4.68c3.84,6.21,5.85,13,4.22,20.45a9.28,9.28,0,0,1-5.77,7,22,22,0,0,1-4.89,1.59C91.4,58.9,81.1,61.57,70.44,61.86c-3.66.1-7.29.91-11.37,1.45a59.24,59.24,0,0,0-.25,6.15c.32,5.14.92,10.26,1.14,15.4a27.31,27.31,0,0,1-.65,7.66c-1.15,4.63-5.2,6.11-9.3,3.49a74,74,0,0,1-8.31-6.08C29.53,79.51,17.18,69.33,3.84,60.4c-4.42-3-4.91-4.95-2.06-9.25,3.47-5.24,7.33-10.22,11-15.31,3.36-4.63,7.08-9,10-13.93,3.87-6.46,9.08-11.75,13.82-17.46A32.3,32.3,0,0,1,39.8,1.58C41.12.34,42.53-.51,44.4.35a4.59,4.59,0,0,1,2.79,4c.76,6.52,1.6,13,2.44,19.55C49.74,24.71,50,25.52,50.34,26.8ZM13,52.21A18.55,18.55,0,0,0,20.8,60.1c3.79,1.95,7.33,4.4,10.94,6.68C37,70.09,42.21,73.44,48.33,77.33c-.25-3-.44-5.18-.59-7.32-.21-3.12-.62-6.24-.52-9.35.08-2.79,1.83-5.33,4.35-5.83C57.7,53.6,63.13,50,69.66,50.14A68.86,68.86,0,0,0,82.43,48.8c6.4-1.11,12.9-1.88,19.16-4.08.08-3.44-.21-6.43-2.31-9.16-7.92.91-15.54,1.85-23.17,2.63-4,.41-8,.59-12,.79-5.69.28-11.39.39-17.07.76-4,.27-6.51-1.22-7.4-5.22-.75-3.34-1-6.78-1.66-10.14a23.79,23.79,0,0,0-1.25-3.65c-.87.23-1.25.21-1.37.38Q25.32,34.84,15.29,48.6C14.47,49.73,13.8,51,13,52.21Z"/>

<path class="cls-1" d="M13,52.21c.77-1.25,1.44-2.48,2.26-3.61q10-13.77,20.11-27.49c.12-.17.5-.15,1.37-.38A23.79,23.79,0,0,1,38,24.38c.62,3.36.91,6.8,1.66,10.14.89,4,3.41,5.49,7.4,5.22,5.68-.37,11.38-.48,17.07-.76,4-.2,8-.38,12-.79,7.63-.78,15.25-1.72,23.17-2.63,2.1,2.73,2.39,5.72,2.31,9.16-6.26,2.2-12.76,3-19.16,4.08a68.86,68.86,0,0,1-12.77,1.34c-6.53-.12-12,3.46-18.09,4.69-2.52.5-4.27,3-4.35,5.83-.1,3.11.31,6.23.52,9.35.15,2.14.34,4.28.59,7.32C42.21,73.44,37,70.09,31.74,66.78c-3.61-2.28-7.15-4.73-10.94-6.68A18.55,18.55,0,0,1,13,52.21Z"/>

</g>

</g>

</svg>