<svg width="1000" height="247" viewBox="0 0 1000 247" fill="none" xmlns="http://www.w3.org/2000/svg">
<path d="M0 247C133.333 113.667 266.667 80.3333 400 147C533.333 80.3333 666.667 80.3333 800 147C933.333 80.3333 1000 113.667 1000 247H0Z" fill="#F1F5F9"/>
<path d="M286.653 57.6301L283.337 58.3961L286.129 56.4511L283.995 53.8131L281.509 56.1381L282.952 53.0571L279.787 51.8381L278.794 55.0931L278.507 51.7041L275.155 52.2331L275.924 55.5461L273.977 52.7551L271.342 54.8881L273.662 57.3761L270.583 55.9291L269.364 59.0961L272.617 60.0881L269.227 60.3791L269.756 63.7301L273.07 62.9601L270.281 64.9091L272.415 67.5441L274.9 65.2211L273.457 68.3031L276.622 69.5201L277.615 66.2641L277.904 69.6561L281.256 69.1271L280.485 65.8111L282.432 68.6031L285.069 66.4711L282.747 63.9831L285.828 65.4271L287.047 62.2641L283.79 61.2691L287.182 60.9811L286.653 57.6301Z" fill="white"/>
<path d="M329.884 142.508C333.181 163.402 318.917 183.011 298.025 186.307C277.131 189.604 257.522 175.339 254.225 154.445C250.929 133.551 265.194 113.942 286.088 110.646C306.98 107.349 326.588 121.614 329.884 142.508Z" fill="white"/>
<path d="M329.885 142.508C326.588 121.614 306.981 107.349 286.089 110.646C274.941 112.404 265.682 118.806 259.967 127.57L321.826 172.57C328.405 164.436 331.644 153.656 329.885 142.508Z" fill="#EFEDD9"/>
<path d="M310.029 100.052C312.206 113.855 302.783 126.808 288.982 128.986C275.177 131.164 262.225 121.741 260.047 107.937C257.87 94.1361 267.291 81.1821 281.096 79.0041C294.898 76.8271 307.851 86.2501 310.029 100.052Z" fill="white"/>
<path d="M311.696 84.0462H311.695C310.987 82.3922 310.174 80.8822 309.276 79.5032C300.551 66.0792 284.023 65.0271 279.034 63.7021L278.348 63.8102C274.013 66.6062 258.638 72.6842 254.451 88.1142C254.021 89.6982 253.71 91.3822 253.54 93.1732C253.273 95.9852 253.358 99.0542 253.888 102.408C255.648 113.568 260.259 118.947 263.007 118.513C266.297 117.994 264.517 107.226 263.517 100.888C262.532 94.6462 273.16 91.6111 282.727 90.0621C282.744 90.0601 282.756 90.0581 282.77 90.0551C282.831 90.0411 282.887 90.0321 282.952 90.0271C292.528 88.5561 303.574 88.1711 304.558 94.4131C305.558 100.751 307.184 111.543 310.471 111.025C313.217 110.591 315.952 104.054 314.191 92.8932C313.664 89.5572 312.804 86.6252 311.696 84.0462Z" fill="#0D5474"/>
<path d="M288.902 105.502C289.211 107.457 287.876 109.289 285.922 109.597C283.966 109.906 282.133 108.574 281.824 106.619C281.516 104.665 282.849 102.828 284.804 102.519C286.759 102.211 288.594 103.548 288.902 105.502Z" fill="#DD5519"/>
<path d="M276.709 102.963C276.944 104.447 275.931 105.841 274.445 106.075C272.958 106.31 271.565 105.295 271.331 103.811C271.096 102.324 272.109 100.93 273.596 100.695C275.082 100.461 276.475 101.476 276.709 102.963Z" fill="#687C7C"/>
<path d="M298.023 99.5996C298.257 101.084 297.244 102.479 295.758 102.713C294.273 102.947 292.879 101.933 292.645 100.449C292.411 98.9606 293.424 97.5666 294.909 97.3326C296.395 97.0976 297.788 98.1126 298.023 99.5996Z" fill="#687C7C"/>
<path d="M277.041 114.971C278.253 116.451 279.827 117.598 281.608 118.295C283.383 118.99 285.374 119.239 287.393 118.92C289.412 118.602 291.229 117.752 292.705 116.544C294.184 115.332 295.327 113.757 296.024 111.976C296.275 111.341 295.961 110.622 295.322 110.374C294.688 110.123 293.969 110.437 293.719 111.075C293.178 112.455 292.287 113.685 291.137 114.628C289.987 115.57 288.584 116.227 287.008 116.476C285.429 116.725 283.893 116.532 282.508 115.99C281.125 115.446 279.897 114.551 278.955 113.404C278.522 112.874 277.744 112.8 277.216 113.23C276.686 113.663 276.61 114.444 277.041 114.971Z" fill="#687C7C"/>
<path d="M311.684 84.0478C311.079 83.8168 310.458 83.5998 309.824 83.3958C306.409 82.2848 302.634 81.5028 298.612 81.1058C293.363 80.5848 287.692 80.7168 281.851 81.6068C281.725 81.6258 281.6 81.6458 281.473 81.6658C281.373 81.6818 281.267 81.6988 281.165 81.7148C275.399 82.6498 270.022 84.2378 265.226 86.3078C260.77 88.2308 256.823 90.5708 253.533 93.1748C253.701 91.3838 254.014 89.6998 254.445 88.1158C257.203 86.2618 260.263 84.5948 263.57 83.1468C268.715 80.9008 274.46 79.1958 280.611 78.1998C280.712 78.1818 280.818 78.1648 280.918 78.1498C281.045 78.1298 281.17 78.1098 281.297 78.0908C287.332 77.1728 293.207 77.0178 298.698 77.5378C302.421 77.8898 305.966 78.5518 309.267 79.5048C310.164 80.8838 310.978 82.3938 311.684 84.0478Z" fill="#F9B759"/>
<path d="M293.638 141.018C293.872 142.504 292.856 143.899 291.372 144.133C289.887 144.367 288.491 143.353 288.256 141.867C288.022 140.382 289.038 138.987 290.524 138.753C292.008 138.519 293.403 139.533 293.638 141.018Z" fill="#687C7C"/>
<path d="M295.807 154.775C296.041 156.259 295.026 157.656 293.542 157.891C292.056 158.125 290.66 157.108 290.426 155.624C290.191 154.138 291.207 152.742 292.692 152.508C294.176 152.273 295.573 153.289 295.807 154.775Z" fill="#687C7C"/>
<path d="M297.544 165.78C297.778 167.264 296.763 168.662 295.279 168.896C293.793 169.13 292.397 168.113 292.162 166.629C291.928 165.144 292.944 163.75 294.43 163.516C295.914 163.282 297.309 164.295 297.544 165.78Z" fill="#687C7C"/>
<path d="M0 247.001C100 147.001 200 130.334 300 197.001C400 130.334 500 113.668 600 147.001C700 113.668 800 130.334 900 197.001C966.667 163.668 1000 180.334 1000 247.001H0Z" fill="#F8FAFC"/>
<path d="M812.809 148.743C812.344 151.231 809.949 152.874 807.457 152.409L782.272 147.705C779.78 147.239 778.14 144.842 778.604 142.354L783.953 113.721C784.418 111.23 786.812 109.589 789.305 110.054L814.489 114.758C816.982 115.224 818.622 117.619 818.157 120.11L812.809 148.743Z" fill="#9D897E"/>
<path d="M822.418 1.33745C823.052 0.412451 823.78 0.548445 824.037 1.64044L825.028 5.85944C825.285 6.95244 826.409 7.91645 827.526 8.00145L831.85 8.33245C832.968 8.41845 833.214 9.11645 832.398 9.88445L829.239 12.8544C828.419 13.6204 828.147 15.0774 828.634 16.0904L830.509 19.9984C830.993 21.0094 830.511 21.5724 829.438 21.2474L825.286 19.9964C824.213 19.6724 822.817 20.1644 822.183 21.0904L819.736 24.6695C819.102 25.5945 818.374 25.4585 818.117 24.3675L817.126 20.1455C816.869 19.0535 815.745 18.0905 814.625 18.0055L810.302 17.6735C809.185 17.5905 808.938 16.8904 809.756 16.1224L812.915 13.1534C813.733 12.3844 814.005 10.9284 813.519 9.91844L811.645 6.00745C811.159 4.99745 811.643 4.43544 812.715 4.75844L816.866 6.01044C817.941 6.33444 819.337 5.84144 819.971 4.91544L822.418 1.33745Z" fill="#EFE081"/>
<path d="M812.807 148.743L816.237 130.377L804.221 112.841L799.64 111.985L782.332 123.844L801.092 151.22L807.455 152.409C809.948 152.874 812.342 151.231 812.807 148.743Z" fill="#917D73"/>
<path d="M847.654 114.904C846.955 113.801 846.761 112.45 847.118 111.193C847.475 109.937 848.351 108.891 849.527 108.32L853.94 106.178C855.15 105.591 856.041 104.504 856.379 103.202C856.715 101.901 856.466 100.518 855.694 99.4177L842.139 80.0967C841.341 78.9557 841.102 77.5147 841.491 76.1767C841.882 74.8417 842.856 73.7537 844.144 73.2227L845.257 72.7617C846.569 72.2197 847.558 71.1007 847.931 69.7297C848.305 68.3577 848.022 66.8907 847.165 65.7557L820.924 31.0237C819.496 29.1327 816.865 28.6417 814.851 29.8887L777.842 52.8077C776.634 53.5557 775.84 54.8217 775.694 56.2367C775.546 57.6487 776.065 59.0507 777.092 60.0297L777.964 60.8617C778.973 61.8207 779.488 63.1867 779.371 64.5737C779.252 65.9617 778.508 67.2197 777.351 67.9947L757.737 81.1197C756.62 81.8677 755.887 83.0677 755.732 84.4017C755.578 85.7387 756.014 87.0737 756.932 88.0577L760.273 91.6487C761.163 92.6047 761.604 93.8967 761.483 95.1977C761.364 96.4987 760.694 97.6877 759.644 98.4647L744.86 109.4C743.528 110.385 742.831 112.011 743.035 113.659C743.243 115.303 744.319 116.708 745.855 117.335L853.704 137.479C855.36 137.448 856.873 136.527 857.658 135.068C858.442 133.606 858.38 131.838 857.493 130.439L847.654 114.904Z" fill="#5AB182"/>
<path d="M857.493 130.439L847.653 114.904C846.955 113.801 846.76 112.45 847.118 111.193C847.475 109.937 848.351 108.891 849.526 108.32L853.94 106.178C855.15 105.591 856.041 104.504 856.378 103.201C856.714 101.901 856.466 100.518 855.694 99.4177L842.139 80.0967C841.341 78.9557 841.102 77.5147 841.49 76.1767C841.882 74.8417 842.856 73.7537 844.144 73.2227L845.257 72.7617C846.569 72.2197 847.558 71.1007 847.931 69.7297C848.305 68.3577 848.021 66.8907 847.164 65.7557L845.909 64.0967L763.428 120.617L853.703 137.479C855.36 137.448 856.873 136.527 857.657 135.068C858.442 133.606 858.38 131.838 857.493 130.439Z" fill="#4EA172"/>
<path d="M0 247.001C166.667 180.334 333.333 163.668 500 197.001C666.667 163.668 833.333 180.334 1000 247.001H0Z" fill="white"/>
</svg>
