<svg width="421" height="145" viewBox="0 0 421 145" fill="none" xmlns="http://www.w3.org/2000/svg">
<g clip-path="url(#clip0_17_2)">
<path d="M91.4002 81.4C96.2002 87.4 98.7002 95 98.7002 104.1C98.7002 110.7 97.2002 116.8 94.3002 122.6C91.4002 128.4 86.4002 133.1 79.5002 136.9C72.6002 140.7 63.6002 142.5 52.4002 142.5H-0.299805V2.79999H48.3002C65.0002 2.79999 76.9002 6.49999 84.0002 13.8C91.2002 21.1 94.7002 29.9 94.7002 40C94.7002 47 92.7002 53.2 88.7002 58.7C84.7002 64.2 78.9002 68.1 71.3002 70.3C79.8002 71.8 86.5002 75.5 91.4002 81.4ZM18.4002 18.6V63.5H48.3002C66.9002 63.5 76.2002 56.2 76.2002 41.5C76.2002 34.9 74.1002 29.5 70.0002 25.2C65.9002 20.9 58.6002 18.7 48.2002 18.7L18.4002 18.6ZM51.4002 126.8C61.5002 126.8 68.8002 124.5 73.3002 119.9C77.8002 115.3 80.1002 109.5 80.1002 102.4C80.1002 95.3 77.9002 89.8 73.5002 85.6C69.1002 81.3 62.4002 79.2 53.3002 79.2H18.3002V126.8H51.4002Z" fill="black"/>
<path d="M204.8 98.3H134.9C135 107.9 137.8 115.6 143.1 121.4C148.4 127.2 155.5 130.2 164.3 130.2C170.6 130.2 176 128.6 180.4 125.4C184.9 122.2 188.2 117.6 190.4 111.5L204.2 117.6C200.8 126.5 195.6 133.3 188.6 138C181.6 142.7 173.1 145 163.1 145C148.9 145 137.9 140.6 130 131.9C122.1 123.2 118.2 110.7 118.2 94.6C118.2 78.5 122.1 65.1 130 55.8C137.9 46.5 148.8 41.8 162.9 41.8C177 41.8 186.6 45.6 193.9 53.2C201.2 60.8 204.8 71.9 204.8 86.5V98.3ZM187.9 84.7V82.5C187.9 73.6 185.7 66.8 181.3 62C176.9 57.3 170.6 54.9 162.5 54.9C154 54.9 147.3 57.5 142.5 62.8C137.7 68 135.2 75.3 134.9 84.6L187.9 84.7Z" fill="black"/>
<path d="M315.7 142.5H295L265.3 94.3L247.4 112.4V142.5H230.7V-0.0999756H247.4V92.6L291.5 44.2H313.4L277.4 82.2L315.7 142.5Z" fill="black"/>
<path d="M420.6 142.5H399.9L370.2 94.3L352.3 112.4V142.5H335.6V-0.0999756H352.3V92.6L396.4 44.2H418.3L382.3 82.2L420.6 142.5Z" fill="black"/>
</g>
<defs>
<clipPath id="clip0_17_2">
<rect width="421" height="145" fill="white"/>
</clipPath>
</defs>
</svg>
