<svg width="421" height="140" viewBox="0 0 421 140" fill="none" xmlns="http://www.w3.org/2000/svg">
<g clip-path="url(#clip0_17_8)">
<path d="M91.4002 78.4C96.2002 84.4 98.7002 92 98.7002 101.1C98.7002 107.7 97.2002 113.8 94.3002 119.6C91.4002 125.4 86.4002 130.1 79.5002 133.9C72.6002 137.7 63.6002 139.5 52.4002 139.5H-0.299805V-0.200012H48.3002C65.0002 -0.200012 76.9002 3.49999 84.0002 10.8C91.2002 18.1 94.7002 26.9 94.7002 37C94.7002 44 92.7002 50.2 88.7002 55.7C84.7002 61.2 78.9002 65.1 71.3002 67.3C79.8002 68.8 86.5002 72.5 91.4002 78.4ZM18.4002 15.6V60.5H48.3002C66.9002 60.5 76.2002 53.2 76.2002 38.5C76.2002 31.9 74.1002 26.5 70.0002 22.2C65.9002 17.9 58.6002 15.7 48.2002 15.7L18.4002 15.6ZM51.4002 123.8C61.5002 123.8 68.8002 121.5 73.3002 116.9C77.8002 112.3 80.1002 106.5 80.1002 99.4C80.1002 92.3 77.9002 86.8 73.5002 82.6C69.1002 78.3 62.4002 76.2 53.3002 76.2H18.3002V123.8H51.4002Z" fill="white"/>
<path d="M204.8 95.3H134.9C135 104.9 137.8 112.6 143.1 118.4C148.4 124.2 155.5 127.2 164.3 127.2C170.6 127.2 176 125.6 180.4 122.4C184.9 119.2 188.2 114.6 190.4 108.5L204.2 114.6C200.8 123.5 195.6 130.3 188.6 135C181.6 139.7 173.1 142 163.1 142C148.9 142 137.9 137.6 130 128.9C122.1 120.2 118.2 107.7 118.2 91.6C118.2 75.5 122.1 62.1 130 52.8C137.9 43.5 148.8 38.8 162.9 38.8C177 38.8 186.6 42.6 193.9 50.2C201.2 57.8 204.8 68.9 204.8 83.5V95.3ZM187.9 81.7V79.5C187.9 70.6 185.7 63.8 181.3 59C176.9 54.3 170.6 51.9 162.5 51.9C154 51.9 147.3 54.5 142.5 59.8C137.7 65 135.2 72.3 134.9 81.6L187.9 81.7Z" fill="white"/>
<path d="M315.7 139.5H295L265.3 91.3L247.4 109.4V139.5H230.7V-3.09998H247.4V89.6L291.5 41.2H313.4L277.4 79.2L315.7 139.5Z" fill="white"/>
<path d="M420.6 139.5H399.9L370.2 91.3L352.3 109.4V139.5H335.6V-3.09998H352.3V89.6L396.4 41.2H418.3L382.3 79.2L420.6 139.5Z" fill="white"/>
</g>
<defs>
<clipPath id="clip0_17_8">
<rect width="421" height="140" fill="white"/>
</clipPath>
</defs>
</svg>
