<svg width="135" height="40" viewBox="0 0 135 40" fill="none" xmlns="http://www.w3.org/2000/svg">
<path d="M130 40H5C2.2 40 0 37.8 0 35V5C0 2.2 2.2 0 5 0H130C132.8 0 135 2.2 135 5V35C135 37.7 132.8 40 130 40Z" fill="black"/>
<path d="M130 0.799999C132.3 0.799999 134.2 2.7 134.2 5V35C134.2 37.3 132.3 39.2 130 39.2H5C2.7 39.2 0.799999 37.3 0.799999 35V5C0.799999 2.7 2.7 0.799999 5 0.799999H130ZM130 0H5C2.2 0 0 2.2 0 5V35C0 37.8 2.2 40 5 40H130C132.8 40 135 37.8 135 35V5C135 2.3 132.8 0 130 0Z" fill="#A7A6A6"/>
<path d="M68.0996 21.8001C65.6996 21.8001 63.7996 23.6001 63.7996 26.1001C63.7996 28.5001 65.6996 30.4001 68.0996 30.4001C70.4996 30.4001 72.3996 28.6001 72.3996 26.1001C72.3996 23.5001 70.4996 21.8001 68.0996 21.8001ZM68.0996 28.6001C66.7996 28.6001 65.6996 27.5001 65.6996 26.0001C65.6996 24.5001 66.7996 23.4001 68.0996 23.4001C69.3996 23.4001 70.4996 24.4001 70.4996 26.0001C70.4996 27.5001 69.3996 28.6001 68.0996 28.6001ZM58.7996 21.8001C56.3996 21.8001 54.4996 23.6001 54.4996 26.1001C54.4996 28.5001 56.3996 30.4001 58.7996 30.4001C61.1996 30.4001 63.0996 28.6001 63.0996 26.1001C63.0996 23.5001 61.1996 21.8001 58.7996 21.8001ZM58.7996 28.6001C57.4996 28.6001 56.3996 27.5001 56.3996 26.0001C56.3996 24.5001 57.4996 23.4001 58.7996 23.4001C60.0996 23.4001 61.1996 24.4001 61.1996 26.0001C61.1996 27.5001 60.0996 28.6001 58.7996 28.6001ZM47.6996 23.1001V24.9001H51.9996C51.8996 25.9001 51.4996 26.7001 50.9996 27.2001C50.3996 27.8001 49.3996 28.5001 47.6996 28.5001C44.9996 28.5001 42.9996 26.4001 42.9996 23.7001C42.9996 21.0001 45.0996 18.9001 47.6996 18.9001C49.0996 18.9001 50.1996 19.5001 50.9996 20.2001L52.2996 18.9001C51.1996 17.9001 49.7996 17.1001 47.7996 17.1001C44.1996 17.1001 41.0996 20.1001 41.0996 23.7001C41.0996 27.3001 44.1996 30.3001 47.7996 30.3001C49.7996 30.3001 51.1996 29.7001 52.3996 28.4001C53.5996 27.2001 53.9996 25.5001 53.9996 24.2001C53.9996 23.8001 53.9996 23.4001 53.8996 23.1001H47.6996ZM93.0996 24.5001C92.6996 23.5001 91.6996 21.8001 89.4996 21.8001C87.2996 21.8001 85.4996 23.5001 85.4996 26.1001C85.4996 28.5001 87.2996 30.4001 89.6996 30.4001C91.5996 30.4001 92.7996 29.2001 93.1996 28.5001L91.7996 27.5001C91.2996 28.2001 90.6996 28.7001 89.6996 28.7001C88.6996 28.7001 88.0996 28.3001 87.5996 27.4001L93.2996 25.0001L93.0996 24.5001ZM87.2996 25.9001C87.2996 24.3001 88.5996 23.4001 89.4996 23.4001C90.1996 23.4001 90.8996 23.8001 91.0996 24.3001L87.2996 25.9001ZM82.5996 30.0001H84.4996V17.5001H82.5996V30.0001ZM79.5996 22.7001C79.0996 22.2001 78.2996 21.7001 77.2996 21.7001C75.1996 21.7001 73.1996 23.6001 73.1996 26.0001C73.1996 28.4001 75.0996 30.2001 77.2996 30.2001C78.2996 30.2001 79.0996 29.7001 79.4996 29.2001H79.5996V29.8001C79.5996 31.4001 78.6996 32.3001 77.2996 32.3001C76.1996 32.3001 75.3996 31.5001 75.1996 30.8001L73.5996 31.5001C74.0996 32.6001 75.2996 34.0001 77.3996 34.0001C79.5996 34.0001 81.3996 32.7001 81.3996 29.6001V22.0001H79.5996V22.7001ZM77.3996 28.6001C76.0996 28.6001 74.9996 27.5001 74.9996 26.0001C74.9996 24.5001 76.0996 23.4001 77.3996 23.4001C78.6996 23.4001 79.6996 24.5001 79.6996 26.0001C79.6996 27.5001 78.6996 28.6001 77.3996 28.6001ZM101.8 17.5001H97.2996V30.0001H99.1996V25.3001H101.8C103.9 25.3001 105.9 23.8001 105.9 21.4001C105.9 19.0001 103.9 17.5001 101.8 17.5001ZM101.9 23.5001H99.1996V19.2001H101.9C103.3 19.2001 104.1 20.4001 104.1 21.3001C104 22.4001 103.2 23.5001 101.9 23.5001ZM113.4 21.7001C112 21.7001 110.6 22.3001 110.1 23.6001L111.8 24.3001C112.2 23.6001 112.8 23.4001 113.5 23.4001C114.5 23.4001 115.4 24.0001 115.5 25.0001V25.1001C115.2 24.9001 114.4 24.6001 113.6 24.6001C111.8 24.6001 110 25.6001 110 27.4001C110 29.1001 111.5 30.2001 113.1 30.2001C114.4 30.2001 115 29.6001 115.5 29.0001H115.6V30.0001H117.4V25.2001C117.2 23.0001 115.5 21.7001 113.4 21.7001ZM113.2 28.6001C112.6 28.6001 111.7 28.3001 111.7 27.5001C111.7 26.5001 112.8 26.2001 113.7 26.2001C114.5 26.2001 114.9 26.4001 115.4 26.6001C115.2 27.8001 114.2 28.6001 113.2 28.6001ZM123.7 22.0001L121.6 27.4001H121.5L119.3 22.0001H117.3L120.6 29.6001L118.7 33.8001H120.6L125.7 22.0001H123.7ZM106.9 30.0001H108.8V17.5001H106.9V30.0001Z" fill="white"/>
<path d="M10.4 7.5C10.1 7.9 10 8.3 10 9V31C10 31.6 10.2 32.1 10.5 32.4L10.6 32.5L23 20.1V20V19.9L10.4 7.5Z" fill="#5BC9F4"/>
<path d="M27.0004 24.3001L22.9004 20.2V20V19.9001L27.0004 15.8L27.1004 15.9001L32.0004 18.7001C33.4004 19.5001 33.4004 20.8 32.0004 21.6L27.0004 24.3001Z" fill="url(#paint0_linear_51_49)"/>
<path d="M27.1004 24.2L22.9004 20L10.4004 32.5C10.9004 33 11.6004 33 12.5004 32.6L27.1004 24.2Z" fill="url(#paint1_linear_51_49)"/>
<path d="M27.1004 15.8001L12.5004 7.50011C11.6004 7.00011 10.9004 7.10011 10.4004 7.60011L22.9004 20.0001L27.1004 15.8001Z" fill="url(#paint2_linear_51_49)"/>
<path d="M43.6992 13H42.8992V7.7H41.1992V7H45.2992V7.7H43.5992V13H43.6992Z" fill="white" stroke="white" stroke-width="0.2" stroke-miterlimit="10"/>
<path d="M46.2988 13V7H47.0988V13H46.2988Z" fill="white" stroke="white" stroke-width="0.2" stroke-miterlimit="10"/>
<path d="M48.5 13V7H49.3V12.3H51.9V13H48.5Z" fill="white" stroke="white" stroke-width="0.2" stroke-miterlimit="10"/>
<path d="M58.5 10.1999C58.5 10.9999 58.3 11.6999 57.8 12.1999C57.2 12.7999 56.5 13.0999 55.6 13.0999C54.7 13.0999 54 12.7999 53.4 12.1999C52.8 11.5999 52.5 10.8999 52.5 9.9999C52.5 9.0999 52.8 8.3999 53.4 7.7999C54 7.1999 54.7 6.8999 55.6 6.8999C56 6.8999 56.4 6.9999 56.8 7.1999C57.2 7.3999 57.5 7.5999 57.7 7.8999L57.2 8.3999C56.8 7.8999 56.3 7.6999 55.6 7.6999C55 7.6999 54.4 7.8999 54 8.3999C53.5 8.7999 53.3 9.3999 53.3 10.0999C53.3 10.7999 53.5 11.3999 54 11.7999C54.5 12.1999 55 12.4999 55.6 12.4999C56.3 12.4999 56.8 12.2999 57.3 11.7999C57.6 11.4999 57.8 11.0999 57.8 10.5999H55.6V9.8999H58.5C58.5 9.8999 58.5 10.0999 58.5 10.1999Z" fill="white" stroke="white" stroke-width="0.2" stroke-miterlimit="10"/>
<path d="M60.8996 13.1C60.4996 13.1 60.0996 13 59.7996 12.7C59.4996 12.5 59.2996 12.1 59.0996 11.7L59.7996 11.4C59.9996 12 60.2996 12.3 60.8996 12.3C61.2996 12.3 61.4996 12.2 61.6996 12C61.8996 11.8 61.9996 11.5 61.9996 11.1V7H62.7996V11.1C62.7996 11.8 62.5996 12.3 62.2996 12.6C61.8996 13 61.3996 13.1 60.8996 13.1Z" fill="white" stroke="white" stroke-width="0.2" stroke-miterlimit="10"/>
<path d="M67.5996 7.7H64.8996V9.6H67.3996V10.3H64.8996V12.2H67.5996V13H64.0996V7H67.5996V7.7Z" fill="white" stroke="white" stroke-width="0.2" stroke-miterlimit="10"/>
<path d="M68.7988 13V7H69.6988L72.5988 11.7V10.5V7H73.3988V13H72.5988L69.4988 8.1V9.3V13H68.7988Z" fill="white" stroke="white" stroke-width="0.2" stroke-miterlimit="10"/>
<path d="M80.5 10.1999C80.5 10.9999 80.3 11.6999 79.8 12.1999C79.2 12.7999 78.5 13.0999 77.6 13.0999C76.7 13.0999 76 12.7999 75.4 12.1999C74.8 11.5999 74.5 10.8999 74.5 9.9999C74.5 9.0999 74.8 8.3999 75.4 7.7999C76 7.1999 76.7 6.8999 77.6 6.8999C78 6.8999 78.4 6.9999 78.8 7.1999C79.2 7.3999 79.5 7.5999 79.7 7.8999L79.2 8.3999C78.8 7.8999 78.3 7.6999 77.6 7.6999C77 7.6999 76.4 7.8999 76 8.3999C75.5 8.7999 75.3 9.3999 75.3 10.0999C75.3 10.7999 75.5 11.3999 76 11.7999C76.5 12.1999 77 12.4999 77.6 12.4999C78.3 12.4999 78.8 12.2999 79.3 11.7999C79.6 11.4999 79.8 11.0999 79.8 10.5999H77.6V9.8999H80.5C80.4 9.8999 80.5 10.0999 80.5 10.1999Z" fill="white" stroke="white" stroke-width="0.2" stroke-miterlimit="10"/>
<path d="M85.0996 7.7H82.3996V9.6H84.8996V10.3H82.3996V12.2H85.0996V13H81.5996V7H85.0996V7.7Z" fill="white" stroke="white" stroke-width="0.2" stroke-miterlimit="10"/>
<path d="M86.2988 13V7H87.0988V12.3H89.6988V13H86.2988Z" fill="white" stroke="white" stroke-width="0.2" stroke-miterlimit="10"/>
<path d="M90.5996 13V7H91.3996V13H90.5996Z" fill="white" stroke="white" stroke-width="0.2" stroke-miterlimit="10"/>
<path d="M98.3984 10.1999C98.3984 10.9999 98.1984 11.6999 97.6984 12.1999C97.0984 12.7999 96.3984 13.0999 95.4984 13.0999C94.5984 13.0999 93.8984 12.7999 93.2984 12.1999C92.6984 11.5999 92.3984 10.8999 92.3984 9.9999C92.3984 9.0999 92.6984 8.3999 93.2984 7.7999C93.8984 7.1999 94.5984 6.8999 95.4984 6.8999C95.8984 6.8999 96.2984 6.9999 96.6984 7.1999C97.0984 7.3999 97.3984 7.5999 97.5984 7.8999L97.0984 8.3999C96.6984 7.8999 96.1984 7.6999 95.4984 7.6999C94.8984 7.6999 94.2984 7.8999 93.8984 8.3999C93.3984 8.7999 93.1984 9.3999 93.1984 10.0999C93.1984 10.7999 93.3984 11.3999 93.8984 11.7999C94.3984 12.1999 94.8984 12.4999 95.4984 12.4999C96.1984 12.4999 96.6984 12.2999 97.1984 11.7999C97.4984 11.4999 97.6984 11.0999 97.6984 10.5999H95.4984V9.8999H98.3984C98.3984 9.8999 98.3984 10.0999 98.3984 10.1999Z" fill="white" stroke="white" stroke-width="0.2" stroke-miterlimit="10"/>
<path d="M102.3 13H101.5V7H103.5C104 7 104.4 7.2 104.8 7.5C105.2 7.8 105.4 8.3 105.4 8.8C105.4 9.3 105.2 9.7 104.8 10.1C104.4 10.4 104 10.6 103.5 10.6H102.2V13H102.3ZM102.3 9.8H103.6C103.9 9.8 104.2 9.7 104.4 9.5C104.6 9.3 104.7 9 104.7 8.8C104.7 8.5 104.6 8.3 104.4 8.1C104.2 7.9 103.9 7.8 103.6 7.8H102.3V9.8Z" fill="white" stroke="white" stroke-width="0.2" stroke-miterlimit="10"/>
<path d="M105.398 13L107.498 7.29995C107.298 7.09995 107.198 6.89995 107.198 6.59995C107.198 6.39995 107.298 6.09995 107.498 5.99995C107.698 5.79995 107.898 5.69995 108.098 5.69995C108.298 5.69995 108.498 5.79995 108.698 5.99995C108.898 6.19995 108.998 6.39995 108.998 6.59995C108.998 6.89995 108.898 7.09995 108.698 7.29995L110.798 13H109.898L109.298 11.4H106.798L106.198 13H105.398ZM107.098 10.7H109.098L108.098 7.99995L107.098 10.7ZM108.098 6.99995C108.198 6.99995 108.298 6.99995 108.298 6.89995C108.398 6.79995 108.398 6.79995 108.398 6.69995C108.398 6.59995 108.398 6.49995 108.298 6.49995C108.198 6.39995 108.198 6.39995 108.098 6.39995C107.998 6.39995 107.898 6.39995 107.898 6.49995C107.798 6.59995 107.798 6.59995 107.798 6.69995C107.798 6.79995 107.798 6.89995 107.898 6.89995C107.898 6.99995 107.898 6.99995 108.098 6.99995Z" fill="white" stroke="white" stroke-width="0.2" stroke-miterlimit="10"/>
<defs>
<linearGradient id="paint0_linear_51_49" x1="31.0892" y1="20.0004" x2="6.91239" y2="20.0004" gradientUnits="userSpaceOnUse">
<stop stop-color="#FEE000"/>
<stop offset="0.1941" stop-color="#FCCF0B"/>
<stop offset="0.5469" stop-color="#FAB318"/>
<stop offset="0.8279" stop-color="#F9A21B"/>
<stop offset="1" stop-color="#F99B1C"/>
</linearGradient>
<linearGradient id="paint1_linear_51_49" x1="24.815" y1="22.2931" x2="2.07549" y2="45.0326" gradientUnits="userSpaceOnUse">
<stop stop-color="#EF4547"/>
<stop offset="1" stop-color="#C6186D"/>
</linearGradient>
<linearGradient id="paint2_linear_51_49" x1="1.97419" y1="-5.13399" x2="20.5404" y2="13.4322" gradientUnits="userSpaceOnUse">
<stop stop-color="#279E6F"/>
<stop offset="0.3168" stop-color="#4DAB6D"/>
<stop offset="0.7398" stop-color="#6ABA6A"/>
<stop offset="1" stop-color="#74C169"/>
</linearGradient>
</defs>
</svg>
