<?xml version="1.0" encoding="UTF-8" standalone="no"?>
<svg
   xmlns:dc="http://purl.org/dc/elements/1.1/"
   xmlns:cc="http://creativecommons.org/ns#"
   xmlns:rdf="http://www.w3.org/1999/02/22-rdf-syntax-ns#"
   xmlns:svg="http://www.w3.org/2000/svg"
   xmlns="http://www.w3.org/2000/svg"
   xmlns:sodipodi="http://sodipodi.sourceforge.net/DTD/sodipodi-0.dtd"
   xmlns:inkscape="http://www.inkscape.org/namespaces/inkscape"
   width="100%"
   height="100%"
   viewBox="0 0 167 167"
   version="1.1"
   xml:space="preserve"
   style="fill-rule:evenodd;clip-rule:evenodd;stroke-linejoin:round;stroke-miterlimit:2;"
   id="svg18"
   sodipodi:docname="NapKom.svg"
   inkscape:version="1.0.1 (3bc2e813f5, 2020-09-07)"
   inkscape:export-filename="C:\Users\Jørgen Galdal\OneDrive - NTNU\Online\Tullelogoer\Napkom.png"
   inkscape:export-xdpi="31"
   inkscape:export-ydpi="31"><metadata
   id="metadata24"><rdf:RDF><cc:Work
       rdf:about=""><dc:format>image/svg+xml</dc:format><dc:type
         rdf:resource="http://purl.org/dc/dcmitype/StillImage" /><dc:title></dc:title></cc:Work></rdf:RDF></metadata><defs
   id="defs22" /><sodipodi:namedview
   pagecolor="#ffffff"
   bordercolor="#666666"
   borderopacity="1"
   objecttolerance="10"
   gridtolerance="10"
   guidetolerance="10"
   inkscape:pageopacity="0"
   inkscape:pageshadow="2"
   inkscape:window-width="1920"
   inkscape:window-height="991"
   id="namedview20"
   showgrid="false"
   showguides="true"
   inkscape:guide-bbox="true"
   inkscape:zoom="2.4550898"
   inkscape:cx="88.977533"
   inkscape:cy="119.63774"
   inkscape:window-x="3191"
   inkscape:window-y="980"
   inkscape:window-maximized="1"
   inkscape:current-layer="g14" />
    <g
   transform="matrix(1,0,0,1,-1065.04,-69.01)"
   id="g16">
        <g
   transform="matrix(0.470077,0,0,1,531.77,0)"
   id="g14">
            <g
   transform="matrix(2.83642,0,0,1.33333,914.268,-277.944)"
   id="g12">
                <g
   id="g10">
                    <g
   transform="matrix(1,0,0,1,171.299,370.231)"
   id="g4">
                        
                    </g>
                    <g
   transform="matrix(0.75,0,0,0.75,0,186.709)"
   id="g8">
                        <path
   d="M236.622,114.629C239.737,116.969 242.712,119.544 245.548,122.352C253.395,130.276 259.416,139.289 263.611,149.388C267.807,159.488 269.904,170.093 269.904,181.203C269.904,192.313 267.807,202.898 263.611,212.959C259.416,223.02 253.395,232.013 245.548,239.937C237.624,247.862 228.612,253.922 218.512,258.117C208.412,262.312 197.807,264.41 186.697,264.41C179.342,264.41 172.217,263.491 165.322,261.652L185.836,235.386C186.123,235.39 186.41,235.392 186.697,235.392C196.719,235.392 205.829,232.945 214.025,228.051C222.222,223.156 228.767,216.611 233.662,208.414C238.556,200.218 241.003,191.147 241.003,181.203C241.003,171.181 238.556,162.071 233.662,153.875C230.11,147.928 225.69,142.85 220.401,138.642L236.622,114.629ZM178.079,98.428L160.843,133.456C160.388,133.709 159.936,133.97 159.486,134.239C151.29,139.133 144.744,145.679 139.85,153.875C134.955,162.071 132.508,171.181 132.508,181.203C132.508,191.147 134.955,200.218 139.85,208.414C144.337,215.929 150.213,222.057 157.477,226.796L147.204,254.408C140.211,250.596 133.797,245.772 127.963,239.937C120.038,232.013 113.979,223.02 109.783,212.959C105.588,202.898 103.49,192.313 103.49,181.203C103.49,170.093 105.588,159.488 109.783,149.388C113.979,139.289 120.038,130.276 127.963,122.352C135.887,114.505 144.88,108.484 154.941,104.289C162.368,101.192 170.081,99.238 178.079,98.428Z"
   style="fill:rgb(11,83,116);fill-rule:nonzero;"
   id="path6" />
                    </g>
                </g>
            </g>
        <text
   xml:space="preserve"
   style="font-weight:500;font-size:124.461px;line-height:1.25;font-family:'Source Code Pro';-inkscape-font-specification:'Source Code Pro Medium';stroke-width:1.45853;fill:#f9b759;fill-opacity:1;"
   x="880.58386"
   y="188.84549"
   id="text873"
   transform="scale(1.4585305,0.68562159)"><tspan
     sodipodi:role="line"
     id="tspan871"
     x="880.58386"
     y="188.84549"
     style="font-style:normal;font-variant:normal;font-weight:900;font-stretch:normal;font-size:124.461px;font-family:'Source Code Pro';-inkscape-font-specification:'Source Code Pro Heavy';stroke-width:1.45853;fill:#f9b759;fill-opacity:1;">Z</tspan></text><text
   xml:space="preserve"
   style="font-weight:500;font-size:62.2306px;line-height:1.25;font-family:'Source Code Pro';-inkscape-font-specification:'Source Code Pro Medium';clip-rule:evenodd;fill-rule:evenodd;stroke-width:1.45853;stroke-linejoin:round;stroke-miterlimit:2;fill:#f9b759;fill-opacity:1;"
   x="854.71149"
   y="308.83408"
   id="text873-9"
   transform="scale(1.4585304,0.68562163)"><tspan
     sodipodi:role="line"
     id="tspan871-2"
     x="854.71149"
     y="308.83408"
     style="font-style:normal;font-variant:normal;font-weight:900;font-stretch:normal;font-size:62.2306px;font-family:'Source Code Pro';-inkscape-font-specification:'Source Code Pro Heavy';stroke-width:1.45853;fill:#f9b759;fill-opacity:1;">Z</tspan></text><text
   xml:space="preserve"
   style="font-weight:500;font-size:93.3459px;line-height:1.25;font-family:'Source Code Pro';-inkscape-font-specification:'Source Code Pro Medium';clip-rule:evenodd;fill-rule:evenodd;stroke-width:1.45853;stroke-linejoin:round;stroke-miterlimit:2;fill:#f9b759;fill-opacity:1;"
   x="867.64771"
   y="258.95258"
   id="text873-6"
   transform="scale(1.4585304,0.68562163)"><tspan
     sodipodi:role="line"
     id="tspan871-4"
     x="867.64771"
     y="258.95258"
     style="font-style:normal;font-variant:normal;font-weight:900;font-stretch:normal;font-size:93.3459px;font-family:'Source Code Pro';-inkscape-font-specification:'Source Code Pro Heavy';stroke-width:1.45853;fill:#f9b759;fill-opacity:1;">Z</tspan></text></g>
    </g>
</svg>
