<svg width="167" height="167" viewBox="0 0 167 167" fill="none" xmlns="http://www.w3.org/2000/svg">
<g clip-path="url(#clip0_70_2)">
<path d="M133.128 16.6194C136.243 18.9594 139.218 21.5344 142.054 24.3424C149.901 32.2664 155.922 41.2794 160.117 51.3783C164.313 61.4783 166.41 72.0833 166.41 83.1933C166.41 94.3032 164.313 104.888 160.117 114.949C155.922 125.01 149.901 134.003 142.054 141.927C134.13 149.852 125.118 155.912 115.018 160.107C104.918 164.302 94.3133 166.4 83.2033 166.4C75.8482 166.4 68.7232 165.481 61.8282 163.642L82.3423 137.376C82.6293 137.38 82.9163 137.382 83.2033 137.382C93.2253 137.382 102.335 134.935 110.531 130.041C118.728 125.146 125.273 118.601 130.168 110.404C135.062 102.208 137.509 93.1372 137.509 83.1933C137.509 73.1713 135.062 64.0613 130.168 55.8653C126.616 49.9183 122.196 44.8403 116.907 40.6324L133.128 16.6194ZM74.5852 0.418457L57.3492 35.4464C56.8942 35.6994 56.4422 35.9604 55.9922 36.2294C47.7962 41.1234 41.2502 47.6693 36.3562 55.8653C31.4612 64.0613 29.0141 73.1713 29.0141 83.1933C29.0141 93.1372 31.4612 102.208 36.3562 110.404C40.8432 117.919 46.7192 124.047 53.9832 128.786L43.7102 156.398C36.7172 152.586 30.3032 147.762 24.4691 141.927C16.5441 134.003 10.4851 125.01 6.28911 114.949C2.0941 104.888 -0.00390625 94.3032 -0.00390625 83.1933C-0.00390625 72.0833 2.0941 61.4783 6.28911 51.3783C10.4851 41.2794 16.5441 32.2664 24.4691 24.3424C32.3932 16.4954 41.3862 10.4744 51.4472 6.27944C58.8742 3.18245 66.5872 1.22846 74.5852 0.418457Z" fill="#0B5374"/>
<path d="M75.2559 59.1334V51.5388L101.282 13.9922H77.7305V3.49622H116.813V11.0909L90.7865 48.5521H117.154V59.1334H75.2559Z" fill="#F9B759"/>
<path d="M55.127 142.067V138.269L68.1403 119.496H56.3643V114.248H75.9056V118.045L62.8923 136.776H76.0763V142.067H55.127Z" fill="#F9B759"/>
<path d="M65.1914 107.534V101.838L84.7114 73.6775H67.0474V65.8055H96.3594V71.5015L76.8394 99.5975H96.6154V107.534H65.1914Z" fill="#F9B759"/>
</g>
<defs>
<clipPath id="clip0_70_2">
<rect width="167" height="167" fill="white"/>
</clipPath>
</defs>
</svg>
