<svg width="1000" height="1000" viewBox="0 0 1000 1000" fill="none" xmlns="http://www.w3.org/2000/svg">
<path d="M340 0C351.046 0 360 8.9544 360 20C360 31.0462 351.046 40 340 40C328.954 40 320 31.0462 320 20C320 8.9544 328.954 0 340 0Z" fill="#0D5474"/>
<path d="M380 0C391.046 0 400 8.9544 400 20C400 31.0462 391.046 40 380 40C368.954 40 360 31.0462 360 20C360 8.9544 368.954 0 380 0Z" fill="#0D5474"/>
<path d="M420 0C431.046 0 440 8.9544 440 20C440 31.0462 431.046 40 420 40C408.954 40 400 31.0462 400 20C400 8.9544 408.954 0 420 0Z" fill="#0D5474"/>
<path d="M460 0C471.046 0 480 8.9544 480 20C480 31.0462 471.046 40 460 40C448.954 40 440 31.0462 440 20C440 8.9544 448.954 0 460 0Z" fill="#0D5474"/>
<path d="M660 0C671.046 0 680 8.9544 680 20C680 31.0462 671.046 40 660 40C648.954 40 640 31.0462 640 20C640 8.9544 648.954 0 660 0Z" fill="#0D5474"/>
<path d="M340 40C351.046 40 360 48.9544 360 60C360 71.0462 351.046 80 340 80C328.954 80 320 71.0462 320 60C320 48.9544 328.954 40 340 40Z" fill="#0D5474"/>
<path d="M540 40C551.046 40 560 48.9544 560 60C560 71.0462 551.046 80 540 80C528.954 80 520 71.0462 520 60C520 48.9544 528.954 40 540 40Z" fill="#0D5474"/>
<path d="M580 40C591.046 40 600 48.9544 600 60C600 71.0462 591.046 80 580 80C568.954 80 560 71.0462 560 60C560 48.9544 568.954 40 580 40Z" fill="#0D5474"/>
<path d="M340 80C351.046 80 360 88.9544 360 100C360 111.046 351.046 120 340 120C328.954 120 320 111.046 320 100C320 88.9544 328.954 80 340 80Z" fill="#0D5474"/>
<path d="M380 80C391.046 80 400 88.9544 400 100C400 111.046 391.046 120 380 120C368.954 120 360 111.046 360 100C360 88.9544 368.954 80 380 80Z" fill="#0D5474"/>
<path d="M420 80C431.046 80 440 88.9544 440 100C440 111.046 431.046 120 420 120C408.954 120 400 111.046 400 100C400 88.9544 408.954 80 420 80Z" fill="#0D5474"/>
<path d="M500 80C511.046 80 520 88.9544 520 100C520 111.046 511.046 120 500 120C488.954 120 480 111.046 480 100C480 88.9544 488.954 80 500 80Z" fill="#0D5474"/>
<path d="M540 80C551.046 80 560 88.9544 560 100C560 111.046 551.046 120 540 120C528.954 120 520 111.046 520 100C520 88.9544 528.954 80 540 80Z" fill="#0D5474"/>
<path d="M380 120C391.046 120 400 128.954 400 140C400 151.046 391.046 160 380 160C368.954 160 360 151.046 360 140C360 128.954 368.954 120 380 120Z" fill="#0D5474"/>
<path d="M460 120C471.046 120 480 128.954 480 140C480 151.046 471.046 160 460 160C448.954 160 440 151.046 440 140C440 128.954 448.954 120 460 120Z" fill="#0D5474"/>
<path d="M540 120C551.046 120 560 128.954 560 140C560 151.046 551.046 160 540 160C528.954 160 520 151.046 520 140C520 128.954 528.954 120 540 120Z" fill="#0D5474"/>
<path d="M580 120C591.046 120 600 128.954 600 140C600 151.046 591.046 160 580 160C568.954 160 560 151.046 560 140C560 128.954 568.954 120 580 120Z" fill="#0D5474"/>
<path d="M660 120C671.046 120 680 128.954 680 140C680 151.046 671.046 160 660 160C648.954 160 640 151.046 640 140C640 128.954 648.954 120 660 120Z" fill="#0D5474"/>
<path d="M340 160C351.046 160 360 168.954 360 180C360 191.046 351.046 200 340 200C328.954 200 320 191.046 320 180C320 168.954 328.954 160 340 160Z" fill="#0D5474"/>
<path d="M500 160C511.046 160 520 168.954 520 180C520 191.046 511.046 200 500 200C488.954 200 480 191.046 480 180C480 168.954 488.954 160 500 160Z" fill="#0D5474"/>
<path d="M660 160C671.046 160 680 168.954 680 180C680 191.046 671.046 200 660 200C648.954 200 640 191.046 640 180C640 168.954 648.954 160 660 160Z" fill="#0D5474"/>
<path d="M460 200C471.046 200 480 208.954 480 220C480 231.046 471.046 240 460 240C448.954 240 440 231.046 440 220C440 208.954 448.954 200 460 200Z" fill="#0D5474"/>
<path d="M500 200C511.046 200 520 208.954 520 220C520 231.046 511.046 240 500 240C488.954 240 480 231.046 480 220C480 208.954 488.954 200 500 200Z" fill="#0D5474"/>
<path d="M340 240C351.046 240 360 248.954 360 260C360 271.046 351.046 280 340 280C328.954 280 320 271.046 320 260C320 248.954 328.954 240 340 240Z" fill="#0D5474"/>
<path d="M420 240C431.046 240 440 248.954 440 260C440 271.046 431.046 280 420 280C408.954 280 400 271.046 400 260C400 248.954 408.954 240 420 240Z" fill="#0D5474"/>
<path d="M500 240C511.046 240 520 248.954 520 260C520 271.046 511.046 280 500 280C488.954 280 480 271.046 480 260C480 248.954 488.954 240 500 240Z" fill="#0D5474"/>
<path d="M580 240C591.046 240 600 248.954 600 260C600 271.046 591.046 280 580 280C568.954 280 560 271.046 560 260C560 248.954 568.954 240 580 240Z" fill="#0D5474"/>
<path d="M660 240C671.046 240 680 248.954 680 260C680 271.046 671.046 280 660 280C648.954 280 640 271.046 640 260C640 248.954 648.954 240 660 240Z" fill="#0D5474"/>
<path d="M380 280C391.046 280 400 288.954 400 300C400 311.046 391.046 320 380 320C368.954 320 360 311.046 360 300C360 288.954 368.954 280 380 280Z" fill="#0D5474"/>
<path d="M500 280C511.046 280 520 288.954 520 300C520 311.046 511.046 320 500 320C488.954 320 480 311.046 480 300C480 288.954 488.954 280 500 280Z" fill="#0D5474"/>
<path d="M540 280C551.046 280 560 288.954 560 300C560 311.046 551.046 320 540 320C528.954 320 520 311.046 520 300C520 288.954 528.954 280 540 280Z" fill="#0D5474"/>
<path d="M580 280C591.046 280 600 288.954 600 300C600 311.046 591.046 320 580 320C568.954 320 560 311.046 560 300C560 288.954 568.954 280 580 280Z" fill="#0D5474"/>
<path d="M20 320C31.0462 320 40 328.954 40 340C40 351.046 31.0462 360 20 360C8.9544 360 0 351.046 0 340C0 328.954 8.9544 320 20 320Z" fill="#0D5474"/>
<path d="M140 320C151.046 320 160 328.954 160 340C160 351.046 151.046 360 140 360C128.954 360 120 351.046 120 340C120 328.954 128.954 320 140 320Z" fill="#0D5474"/>
<path d="M180 320C191.046 320 200 328.954 200 340C200 351.046 191.046 360 180 360C168.954 360 160 351.046 160 340C160 328.954 168.954 320 180 320Z" fill="#0D5474"/>
<path d="M220 320C231.046 320 240 328.954 240 340C240 351.046 231.046 360 220 360C208.954 360 200 351.046 200 340C200 328.954 208.954 320 220 320Z" fill="#0D5474"/>
<path d="M260 320C271.046 320 280 328.954 280 340C280 351.046 271.046 360 260 360C248.954 360 240 351.046 240 340C240 328.954 248.954 320 260 320Z" fill="#0D5474"/>
<path d="M300 320C311.046 320 320 328.954 320 340C320 351.046 311.046 360 300 360C288.954 360 280 351.046 280 340C280 328.954 288.954 320 300 320Z" fill="#0D5474"/>
<path d="M340 320C351.046 320 360 328.954 360 340C360 351.046 351.046 360 340 360C328.954 360 320 351.046 320 340C320 328.954 328.954 320 340 320Z" fill="#0D5474"/>
<path d="M580 320C591.046 320 600 328.954 600 340C600 351.046 591.046 360 580 360C568.954 360 560 351.046 560 340C560 328.954 568.954 320 580 320Z" fill="#0D5474"/>
<path d="M620 320C631.046 320 640 328.954 640 340C640 351.046 631.046 360 620 360C608.954 360 600 351.046 600 340C600 328.954 608.954 320 620 320Z" fill="#0D5474"/>
<path d="M700 320C711.046 320 720 328.954 720 340C720 351.046 711.046 360 700 360C688.954 360 680 351.046 680 340C680 328.954 688.954 320 700 320Z" fill="#0D5474"/>
<path d="M820 320C831.046 320 840 328.954 840 340C840 351.046 831.046 360 820 360C808.954 360 800 351.046 800 340C800 328.954 808.954 320 820 320Z" fill="#0D5474"/>
<path d="M900 320C911.046 320 920 328.954 920 340C920 351.046 911.046 360 900 360C888.954 360 880 351.046 880 340C880 328.954 888.954 320 900 320Z" fill="#0D5474"/>
<path d="M940 320C951.046 320 960 328.954 960 340C960 351.046 951.046 360 940 360C928.954 360 920 351.046 920 340C920 328.954 928.954 320 940 320Z" fill="#0D5474"/>
<path d="M980 320C991.046 320 1000 328.954 1000 340C1000 351.046 991.046 360 980 360C968.954 360 960 351.046 960 340C960 328.954 968.954 320 980 320Z" fill="#0D5474"/>
<path d="M100 360C111.046 360 120 368.954 120 380C120 391.046 111.046 400 100 400C88.9544 400 80 391.046 80 380C80 368.954 88.9544 360 100 360Z" fill="#0D5474"/>
<path d="M300 360C311.046 360 320 368.954 320 380C320 391.046 311.046 400 300 400C288.954 400 280 391.046 280 380C280 368.954 288.954 360 300 360Z" fill="#0D5474"/>
<path d="M380 360C391.046 360 400 368.954 400 380C400 391.046 391.046 400 380 400C368.954 400 360 391.046 360 380C360 368.954 368.954 360 380 360Z" fill="#0D5474"/>
<path d="M420 360C431.046 360 440 368.954 440 380C440 391.046 431.046 400 420 400C408.954 400 400 391.046 400 380C400 368.954 408.954 360 420 360Z" fill="#0D5474"/>
<path d="M500 360C511.046 360 520 368.954 520 380C520 391.046 511.046 400 500 400C488.954 400 480 391.046 480 380C480 368.954 488.954 360 500 360Z" fill="#0D5474"/>
<path d="M580 360C591.046 360 600 368.954 600 380C600 391.046 591.046 400 580 400C568.954 400 560 391.046 560 380C560 368.954 568.954 360 580 360Z" fill="#0D5474"/>
<path d="M620 360C631.046 360 640 368.954 640 380C640 391.046 631.046 400 620 400C608.954 400 600 391.046 600 380C600 368.954 608.954 360 620 360Z" fill="#0D5474"/>
<path d="M660 360C671.046 360 680 368.954 680 380C680 391.046 671.046 400 660 400C648.954 400 640 391.046 640 380C640 368.954 648.954 360 660 360Z" fill="#0D5474"/>
<path d="M780 360C791.046 360 800 368.954 800 380C800 391.046 791.046 400 780 400C768.954 400 760 391.046 760 380C760 368.954 768.954 360 780 360Z" fill="#0D5474"/>
<path d="M820 360C831.046 360 840 368.954 840 380C840 391.046 831.046 400 820 400C808.954 400 800 391.046 800 380C800 368.954 808.954 360 820 360Z" fill="#0D5474"/>
<path d="M860 360C871.046 360 880 368.954 880 380C880 391.046 871.046 400 860 400C848.954 400 840 391.046 840 380C840 368.954 848.954 360 860 360Z" fill="#0D5474"/>
<path d="M900 360C911.046 360 920 368.954 920 380C920 391.046 911.046 400 900 400C888.954 400 880 391.046 880 380C880 368.954 888.954 360 900 360Z" fill="#0D5474"/>
<path d="M940 360C951.046 360 960 368.954 960 380C960 391.046 951.046 400 940 400C928.954 400 920 391.046 920 380C920 368.954 928.954 360 940 360Z" fill="#0D5474"/>
<path d="M20 400C31.0462 400 40 408.954 40 420C40 431.046 31.0462 440 20 440C8.9544 440 0 431.046 0 420C0 408.954 8.9544 400 20 400Z" fill="#0D5474"/>
<path d="M140 400C151.046 400 160 408.954 160 420C160 431.046 151.046 440 140 440C128.954 440 120 431.046 120 420C120 408.954 128.954 400 140 400Z" fill="#0D5474"/>
<path d="M180 400C191.046 400 200 408.954 200 420C200 431.046 191.046 440 180 440C168.954 440 160 431.046 160 420C160 408.954 168.954 400 180 400Z" fill="#0D5474"/>
<path d="M220 400C231.046 400 240 408.954 240 420C240 431.046 231.046 440 220 440C208.954 440 200 431.046 200 420C200 408.954 208.954 400 220 400Z" fill="#0D5474"/>
<path d="M260 400C271.046 400 280 408.954 280 420C280 431.046 271.046 440 260 440C248.954 440 240 431.046 240 420C240 408.954 248.954 400 260 400Z" fill="#0D5474"/>
<path d="M340 400C351.046 400 360 408.954 360 420C360 431.046 351.046 440 340 440C328.954 440 320 431.046 320 420C320 408.954 328.954 400 340 400Z" fill="#0D5474"/>
<path d="M500 400C511.046 400 520 408.954 520 420C520 431.046 511.046 440 500 440C488.954 440 480 431.046 480 420C480 408.954 488.954 400 500 400Z" fill="#0D5474"/>
<path d="M620 400C631.046 400 640 408.954 640 420C640 431.046 631.046 440 620 440C608.954 440 600 431.046 600 420C600 408.954 608.954 400 620 400Z" fill="#0D5474"/>
<path d="M660 400C671.046 400 680 408.954 680 420C680 431.046 671.046 440 660 440C648.954 440 640 431.046 640 420C640 408.954 648.954 400 660 400Z" fill="#0D5474"/>
<path d="M700 400C711.046 400 720 408.954 720 420C720 431.046 711.046 440 700 440C688.954 440 680 431.046 680 420C680 408.954 688.954 400 700 400Z" fill="#0D5474"/>
<path d="M740 400C751.046 400 760 408.954 760 420C760 431.046 751.046 440 740 440C728.954 440 720 431.046 720 420C720 408.954 728.954 400 740 400Z" fill="#0D5474"/>
<path d="M860 400C871.046 400 880 408.954 880 420C880 431.046 871.046 440 860 440C848.954 440 840 431.046 840 420C840 408.954 848.954 400 860 400Z" fill="#0D5474"/>
<path d="M980 400C991.046 400 1000 408.954 1000 420C1000 431.046 991.046 440 980 440C968.954 440 960 431.046 960 420C960 408.954 968.954 400 980 400Z" fill="#0D5474"/>
<path d="M180 440C191.046 440 200 448.954 200 460C200 471.046 191.046 480 180 480C168.954 480 160 471.046 160 460C160 448.954 168.954 440 180 440Z" fill="#0D5474"/>
<path d="M340 440C351.046 440 360 448.954 360 460C360 471.046 351.046 480 340 480C328.954 480 320 471.046 320 460C320 448.954 328.954 440 340 440Z" fill="#0D5474"/>
<path d="M380 440C391.046 440 400 448.954 400 460C400 471.046 391.046 480 380 480C368.954 480 360 471.046 360 460C360 448.954 368.954 440 380 440Z" fill="#0D5474"/>
<path d="M700 440C711.046 440 720 448.954 720 460C720 471.046 711.046 480 700 480C688.954 480 680 471.046 680 460C680 448.954 688.954 440 700 440Z" fill="#0D5474"/>
<path d="M860 440C871.046 440 880 448.954 880 460C880 471.046 871.046 480 860 480C848.954 480 840 471.046 840 460C840 448.954 848.954 440 860 440Z" fill="#0D5474"/>
<path d="M900 440C911.046 440 920 448.954 920 460C920 471.046 911.046 480 900 480C888.954 480 880 471.046 880 460C880 448.954 888.954 440 900 440Z" fill="#0D5474"/>
<path d="M940 440C951.046 440 960 448.954 960 460C960 471.046 951.046 480 940 480C928.954 480 920 471.046 920 460C920 448.954 928.954 440 940 440Z" fill="#0D5474"/>
<path d="M980 440C991.046 440 1000 448.954 1000 460C1000 471.046 991.046 480 980 480C968.954 480 960 471.046 960 460C960 448.954 968.954 440 980 440Z" fill="#0D5474"/>
<path d="M20 480C31.0462 480 40 488.954 40 500C40 511.046 31.0462 520 20 520C8.9544 520 0 511.046 0 500C0 488.954 8.9544 480 20 480Z" fill="#0D5474"/>
<path d="M100 480C111.046 480 120 488.954 120 500C120 511.046 111.046 520 100 520C88.9544 520 80 511.046 80 500C80 488.954 88.9544 480 100 480Z" fill="#0D5474"/>
<path d="M180 480C191.046 480 200 488.954 200 500C200 511.046 191.046 520 180 520C168.954 520 160 511.046 160 500C160 488.954 168.954 480 180 480Z" fill="#0D5474"/>
<path d="M220 480C231.046 480 240 488.954 240 500C240 511.046 231.046 520 220 520C208.954 520 200 511.046 200 500C200 488.954 208.954 480 220 480Z" fill="#0D5474"/>
<path d="M260 480C271.046 480 280 488.954 280 500C280 511.046 271.046 520 260 520C248.954 520 240 511.046 240 500C240 488.954 248.954 480 260 480Z" fill="#0D5474"/>
<path d="M380 480C391.046 480 400 488.954 400 500C400 511.046 391.046 520 380 520C368.954 520 360 511.046 360 500C360 488.954 368.954 480 380 480Z" fill="#0D5474"/>
<path d="M420 480C431.046 480 440 488.954 440 500C440 511.046 431.046 520 420 520C408.954 520 400 511.046 400 500C400 488.954 408.954 480 420 480Z" fill="#0D5474"/>
<path d="M540 480C551.046 480 560 488.954 560 500C560 511.046 551.046 520 540 520C528.954 520 520 511.046 520 500C520 488.954 528.954 480 540 480Z" fill="#0D5474"/>
<path d="M580 480C591.046 480 600 488.954 600 500C600 511.046 591.046 520 580 520C568.954 520 560 511.046 560 500C560 488.954 568.954 480 580 480Z" fill="#0D5474"/>
<path d="M660 480C671.046 480 680 488.954 680 500C680 511.046 671.046 520 660 520C648.954 520 640 511.046 640 500C640 488.954 648.954 480 660 480Z" fill="#0D5474"/>
<path d="M700 480C711.046 480 720 488.954 720 500C720 511.046 711.046 520 700 520C688.954 520 680 511.046 680 500C680 488.954 688.954 480 700 480Z" fill="#0D5474"/>
<path d="M740 480C751.046 480 760 488.954 760 500C760 511.046 751.046 520 740 520C728.954 520 720 511.046 720 500C720 488.954 728.954 480 740 480Z" fill="#0D5474"/>
<path d="M980 480C991.046 480 1000 488.954 1000 500C1000 511.046 991.046 520 980 520C968.954 520 960 511.046 960 500C960 488.954 968.954 480 980 480Z" fill="#0D5474"/>
<path d="M20 520C31.0462 520 40 528.954 40 540C40 551.046 31.0462 560 20 560C8.9544 560 0 551.046 0 540C0 528.954 8.9544 520 20 520Z" fill="#0D5474"/>
<path d="M100 520C111.046 520 120 528.954 120 540C120 551.046 111.046 560 100 560C88.9544 560 80 551.046 80 540C80 528.954 88.9544 520 100 520Z" fill="#0D5474"/>
<path d="M140 520C151.046 520 160 528.954 160 540C160 551.046 151.046 560 140 560C128.954 560 120 551.046 120 540C120 528.954 128.954 520 140 520Z" fill="#0D5474"/>
<path d="M180 520C191.046 520 200 528.954 200 540C200 551.046 191.046 560 180 560C168.954 560 160 551.046 160 540C160 528.954 168.954 520 180 520Z" fill="#0D5474"/>
<path d="M220 520C231.046 520 240 528.954 240 540C240 551.046 231.046 560 220 560C208.954 560 200 551.046 200 540C200 528.954 208.954 520 220 520Z" fill="#0D5474"/>
<path d="M340 520C351.046 520 360 528.954 360 540C360 551.046 351.046 560 340 560C328.954 560 320 551.046 320 540C320 528.954 328.954 520 340 520Z" fill="#0D5474"/>
<path d="M380 520C391.046 520 400 528.954 400 540C400 551.046 391.046 560 380 560C368.954 560 360 551.046 360 540C360 528.954 368.954 520 380 520Z" fill="#0D5474"/>
<path d="M420 520C431.046 520 440 528.954 440 540C440 551.046 431.046 560 420 560C408.954 560 400 551.046 400 540C400 528.954 408.954 520 420 520Z" fill="#0D5474"/>
<path d="M500 520C511.046 520 520 528.954 520 540C520 551.046 511.046 560 500 560C488.954 560 480 551.046 480 540C480 528.954 488.954 520 500 520Z" fill="#0D5474"/>
<path d="M580 520C591.046 520 600 528.954 600 540C600 551.046 591.046 560 580 560C568.954 560 560 551.046 560 540C560 528.954 568.954 520 580 520Z" fill="#0D5474"/>
<path d="M620 520C631.046 520 640 528.954 640 540C640 551.046 631.046 560 620 560C608.954 560 600 551.046 600 540C600 528.954 608.954 520 620 520Z" fill="#0D5474"/>
<path d="M660 520C671.046 520 680 528.954 680 540C680 551.046 671.046 560 660 560C648.954 560 640 551.046 640 540C640 528.954 648.954 520 660 520Z" fill="#0D5474"/>
<path d="M820 520C831.046 520 840 528.954 840 540C840 551.046 831.046 560 820 560C808.954 560 800 551.046 800 540C800 528.954 808.954 520 820 520Z" fill="#0D5474"/>
<path d="M940 520C951.046 520 960 528.954 960 540C960 551.046 951.046 560 940 560C928.954 560 920 551.046 920 540C920 528.954 928.954 520 940 520Z" fill="#0D5474"/>
<path d="M20 560C31.0462 560 40 568.954 40 580C40 591.046 31.0462 600 20 600C8.9544 600 0 591.046 0 580C0 568.954 8.9544 560 20 560Z" fill="#0D5474"/>
<path d="M60 560C71.0462 560 80 568.954 80 580C80 591.046 71.0462 600 60 600C48.9544 600 40 591.046 40 580C40 568.954 48.9544 560 60 560Z" fill="#0D5474"/>
<path d="M260 560C271.046 560 280 568.954 280 580C280 591.046 271.046 600 260 600C248.954 600 240 591.046 240 580C240 568.954 248.954 560 260 560Z" fill="#0D5474"/>
<path d="M340 560C351.046 560 360 568.954 360 580C360 591.046 351.046 600 340 600C328.954 600 320 591.046 320 580C320 568.954 328.954 560 340 560Z" fill="#0D5474"/>
<path d="M380 560C391.046 560 400 568.954 400 580C400 591.046 391.046 600 380 600C368.954 600 360 591.046 360 580C360 568.954 368.954 560 380 560Z" fill="#0D5474"/>
<path d="M420 560C431.046 560 440 568.954 440 580C440 591.046 431.046 600 420 600C408.954 600 400 591.046 400 580C400 568.954 408.954 560 420 560Z" fill="#0D5474"/>
<path d="M580 560C591.046 560 600 568.954 600 580C600 591.046 591.046 600 580 600C568.954 600 560 591.046 560 580C560 568.954 568.954 560 580 560Z" fill="#0D5474"/>
<path d="M620 560C631.046 560 640 568.954 640 580C640 591.046 631.046 600 620 600C608.954 600 600 591.046 600 580C600 568.954 608.954 560 620 560Z" fill="#0D5474"/>
<path d="M700 560C711.046 560 720 568.954 720 580C720 591.046 711.046 600 700 600C688.954 600 680 591.046 680 580C680 568.954 688.954 560 700 560Z" fill="#0D5474"/>
<path d="M820 560C831.046 560 840 568.954 840 580C840 591.046 831.046 600 820 600C808.954 600 800 591.046 800 580C800 568.954 808.954 560 820 560Z" fill="#0D5474"/>
<path d="M860 560C871.046 560 880 568.954 880 580C880 591.046 871.046 600 860 600C848.954 600 840 591.046 840 580C840 568.954 848.954 560 860 560Z" fill="#0D5474"/>
<path d="M900 560C911.046 560 920 568.954 920 580C920 591.046 911.046 600 900 600C888.954 600 880 591.046 880 580C880 568.954 888.954 560 900 560Z" fill="#0D5474"/>
<path d="M940 560C951.046 560 960 568.954 960 580C960 591.046 951.046 600 940 600C928.954 600 920 591.046 920 580C920 568.954 928.954 560 940 560Z" fill="#0D5474"/>
<path d="M980 560C991.046 560 1000 568.954 1000 580C1000 591.046 991.046 600 980 600C968.954 600 960 591.046 960 580C960 568.954 968.954 560 980 560Z" fill="#0D5474"/>
<path d="M20 600C31.0462 600 40 608.954 40 620C40 631.046 31.0462 640 20 640C8.9544 640 0 631.046 0 620C0 608.954 8.9544 600 20 600Z" fill="#0D5474"/>
<path d="M100 600C111.046 600 120 608.954 120 620C120 631.046 111.046 640 100 640C88.9544 640 80 631.046 80 620C80 608.954 88.9544 600 100 600Z" fill="#0D5474"/>
<path d="M140 600C151.046 600 160 608.954 160 620C160 631.046 151.046 640 140 640C128.954 640 120 631.046 120 620C120 608.954 128.954 600 140 600Z" fill="#0D5474"/>
<path d="M220 600C231.046 600 240 608.954 240 620C240 631.046 231.046 640 220 640C208.954 640 200 631.046 200 620C200 608.954 208.954 600 220 600Z" fill="#0D5474"/>
<path d="M380 600C391.046 600 400 608.954 400 620C400 631.046 391.046 640 380 640C368.954 640 360 631.046 360 620C360 608.954 368.954 600 380 600Z" fill="#0D5474"/>
<path d="M420 600C431.046 600 440 608.954 440 620C440 631.046 431.046 640 420 640C408.954 640 400 631.046 400 620C400 608.954 408.954 600 420 600Z" fill="#0D5474"/>
<path d="M500 600C511.046 600 520 608.954 520 620C520 631.046 511.046 640 500 640C488.954 640 480 631.046 480 620C480 608.954 488.954 600 500 600Z" fill="#0D5474"/>
<path d="M540 600C551.046 600 560 608.954 560 620C560 631.046 551.046 640 540 640C528.954 640 520 631.046 520 620C520 608.954 528.954 600 540 600Z" fill="#0D5474"/>
<path d="M580 600C591.046 600 600 608.954 600 620C600 631.046 591.046 640 580 640C568.954 640 560 631.046 560 620C560 608.954 568.954 600 580 600Z" fill="#0D5474"/>
<path d="M620 600C631.046 600 640 608.954 640 620C640 631.046 631.046 640 620 640C608.954 640 600 631.046 600 620C600 608.954 608.954 600 620 600Z" fill="#0D5474"/>
<path d="M780 600C791.046 600 800 608.954 800 620C800 631.046 791.046 640 780 640C768.954 640 760 631.046 760 620C760 608.954 768.954 600 780 600Z" fill="#0D5474"/>
<path d="M860 600C871.046 600 880 608.954 880 620C880 631.046 871.046 640 860 640C848.954 640 840 631.046 840 620C840 608.954 848.954 600 860 600Z" fill="#0D5474"/>
<path d="M900 600C911.046 600 920 608.954 920 620C920 631.046 911.046 640 900 640C888.954 640 880 631.046 880 620C880 608.954 888.954 600 900 600Z" fill="#0D5474"/>
<path d="M980 600C991.046 600 1000 608.954 1000 620C1000 631.046 991.046 640 980 640C968.954 640 960 631.046 960 620C960 608.954 968.954 600 980 600Z" fill="#0D5474"/>
<path d="M20 640C31.0462 640 40 648.954 40 660C40 671.046 31.0462 680 20 680C8.9544 680 0 671.046 0 660C0 648.954 8.9544 640 20 640Z" fill="#0D5474"/>
<path d="M100 640C111.046 640 120 648.954 120 660C120 671.046 111.046 680 100 680C88.9544 680 80 671.046 80 660C80 648.954 88.9544 640 100 640Z" fill="#0D5474"/>
<path d="M140 640C151.046 640 160 648.954 160 660C160 671.046 151.046 680 140 680C128.954 680 120 671.046 120 660C120 648.954 128.954 640 140 640Z" fill="#0D5474"/>
<path d="M220 640C231.046 640 240 648.954 240 660C240 671.046 231.046 680 220 680C208.954 680 200 671.046 200 660C200 648.954 208.954 640 220 640Z" fill="#0D5474"/>
<path d="M260 640C271.046 640 280 648.954 280 660C280 671.046 271.046 680 260 680C248.954 680 240 671.046 240 660C240 648.954 248.954 640 260 640Z" fill="#0D5474"/>
<path d="M300 640C311.046 640 320 648.954 320 660C320 671.046 311.046 680 300 680C288.954 680 280 671.046 280 660C280 648.954 288.954 640 300 640Z" fill="#0D5474"/>
<path d="M380 640C391.046 640 400 648.954 400 660C400 671.046 391.046 680 380 680C368.954 680 360 671.046 360 660C360 648.954 368.954 640 380 640Z" fill="#0D5474"/>
<path d="M420 640C431.046 640 440 648.954 440 660C440 671.046 431.046 680 420 680C408.954 680 400 671.046 400 660C400 648.954 408.954 640 420 640Z" fill="#0D5474"/>
<path d="M460 640C471.046 640 480 648.954 480 660C480 671.046 471.046 680 460 680C448.954 680 440 671.046 440 660C440 648.954 448.954 640 460 640Z" fill="#0D5474"/>
<path d="M500 640C511.046 640 520 648.954 520 660C520 671.046 511.046 680 500 680C488.954 680 480 671.046 480 660C480 648.954 488.954 640 500 640Z" fill="#0D5474"/>
<path d="M660 640C671.046 640 680 648.954 680 660C680 671.046 671.046 680 660 680C648.954 680 640 671.046 640 660C640 648.954 648.954 640 660 640Z" fill="#0D5474"/>
<path d="M700 640C711.046 640 720 648.954 720 660C720 671.046 711.046 680 700 680C688.954 680 680 671.046 680 660C680 648.954 688.954 640 700 640Z" fill="#0D5474"/>
<path d="M740 640C751.046 640 760 648.954 760 660C760 671.046 751.046 680 740 680C728.954 680 720 671.046 720 660C720 648.954 728.954 640 740 640Z" fill="#0D5474"/>
<path d="M780 640C791.046 640 800 648.954 800 660C800 671.046 791.046 680 780 680C768.954 680 760 671.046 760 660C760 648.954 768.954 640 780 640Z" fill="#0D5474"/>
<path d="M820 640C831.046 640 840 648.954 840 660C840 671.046 831.046 680 820 680C808.954 680 800 671.046 800 660C800 648.954 808.954 640 820 640Z" fill="#0D5474"/>
<path d="M900 640C911.046 640 920 648.954 920 660C920 671.046 911.046 680 900 680C888.954 680 880 671.046 880 660C880 648.954 888.954 640 900 640Z" fill="#0D5474"/>
<path d="M940 640C951.046 640 960 648.954 960 660C960 671.046 951.046 680 940 680C928.954 680 920 671.046 920 660C920 648.954 928.954 640 940 640Z" fill="#0D5474"/>
<path d="M340 680C351.046 680 360 688.954 360 700C360 711.046 351.046 720 340 720C328.954 720 320 711.046 320 700C320 688.954 328.954 680 340 680Z" fill="#0D5474"/>
<path d="M460 680C471.046 680 480 688.954 480 700C480 711.046 471.046 720 460 720C448.954 720 440 711.046 440 700C440 688.954 448.954 680 460 680Z" fill="#0D5474"/>
<path d="M660 680C671.046 680 680 688.954 680 700C680 711.046 671.046 720 660 720C648.954 720 640 711.046 640 700C640 688.954 648.954 680 660 680Z" fill="#0D5474"/>
<path d="M820 680C831.046 680 840 688.954 840 700C840 711.046 831.046 720 820 720C808.954 720 800 711.046 800 700C800 688.954 808.954 680 820 680Z" fill="#0D5474"/>
<path d="M900 680C911.046 680 920 688.954 920 700C920 711.046 911.046 720 900 720C888.954 720 880 711.046 880 700C880 688.954 888.954 680 900 680Z" fill="#0D5474"/>
<path d="M940 680C951.046 680 960 688.954 960 700C960 711.046 951.046 720 940 720C928.954 720 920 711.046 920 700C920 688.954 928.954 680 940 680Z" fill="#0D5474"/>
<path d="M340 720C351.046 720 360 728.954 360 740C360 751.046 351.046 760 340 760C328.954 760 320 751.046 320 740C320 728.954 328.954 720 340 720Z" fill="#0D5474"/>
<path d="M500 720C511.046 720 520 728.954 520 740C520 751.046 511.046 760 500 760C488.954 760 480 751.046 480 740C480 728.954 488.954 720 500 720Z" fill="#0D5474"/>
<path d="M540 720C551.046 720 560 728.954 560 740C560 751.046 551.046 760 540 760C528.954 760 520 751.046 520 740C520 728.954 528.954 720 540 720Z" fill="#0D5474"/>
<path d="M580 720C591.046 720 600 728.954 600 740C600 751.046 591.046 760 580 760C568.954 760 560 751.046 560 740C560 728.954 568.954 720 580 720Z" fill="#0D5474"/>
<path d="M660 720C671.046 720 680 728.954 680 740C680 751.046 671.046 760 660 760C648.954 760 640 751.046 640 740C640 728.954 648.954 720 660 720Z" fill="#0D5474"/>
<path d="M740 720C751.046 720 760 728.954 760 740C760 751.046 751.046 760 740 760C728.954 760 720 751.046 720 740C720 728.954 728.954 720 740 720Z" fill="#0D5474"/>
<path d="M820 720C831.046 720 840 728.954 840 740C840 751.046 831.046 760 820 760C808.954 760 800 751.046 800 740C800 728.954 808.954 720 820 720Z" fill="#0D5474"/>
<path d="M980 720C991.046 720 1000 728.954 1000 740C1000 751.046 991.046 760 980 760C968.954 760 960 751.046 960 740C960 728.954 968.954 720 980 720Z" fill="#0D5474"/>
<path d="M340 760C351.046 760 360 768.954 360 780C360 791.046 351.046 800 340 800C328.954 800 320 791.046 320 780C320 768.954 328.954 760 340 760Z" fill="#0D5474"/>
<path d="M420 760C431.046 760 440 768.954 440 780C440 791.046 431.046 800 420 800C408.954 800 400 791.046 400 780C400 768.954 408.954 760 420 760Z" fill="#0D5474"/>
<path d="M460 760C471.046 760 480 768.954 480 780C480 791.046 471.046 800 460 800C448.954 800 440 791.046 440 780C440 768.954 448.954 760 460 760Z" fill="#0D5474"/>
<path d="M540 760C551.046 760 560 768.954 560 780C560 791.046 551.046 800 540 800C528.954 800 520 791.046 520 780C520 768.954 528.954 760 540 760Z" fill="#0D5474"/>
<path d="M660 760C671.046 760 680 768.954 680 780C680 791.046 671.046 800 660 800C648.954 800 640 791.046 640 780C640 768.954 648.954 760 660 760Z" fill="#0D5474"/>
<path d="M820 760C831.046 760 840 768.954 840 780C840 791.046 831.046 800 820 800C808.954 800 800 791.046 800 780C800 768.954 808.954 760 820 760Z" fill="#0D5474"/>
<path d="M980 760C991.046 760 1000 768.954 1000 780C1000 791.046 991.046 800 980 800C968.954 800 960 791.046 960 780C960 768.954 968.954 760 980 760Z" fill="#0D5474"/>
<path d="M340 800C351.046 800 360 808.954 360 820C360 831.046 351.046 840 340 840C328.954 840 320 831.046 320 820C320 808.954 328.954 800 340 800Z" fill="#0D5474"/>
<path d="M380 800C391.046 800 400 808.954 400 820C400 831.046 391.046 840 380 840C368.954 840 360 831.046 360 820C360 808.954 368.954 800 380 800Z" fill="#0D5474"/>
<path d="M460 800C471.046 800 480 808.954 480 820C480 831.046 471.046 840 460 840C448.954 840 440 831.046 440 820C440 808.954 448.954 800 460 800Z" fill="#0D5474"/>
<path d="M540 800C551.046 800 560 808.954 560 820C560 831.046 551.046 840 540 840C528.954 840 520 831.046 520 820C520 808.954 528.954 800 540 800Z" fill="#0D5474"/>
<path d="M620 800C631.046 800 640 808.954 640 820C640 831.046 631.046 840 620 840C608.954 840 600 831.046 600 820C600 808.954 608.954 800 620 800Z" fill="#0D5474"/>
<path d="M660 800C671.046 800 680 808.954 680 820C680 831.046 671.046 840 660 840C648.954 840 640 831.046 640 820C640 808.954 648.954 800 660 800Z" fill="#0D5474"/>
<path d="M700 800C711.046 800 720 808.954 720 820C720 831.046 711.046 840 700 840C688.954 840 680 831.046 680 820C680 808.954 688.954 800 700 800Z" fill="#0D5474"/>
<path d="M740 800C751.046 800 760 808.954 760 820C760 831.046 751.046 840 740 840C728.954 840 720 831.046 720 820C720 808.954 728.954 800 740 800Z" fill="#0D5474"/>
<path d="M780 800C791.046 800 800 808.954 800 820C800 831.046 791.046 840 780 840C768.954 840 760 831.046 760 820C760 808.954 768.954 800 780 800Z" fill="#0D5474"/>
<path d="M820 800C831.046 800 840 808.954 840 820C840 831.046 831.046 840 820 840C808.954 840 800 831.046 800 820C800 808.954 808.954 800 820 800Z" fill="#0D5474"/>
<path d="M940 800C951.046 800 960 808.954 960 820C960 831.046 951.046 840 940 840C928.954 840 920 831.046 920 820C920 808.954 928.954 800 940 800Z" fill="#0D5474"/>
<path d="M980 800C991.046 800 1000 808.954 1000 820C1000 831.046 991.046 840 980 840C968.954 840 960 831.046 960 820C960 808.954 968.954 800 980 800Z" fill="#0D5474"/>
<path d="M340 840C351.046 840 360 848.954 360 860C360 871.046 351.046 880 340 880C328.954 880 320 871.046 320 860C320 848.954 328.954 840 340 840Z" fill="#0D5474"/>
<path d="M500 840C511.046 840 520 848.954 520 860C520 871.046 511.046 880 500 880C488.954 880 480 871.046 480 860C480 848.954 488.954 840 500 840Z" fill="#0D5474"/>
<path d="M540 840C551.046 840 560 848.954 560 860C560 871.046 551.046 880 540 880C528.954 880 520 871.046 520 860C520 848.954 528.954 840 540 840Z" fill="#0D5474"/>
<path d="M620 840C631.046 840 640 848.954 640 860C640 871.046 631.046 880 620 880C608.954 880 600 871.046 600 860C600 848.954 608.954 840 620 840Z" fill="#0D5474"/>
<path d="M660 840C671.046 840 680 848.954 680 860C680 871.046 671.046 880 660 880C648.954 880 640 871.046 640 860C640 848.954 648.954 840 660 840Z" fill="#0D5474"/>
<path d="M700 840C711.046 840 720 848.954 720 860C720 871.046 711.046 880 700 880C688.954 880 680 871.046 680 860C680 848.954 688.954 840 700 840Z" fill="#0D5474"/>
<path d="M740 840C751.046 840 760 848.954 760 860C760 871.046 751.046 880 740 880C728.954 880 720 871.046 720 860C720 848.954 728.954 840 740 840Z" fill="#0D5474"/>
<path d="M940 840C951.046 840 960 848.954 960 860C960 871.046 951.046 880 940 880C928.954 880 920 871.046 920 860C920 848.954 928.954 840 940 840Z" fill="#0D5474"/>
<path d="M980 840C991.046 840 1000 848.954 1000 860C1000 871.046 991.046 880 980 880C968.954 880 960 871.046 960 860C960 848.954 968.954 840 980 840Z" fill="#0D5474"/>
<path d="M380 880C391.046 880 400 888.954 400 900C400 911.046 391.046 920 380 920C368.954 920 360 911.046 360 900C360 888.954 368.954 880 380 880Z" fill="#0D5474"/>
<path d="M420 880C431.046 880 440 888.954 440 900C440 911.046 431.046 920 420 920C408.954 920 400 911.046 400 900C400 888.954 408.954 880 420 880Z" fill="#0D5474"/>
<path d="M460 880C471.046 880 480 888.954 480 900C480 911.046 471.046 920 460 920C448.954 920 440 911.046 440 900C440 888.954 448.954 880 460 880Z" fill="#0D5474"/>
<path d="M540 880C551.046 880 560 888.954 560 900C560 911.046 551.046 920 540 920C528.954 920 520 911.046 520 900C520 888.954 528.954 880 540 880Z" fill="#0D5474"/>
<path d="M620 880C631.046 880 640 888.954 640 900C640 911.046 631.046 920 620 920C608.954 920 600 911.046 600 900C600 888.954 608.954 880 620 880Z" fill="#0D5474"/>
<path d="M660 880C671.046 880 680 888.954 680 900C680 911.046 671.046 920 660 920C648.954 920 640 911.046 640 900C640 888.954 648.954 880 660 880Z" fill="#0D5474"/>
<path d="M700 880C711.046 880 720 888.954 720 900C720 911.046 711.046 920 700 920C688.954 920 680 911.046 680 900C680 888.954 688.954 880 700 880Z" fill="#0D5474"/>
<path d="M820 880C831.046 880 840 888.954 840 900C840 911.046 831.046 920 820 920C808.954 920 800 911.046 800 900C800 888.954 808.954 880 820 880Z" fill="#0D5474"/>
<path d="M860 880C871.046 880 880 888.954 880 900C880 911.046 871.046 920 860 920C848.954 920 840 911.046 840 900C840 888.954 848.954 880 860 880Z" fill="#0D5474"/>
<path d="M900 880C911.046 880 920 888.954 920 900C920 911.046 911.046 920 900 920C888.954 920 880 911.046 880 900C880 888.954 888.954 880 900 880Z" fill="#0D5474"/>
<path d="M940 880C951.046 880 960 888.954 960 900C960 911.046 951.046 920 940 920C928.954 920 920 911.046 920 900C920 888.954 928.954 880 940 880Z" fill="#0D5474"/>
<path d="M980 880C991.046 880 1000 888.954 1000 900C1000 911.046 991.046 920 980 920C968.954 920 960 911.046 960 900C960 888.954 968.954 880 980 880Z" fill="#0D5474"/>
<path d="M380 920C391.046 920 400 928.954 400 940C400 951.046 391.046 960 380 960C368.954 960 360 951.046 360 940C360 928.954 368.954 920 380 920Z" fill="#0D5474"/>
<path d="M420 920C431.046 920 440 928.954 440 940C440 951.046 431.046 960 420 960C408.954 960 400 951.046 400 940C400 928.954 408.954 920 420 920Z" fill="#0D5474"/>
<path d="M460 920C471.046 920 480 928.954 480 940C480 951.046 471.046 960 460 960C448.954 960 440 951.046 440 940C440 928.954 448.954 920 460 920Z" fill="#0D5474"/>
<path d="M500 920C511.046 920 520 928.954 520 940C520 951.046 511.046 960 500 960C488.954 960 480 951.046 480 940C480 928.954 488.954 920 500 920Z" fill="#0D5474"/>
<path d="M540 920C551.046 920 560 928.954 560 940C560 951.046 551.046 960 540 960C528.954 960 520 951.046 520 940C520 928.954 528.954 920 540 920Z" fill="#0D5474"/>
<path d="M620 920C631.046 920 640 928.954 640 940C640 951.046 631.046 960 620 960C608.954 960 600 951.046 600 940C600 928.954 608.954 920 620 920Z" fill="#0D5474"/>
<path d="M740 920C751.046 920 760 928.954 760 940C760 951.046 751.046 960 740 960C728.954 960 720 951.046 720 940C720 928.954 728.954 920 740 920Z" fill="#0D5474"/>
<path d="M780 920C791.046 920 800 928.954 800 940C800 951.046 791.046 960 780 960C768.954 960 760 951.046 760 940C760 928.954 768.954 920 780 920Z" fill="#0D5474"/>
<path d="M820 920C831.046 920 840 928.954 840 940C840 951.046 831.046 960 820 960C808.954 960 800 951.046 800 940C800 928.954 808.954 920 820 920Z" fill="#0D5474"/>
<path d="M900 920C911.046 920 920 928.954 920 940C920 951.046 911.046 960 900 960C888.954 960 880 951.046 880 940C880 928.954 888.954 920 900 920Z" fill="#0D5474"/>
<path d="M940 920C951.046 920 960 928.954 960 940C960 951.046 951.046 960 940 960C928.954 960 920 951.046 920 940C920 928.954 928.954 920 940 920Z" fill="#0D5474"/>
<path d="M980 920C991.046 920 1000 928.954 1000 940C1000 951.046 991.046 960 980 960C968.954 960 960 951.046 960 940C960 928.954 968.954 920 980 920Z" fill="#0D5474"/>
<path d="M340 960C351.046 960 360 968.954 360 980C360 991.046 351.046 1000 340 1000C328.954 1000 320 991.046 320 980C320 968.954 328.954 960 340 960Z" fill="#0D5474"/>
<path d="M460 960C471.046 960 480 968.954 480 980C480 991.046 471.046 1000 460 1000C448.954 1000 440 991.046 440 980C440 968.954 448.954 960 460 960Z" fill="#0D5474"/>
<path d="M500 960C511.046 960 520 968.954 520 980C520 991.046 511.046 1000 500 1000C488.954 1000 480 991.046 480 980C480 968.954 488.954 960 500 960Z" fill="#0D5474"/>
<path d="M540 960C551.046 960 560 968.954 560 980C560 991.046 551.046 1000 540 1000C528.954 1000 520 991.046 520 980C520 968.954 528.954 960 540 960Z" fill="#0D5474"/>
<path d="M660 960C671.046 960 680 968.954 680 980C680 991.046 671.046 1000 660 1000C648.954 1000 640 991.046 640 980C640 968.954 648.954 960 660 960Z" fill="#0D5474"/>
<path d="M860 960C871.046 960 880 968.954 880 980C880 991.046 871.046 1000 860 1000C848.954 1000 840 991.046 840 980C840 968.954 848.954 960 860 960Z" fill="#0D5474"/>
<path d="M980 960C991.046 960 1000 968.954 1000 980C1000 991.046 991.046 1000 980 1000C968.954 1000 960 991.046 960 980C960 968.954 968.954 960 980 960Z" fill="#0D5474"/>
<path d="M4.76837e-06 185.419V94.5C4.76837e-06 42.3948 42.896 0 95.5948 0H184.408C237.104 0 280 42.3948 280 94.5V280L95.5948 279.944C42.896 279.944 4.76837e-06 237.552 4.76837e-06 185.419ZM42 185.419C42 214.382 66.0408 237.947 95.606 237.947L238 237.989V94.5C238 65.5508 213.959 42 184.408 42H95.5948C66.0408 42 42 65.5508 42 94.5V185.419Z" fill="#0D5474"/>
<path d="M1000 185.419V94.5C1000 42.3948 957.104 0 904.405 0H815.592C762.896 0 720 42.3948 720 94.5V280L904.405 279.944C957.104 279.944 1000 237.552 1000 185.419ZM958 185.419C958 214.382 933.959 237.947 904.394 237.947L762 237.989V94.5C762 65.5508 786.041 42 815.592 42H904.405C933.959 42 958 65.5508 958 94.5V185.419Z" fill="#0D5474"/>
<path d="M4.76837e-06 814.581V905.5C4.76837e-06 957.605 42.896 1000 95.5948 1000H184.408C237.104 1000 280 957.605 280 905.5V720L95.5948 720.056C42.896 720.056 4.76837e-06 762.448 4.76837e-06 814.581ZM42 814.581C42 785.618 66.0408 762.053 95.606 762.053L238 762.011V905.5C238 934.449 213.959 958 184.408 958H95.5948C66.0408 958 42 934.449 42 905.5V814.581Z" fill="#0D5474"/>
<path d="M80 167.335V112.634C80 94.6436 94.8752 80 113.156 80H166.844C185.124 80 200 94.6436 200 112.634V200L113.156 199.95C94.8752 199.95 80 185.325 80 167.335Z" fill="#0D5474"/>
<path d="M920 167.335V112.634C920 94.6436 905.125 80 886.844 80H833.156C814.876 80 800 94.6436 800 112.634V200L886.844 199.95C905.125 199.95 920 185.325 920 167.335Z" fill="#0D5474"/>
<path d="M80 832.665V887.366C80 905.356 94.8752 920 113.156 920H166.844C185.124 920 200 905.356 200 887.366V800L113.156 800.05C94.8752 800.05 80 814.675 80 832.665Z" fill="#0D5474"/>
</svg>
