<svg width="1920" height="954" viewBox="0 0 1920 954" fill="none" xmlns="http://www.w3.org/2000/svg">
<g clip-path="url(#clip0_2_2)">
<path d="M154.979 781.87L215.057 833.144V957.29H26.1818V848.734L97.4836 781.87H154.979Z" fill="#111827"/>
<path d="M250.368 915.193L261.591 926.873L250.106 939.364V953.5H229.876V939.626L250.368 915.193Z" fill="#111827"/>
<path d="M1619 619.691C1619 619.691 1608.8 673.666 1594.92 684.92C1589.8 689.069 1568.64 688.909 1568.64 688.909C1568.64 688.909 1559.28 855.462 1570.18 909.258C1571.95 918.037 1577.28 933.173 1580.85 940.634C1583.71 946.618 1593.54 963.001 1594.75 964.977H1488.11C1489.32 963.001 1499.22 946.6 1502.17 940.634C1505.83 933.209 1511.63 917.77 1512.86 909.258C1520.27 856.245 1514.26 688.909 1514.26 688.909C1514.26 688.909 1493.28 688.98 1488.01 684.884C1473.74 673.737 1464 619.691 1464 619.691C1464 619.691 1484.91 610.111 1490.88 604.146C1493.39 601.652 1496.73 589.508 1496.73 589.508H1520.39L1520.53 569.955H1532.26L1541.49 365.508L1550.76 569.955L1562.49 569.813L1562.63 589.508H1586.28C1586.28 589.508 1590.07 601.563 1592.15 604.146C1596.67 609.844 1619 619.691 1619 619.691Z" fill="#111827"/>
<path d="M1101.95 751.668L1298.62 749.177V965.419H715.636V749.177L916.216 751.668L916.364 625.639L934.086 526.809L954.891 625.639V751.668L1008.58 625.639L1063.42 751.668V625.639L1081.14 526.809L1101.95 625.639V751.668Z" fill="#111827"/>
<path d="M963.665 949.638H960.838V953.5H963.665V949.638Z" fill="#111827"/>
<path d="M1848.26 807.897C1848.26 811.02 1846.41 813.999 1843.02 816.741V965.415H1694.24V816.741C1690.85 813.999 1689 811.02 1689 807.897C1689 794.191 1724.66 783.106 1768.63 783.106C1812.6 783.106 1848.26 794.191 1848.26 807.897Z" fill="#111827"/>
<path d="M645.661 957.934V666.044L634.979 634.078L624.506 666.044L624 699.416H598.01L590.889 673.219L578.653 718.701L579.91 814.17H565.684L560.186 764.04L550.586 814.17L524.317 741.465L497.873 814.17L486.929 764.04L482.775 814.17H468.55L467.276 718.701L456.227 673.219L448.774 700.608H423.447L423.953 666.044L412.573 634.078L401.455 666.044V957.934" fill="#111827"/>
<path d="M232.285 958.553C237.182 958.553 241.152 953.132 241.152 946.444C241.152 939.756 237.182 934.335 232.285 934.335C227.388 934.335 223.418 939.756 223.418 946.444C223.418 953.132 227.388 958.553 232.285 958.553Z" fill="#111827"/>
<path d="M1268.95 5.64516L1171.11 203.448L1267.23 205.122L1079.7 531.705L1154.68 268.308L1059.49 267.974L1168.07 -33.3726C1168.07 -33.3726 1196.52 -32.2907 1221 -22.8832C1245.41 -13.4992 1268.95 5.64516 1268.95 5.64516Z" fill="#111827"/>
<path d="M745.309 5.64516L843.146 203.448L747.021 205.122L934.556 531.705L859.572 268.308L954.764 267.974L846.184 -33.3726C846.184 -33.3726 817.731 -32.2907 793.256 -22.8832C768.847 -13.4992 745.309 5.64516 745.309 5.64516Z" fill="#111827"/>
<rect x="298.473" y="793.789" width="59.3455" height="159.711" fill="#111827"/>
<rect x="298.473" y="881.987" width="17.4545" height="2.38375" fill="#FAB658"/>
<rect width="13.7232" height="2.08912" transform="matrix(0.590785 -0.806829 0.590785 0.806829 314.182 882.157)" fill="#FAB658"/>
<rect width="27.1983" height="1.76807" transform="matrix(-0.128049 -0.991768 0.972209 -0.234116 324.646 899.986)" fill="#FAB658"/>
<rect width="31.8883" height="1.92497" transform="matrix(0.389387 -0.921074 0.785262 0.619164 324.655 899.44)" fill="#FAB658"/>
<rect x="342.109" y="881.987" width="15.7091" height="2.38375" fill="#FAB658"/>
<rect width="13.965" height="1.92497" transform="matrix(-0.389387 -0.921074 0.785262 -0.619164 341.973 883.326)" fill="#FAB658"/>
<path d="M357.318 793.789C357.318 793.892 357.253 794.084 356.907 794.356C356.568 794.622 356.039 794.9 355.309 795.177C353.854 795.73 351.72 796.237 349.048 796.666C343.712 797.524 336.321 798.056 328.145 798.056C319.97 798.056 312.579 797.524 307.243 796.666C304.571 796.237 302.437 795.73 300.982 795.177C300.252 794.9 299.722 794.622 299.384 794.356C299.038 794.084 298.973 793.892 298.973 793.789C298.973 793.686 299.038 793.493 299.384 793.221C299.722 792.956 300.252 792.678 300.982 792.4C302.437 791.848 304.571 791.341 307.243 790.911C312.579 790.054 319.97 789.521 328.145 789.521C336.321 789.521 343.712 790.054 349.048 790.911C351.72 791.341 353.854 791.848 355.309 792.4C356.039 792.678 356.568 792.956 356.907 793.221C357.253 793.493 357.318 793.686 357.318 793.789Z" fill="#111827" stroke="#111827"/>
</g>
<defs>
<clipPath id="clip0_2_2">
<rect width="1920" height="953.5" fill="white"/>
</clipPath>
</defs>
</svg>
