<svg width="123" height="112" viewBox="0 0 123 112" fill="none" xmlns="http://www.w3.org/2000/svg">
<g clip-path="url(#clip0_91_2)">
<path d="M2.34923 84.42L45.2792 10.2L45.4492 9.93001C47.2334 7.02388 49.6416 4.55086 52.4992 2.69001C55.2071 0.953221 58.3523 0.0204303 61.5692 1.31851e-05C64.8023 -0.0040486 67.967 0.930425 70.6792 2.69001C73.5255 4.5569 75.9174 7.03763 77.6792 9.95001C77.8059 10.1633 77.9259 10.3733 78.0392 10.58L120.269 83.92L120.509 84.36C122.09 87.523 122.902 91.0142 122.879 94.55C122.859 97.4701 122.113 100.339 120.709 102.9C119.13 105.758 116.711 108.062 113.779 109.5C113.589 109.6 113.389 109.68 113.199 109.76C110.329 111.009 107.218 111.607 104.089 111.51H17.6092C17.3892 111.51 17.1692 111.51 16.9592 111.51C14.8411 111.493 12.7425 111.104 10.7592 110.36C7.60546 109.165 4.89603 107.029 2.99923 104.24C1.08857 101.41 0.0458946 98.0841 -0.000766732 94.67C-0.0501345 91.6824 0.483136 88.7137 1.56923 85.93C1.76925 85.3997 2.0275 84.8933 2.33923 84.42H2.34923Z" fill="#CF1F25"/>
<path fill-rule="evenodd" clip-rule="evenodd" d="M8.99933 88.7501L52.1193 14.1601C57.3593 5.91005 65.6593 5.70005 70.9893 14.1601L113.419 87.8501C116.809 94.6601 115.129 103.85 104.089 103.62H17.6093C10.3493 103.8 5.66933 97.4301 8.99933 88.7501Z" fill="#FEC901"/>
<path d="M57.5704 83.78C58.4929 82.8672 59.7071 82.3079 61.0004 82.2C61.8171 82.1431 62.6363 82.266 63.4004 82.56C64.1513 82.8474 64.8329 83.2904 65.4004 83.86C66.0476 84.5031 66.5267 85.2956 66.7952 86.1675C67.0638 87.0395 67.1137 87.9642 66.9404 88.86C66.8521 89.3245 66.7112 89.7774 66.5204 90.21C66.0669 91.2061 65.3299 92.0466 64.4015 92.6264C63.4732 93.2062 62.3945 93.4996 61.3004 93.47C60.5154 93.451 59.7427 93.2706 59.0304 92.94C57.7757 92.3419 56.7934 91.2918 56.2804 90C56.1067 89.5937 55.9857 89.1669 55.9204 88.73C55.8512 88.297 55.8311 87.8575 55.8604 87.42C55.9423 86.7272 56.1348 86.0519 56.4304 85.42C56.6983 84.8266 57.0865 84.2954 57.5704 83.86V83.78ZM65.7204 73.54C65.5304 78.33 57.4104 78.34 57.2304 73.54C56.4104 65.33 54.3104 44.2 54.3704 36.49C54.4404 34.11 56.3704 32.7 58.9304 32.16C60.5809 31.8321 62.2799 31.8321 63.9304 32.16C66.5404 32.72 68.5804 34.16 68.5804 36.6V36.84L65.7204 73.54Z" fill="#010101"/>
</g>
<defs>
<clipPath id="clip0_91_2">
<rect width="122.88" height="111.54" fill="white"/>
</clipPath>
</defs>
</svg>
