<svg width="493" height="85" viewBox="0 0 493 85" fill="none" xmlns="http://www.w3.org/2000/svg">
<path d="M59.6975 60.9021L62.6098 60.3661C62.6098 60.3661 69.6769 78.6377 66.2821 80.3163C64.614 81.1414 59.6318 84.2411 59.6975 60.9021Z" fill="#FAB217"/>
<path d="M60.4754 32.4246C60.4754 32.4246 48.4175 32.1433 48.1245 39.9936C47.9966 43.4123 51.6495 67.7257 53.1774 67.4444C54.7054 67.1632 70.427 66.2242 70.5844 64.2403C70.7903 61.6662 67.3364 28.5031 60.4754 32.4246Z" fill="#EF5451"/>
<path d="M63.2008 30.9227C63.2008 30.9227 50.8522 31.6416 48.7097 34.5904C46.5661 37.5393 48.7468 48.9784 49.0566 49.9563C49.3659 50.9344 51.0136 53.5458 52.8534 52.8121C54.6932 52.0783 55.3392 48.2921 57.2755 48.9399C59.2114 49.5878 58.3545 54.8013 60.5358 54.6366C62.7172 54.4719 59.5273 47.8713 61.2505 47.7909C62.9738 47.7105 69.0495 51.5472 68.8902 49.3859C68.6893 46.671 66.701 30.6024 63.2008 30.9227Z" fill="#F5BBAF"/>
<path d="M10.8182 42.8594L36.3826 49.7127L31.7192 78.9036L19.9047 75.7379L19.6532 59.6964L13.3957 73.9938L-0.000104329 70.4044L10.8182 42.8594Z" fill="#98D5CC"/>
<path d="M35.4895 55.3009L8.81671 48.154L10.818 42.8594L36.3824 49.7126L35.4895 55.3009Z" fill="#EF5451"/>
<path d="M17.5701 56.8564C17.3621 56.8007 17.2105 56.6486 17.1449 56.4283C16.6917 54.9214 21.515 50.5841 22.4866 49.7301C22.5691 49.6566 22.685 49.6362 22.7895 49.6785C22.8927 49.7198 22.9632 49.8157 22.9718 49.9262C23.1322 51.9055 20.9123 54.7407 19.3607 56.0339C18.5773 56.6875 17.9735 56.9645 17.5701 56.8564ZM22.3445 50.6419C19.817 52.9339 17.49 55.5441 17.7055 56.2593C17.7117 56.279 17.7179 56.2888 17.7195 56.2909L17.7218 56.2904C17.8304 56.3195 18.2352 56.21 18.986 55.5842C20.3128 54.4773 22.032 52.3037 22.3445 50.6419Z" fill="white"/>
<path d="M24.177 58.6268C23.7732 58.5185 23.3893 57.9768 23.0373 57.0185C22.34 55.1232 21.8352 51.5575 22.9637 49.9241C23.0264 49.8327 23.1354 49.7848 23.2454 49.8006C23.357 49.8163 23.4472 49.8919 23.4819 49.9968C23.8963 51.2222 25.9053 57.3902 24.7589 58.4684C24.5919 58.6264 24.3846 58.6824 24.177 58.6268ZM23.1483 50.8584C22.5887 52.4534 22.9909 55.1949 23.5869 56.8171C23.9233 57.7341 24.2196 58.0315 24.3287 58.0608C24.3323 58.0617 24.3333 58.062 24.3333 58.062C24.3324 58.0612 24.3431 58.0559 24.3578 58.0418C24.9513 57.4832 24.0613 53.7148 23.1483 50.8584Z" fill="white"/>
<path d="M264.462 61.2832C264.462 61.2832 267.281 53.3019 272.063 55.3301C276.844 57.3577 271.642 62.0919 264.462 61.2832Z" fill="#9D3522"/>
<path d="M268.942 62.8742C268.942 62.8742 271.761 54.893 276.542 56.9211C281.324 58.9488 276.122 63.6835 268.942 62.8742Z" fill="#9D3522"/>
<path d="M272.37 65.4609C272.37 65.4609 275.189 57.4791 279.97 59.5073C284.752 61.535 279.549 66.2697 272.37 65.4609Z" fill="#9D3522"/>
<path d="M264.616 71.4335C264.616 71.4335 264.104 79.8825 269.298 79.8762C274.493 79.8709 271.544 73.4839 264.616 71.4335Z" fill="#9D3522"/>
<path d="M269.362 71.7128C269.362 71.7128 268.849 80.1612 274.044 80.1549C279.237 80.1485 276.289 73.7621 269.362 71.7128Z" fill="#9D3522"/>
<path d="M273.526 70.6644C273.526 70.6644 273.014 79.1134 278.208 79.1071C283.402 79.1013 280.453 72.7148 273.526 70.6644Z" fill="#9D3522"/>
<path d="M285 69.9074C285 69.9074 278.981 59.4171 271.167 58.6828C263.355 57.9479 258.351 70.279 258.351 70.279C258.351 70.279 270.106 86.4517 285 69.9074Z" fill="#98D5CC"/>
<path d="M265.223 66.2179C265.223 66.9095 264.662 67.469 263.972 67.469C263.28 67.469 262.721 66.9089 262.721 66.2179C262.721 65.5269 263.281 64.9668 263.972 64.9668C264.662 64.9668 265.223 65.5274 265.223 66.2179Z" fill="#9D3522"/>
<path d="M259.855 70.762C259.855 70.762 257.539 66.6793 256.722 67.4696C255.904 68.2598 258.351 70.279 258.351 70.279C258.351 70.279 255.516 71.9303 256.072 72.3347C256.628 72.738 259.262 72.0132 259.855 70.762Z" fill="#EE3A4C"/>
<path d="M270.106 72.6272C270.078 72.6272 270.051 72.6229 270.023 72.615C269.867 72.5686 269.78 72.4054 269.826 72.2502C271.092 68.0324 269.136 64.42 269.117 64.3841C269.039 64.2426 269.09 64.0647 269.231 63.986C269.373 63.9084 269.551 63.9586 269.629 64.1001C269.716 64.2558 271.727 67.9569 270.387 72.4192C270.349 72.5453 270.234 72.6272 270.106 72.6272Z" fill="#CC5B40"/>
<path d="M274.175 65.2044C274.125 65.2044 274.075 65.1922 274.029 65.1658C273.888 65.0851 273.841 64.9061 273.922 64.7652C274.203 64.2758 274.285 63.8572 274.167 63.5198C274.015 63.0875 273.566 62.9075 273.561 62.9059C273.412 62.8473 273.336 62.6778 273.394 62.5274C273.452 62.3769 273.619 62.3009 273.77 62.3585C273.799 62.369 274.471 62.6293 274.717 63.3171C274.9 63.8244 274.803 64.4099 274.43 65.0581C274.375 65.1521 274.276 65.2044 274.175 65.2044Z" fill="#CC5B40"/>
<path d="M274.175 69.3716C274.125 69.3716 274.075 69.3594 274.029 69.3325C273.888 69.2522 273.841 69.0733 273.922 68.9323C274.203 68.443 274.285 68.0238 274.167 67.6871C274.015 67.2547 273.566 67.0747 273.561 67.0726C273.412 67.0145 273.336 66.8451 273.394 66.6946C273.452 66.5442 273.619 66.4676 273.77 66.5251C273.799 66.5362 274.471 66.796 274.717 67.4843C274.9 67.9916 274.803 68.5771 274.43 69.2248C274.375 69.3188 274.276 69.3716 274.175 69.3716Z" fill="#CC5B40"/>
<path d="M273.752 73.7668C273.702 73.7668 273.651 73.7542 273.606 73.7278C273.466 73.6475 273.418 73.468 273.498 73.3276C273.779 72.8383 273.862 72.4191 273.744 72.0823C273.592 71.6494 273.142 71.4694 273.138 71.4678C272.988 71.4092 272.912 71.2398 272.97 71.0893C273.028 70.9389 273.196 70.8629 273.347 70.9204C273.376 70.931 274.047 71.1912 274.294 71.8791C274.476 72.3864 274.379 72.9718 274.007 73.6201C273.952 73.714 273.853 73.7668 273.752 73.7668Z" fill="#CC5B40"/>
<path d="M277.603 67.6512C277.553 67.6512 277.503 67.6385 277.457 67.6121C277.317 67.5319 277.269 67.3524 277.349 67.212C277.631 66.7226 277.713 66.3035 277.596 65.9667C277.443 65.5343 276.993 65.3538 276.99 65.3522C276.84 65.2936 276.764 65.1241 276.822 64.9737C276.879 64.8238 277.048 64.7472 277.198 64.8048C277.227 64.8153 277.898 65.0756 278.146 65.7634C278.327 66.2707 278.231 66.8562 277.858 67.5044C277.803 67.5989 277.704 67.6512 277.603 67.6512Z" fill="#CC5B40"/>
<path d="M277.603 72.7902C277.553 72.7902 277.503 72.7781 277.457 72.7517C277.317 72.6709 277.269 72.492 277.349 72.351C277.631 71.8617 277.713 71.443 277.596 71.1057C277.443 70.6734 276.993 70.4933 276.99 70.4918C276.84 70.4332 276.764 70.2637 276.822 70.1133C276.879 69.9628 277.048 69.8868 277.198 69.9443C277.227 69.9549 277.898 70.2151 278.146 70.903C278.327 71.4103 278.231 71.9957 277.858 72.644C277.803 72.738 277.704 72.7902 277.603 72.7902Z" fill="#CC5B40"/>
<path d="M280.161 70.5113C280.112 70.5113 280.061 70.4987 280.015 70.4723C279.875 70.392 279.827 70.2125 279.908 70.0721C280.189 69.5828 280.272 69.1636 280.153 68.8268C280.001 68.3945 279.552 68.2139 279.547 68.2124C279.398 68.1538 279.322 67.9843 279.38 67.8339C279.438 67.6834 279.605 67.6074 279.756 67.6649C279.785 67.6755 280.457 67.9357 280.703 68.6236C280.886 69.1309 280.789 69.7163 280.416 70.3646C280.361 70.4586 280.263 70.5113 280.161 70.5113Z" fill="#CC5B40"/>
<path d="M284.567 69.6403C284.567 69.6403 287.385 62.3352 290.639 62.3653C293.895 62.3949 296.495 71.2688 284.567 69.6403Z" fill="#9D3522"/>
<path d="M284.428 69.6793C284.428 69.6793 292.835 71.8273 292.949 74.6954C293.064 77.5629 283.126 80.2573 284.428 69.6793Z" fill="#9D3522"/>
<path d="M38.9112 12.2832C38.9112 12.2832 36.0922 4.30191 31.3111 6.33008C26.5294 8.35773 31.7324 13.0919 38.9112 12.2832Z" fill="#9D3522"/>
<path d="M34.4315 13.8742C34.4315 13.8742 31.613 5.89297 26.8314 7.92115C22.0497 9.94879 27.2526 14.6835 34.4315 13.8742Z" fill="#9D3522"/>
<path d="M31.0046 16.4609C31.0046 16.4609 28.1856 8.47913 23.4044 10.5073C18.6228 12.535 23.8252 17.2697 31.0046 16.4609Z" fill="#9D3522"/>
<path d="M38.7576 22.4335C38.7576 22.4335 39.2696 30.8825 34.0757 30.8762C28.8812 30.8709 31.83 24.4839 38.7576 22.4335Z" fill="#9D3522"/>
<path d="M34.0117 22.7128C34.0117 22.7128 34.5243 31.1612 29.3298 31.1549C24.1364 31.1485 27.0852 24.7621 34.0117 22.7128Z" fill="#9D3522"/>
<path d="M29.8485 21.6644C29.8485 21.6644 30.3601 30.1134 25.1661 30.1071C19.9721 30.1013 22.921 23.7148 29.8485 21.6644Z" fill="#9D3522"/>
<path d="M18.3733 20.9074C18.3733 20.9074 24.3929 10.4171 32.2063 9.68277C40.0191 8.94794 45.0231 21.2791 45.0231 21.2791C45.0231 21.2791 33.2673 37.4517 18.3733 20.9074Z" fill="#F5BBAF"/>
<path d="M39.403 18.469C40.0939 18.469 40.6541 17.9089 40.6541 17.2179C40.6541 16.5269 40.0939 15.9668 39.403 15.9668C38.712 15.9668 38.1519 16.5269 38.1519 17.2179C38.1519 17.9089 38.712 18.469 39.403 18.469Z" fill="#9D3522"/>
<path d="M43.5193 21.762C43.5193 21.762 45.8352 17.6793 46.6529 18.4696C47.4706 19.2598 45.0238 21.279 45.0238 21.279C45.0238 21.279 47.8581 22.9303 47.3022 23.3341C46.7463 23.738 44.1121 23.0132 43.5193 21.762Z" fill="#EE3A4C"/>
<path d="M33.2674 23.6271C33.2954 23.6271 33.3228 23.6229 33.3508 23.615C33.5066 23.5685 33.5942 23.4054 33.5477 23.2502C32.2818 19.0323 34.2377 15.4199 34.2572 15.384C34.3354 15.2425 34.2841 15.0641 34.1427 14.986C34.0012 14.9084 33.8233 14.9585 33.7446 15.1C33.6581 15.2557 31.6473 18.9568 32.9866 23.4191C33.0246 23.5453 33.1407 23.6271 33.2674 23.6271Z" fill="#CC5B40"/>
<path d="M29.1991 16.2043C29.2487 16.2043 29.2989 16.1922 29.3453 16.1658C29.4858 16.085 29.5338 15.9061 29.4525 15.7651C29.1711 15.2758 29.0883 14.8572 29.207 14.5198C29.3591 14.0875 29.8083 13.9075 29.8131 13.9059C29.9624 13.8473 30.0379 13.6778 29.9799 13.5274C29.9223 13.3769 29.755 13.3009 29.6045 13.3585C29.5755 13.369 28.9035 13.6293 28.657 14.3171C28.4743 14.8244 28.5714 15.4099 28.9441 16.0581C28.999 16.1521 29.0983 16.2043 29.1991 16.2043Z" fill="#CC5B40"/>
<path d="M29.1991 20.3716C29.2487 20.3716 29.2989 20.3594 29.3453 20.3325C29.4858 20.2523 29.5338 20.0733 29.4525 19.9323C29.1711 19.443 29.0883 19.0238 29.207 18.687C29.3591 18.2547 29.8083 18.0747 29.8131 18.0726C29.9624 18.0145 30.0379 17.845 29.9799 17.6946C29.9223 17.5441 29.755 17.4676 29.6045 17.5251C29.5755 17.5362 28.9035 17.796 28.657 18.4843C28.4743 18.9916 28.5714 19.5771 28.9441 20.2248C28.999 20.3188 29.0983 20.3716 29.1991 20.3716Z" fill="#CC5B40"/>
<path d="M29.6226 24.7668C29.6722 24.7668 29.7224 24.7542 29.7683 24.7278C29.9087 24.6475 29.9568 24.468 29.8765 24.3276C29.5952 23.8383 29.5123 23.4191 29.63 23.0823C29.7826 22.6494 30.2323 22.4694 30.236 22.4678C30.386 22.4092 30.462 22.2398 30.4039 22.0893C30.3464 21.9389 30.1785 21.8629 30.0275 21.9204C29.9985 21.931 29.3275 22.1912 29.0799 22.8791C28.8983 23.3864 28.995 23.9718 29.3677 24.6201C29.4226 24.714 29.5207 24.7668 29.6226 24.7668Z" fill="#CC5B40"/>
<path d="M25.7715 18.6512C25.8212 18.6512 25.8713 18.6385 25.9172 18.6121C26.0577 18.5319 26.1057 18.3524 26.0255 18.212C25.7441 17.7226 25.6612 17.3034 25.7789 16.9666C25.9315 16.5343 26.3813 16.3538 26.385 16.3522C26.5349 16.2936 26.6109 16.1241 26.5528 15.9737C26.4953 15.8238 26.3269 15.7472 26.1764 15.8048C26.1474 15.8153 25.4765 16.0756 25.2289 16.7634C25.0473 17.2707 25.1439 17.8562 25.5166 18.5044C25.5715 18.5989 25.6697 18.6512 25.7715 18.6512Z" fill="#CC5B40"/>
<path d="M25.7715 23.7908C25.8212 23.7908 25.8713 23.7786 25.9172 23.7522C26.0577 23.6715 26.1057 23.4925 26.0255 23.3516C25.7441 22.8622 25.6612 22.4436 25.7789 22.1063C25.9315 21.6739 26.3813 21.4939 26.385 21.4923C26.5349 21.4337 26.6109 21.2643 26.5528 21.1138C26.4953 20.9634 26.3269 20.8873 26.1764 20.9449C26.1474 20.9554 25.4765 21.2157 25.2289 21.9035C25.0473 22.4109 25.1439 22.9963 25.5166 23.6445C25.5715 23.738 25.6697 23.7908 25.7715 23.7908Z" fill="#CC5B40"/>
<path d="M23.2125 21.5113C23.2622 21.5113 23.3123 21.4987 23.3588 21.4723C23.4992 21.392 23.5467 21.2125 23.4659 21.0721C23.1846 20.5828 23.1022 20.1636 23.2205 19.8268C23.3725 19.3945 23.8217 19.2139 23.8265 19.2124C23.9759 19.1538 24.0514 18.9843 23.9933 18.8338C23.9358 18.6834 23.7684 18.6074 23.618 18.6649C23.5889 18.6755 22.9169 18.9357 22.6704 19.6236C22.4877 20.1309 22.5849 20.7163 22.9576 21.3646C23.0125 21.4585 23.1117 21.5113 23.2125 21.5113Z" fill="#CC5B40"/>
<path d="M18.8069 20.6403C18.8069 20.6403 15.989 13.3352 12.735 13.3653C9.47952 13.3949 6.8791 22.2688 18.8069 20.6403Z" fill="#9D3522"/>
<path d="M18.9464 20.6793C18.9464 20.6793 10.5391 22.8273 10.4246 25.6954C10.3105 28.5629 20.2482 31.2573 18.9464 20.6793Z" fill="#9D3522"/>
<path d="M463.512 1.80147L447.735 84.3541H450.328C450.328 84.3541 469.826 -14.4292 463.512 1.80147Z" fill="#9D3522"/>
<path d="M426 27.3616C426 27.3616 433.578 25.9663 436.967 32.5461C436.967 32.5461 445.542 28.3585 451.524 35.3367C451.524 35.3367 459.499 32.31 466.361 38.9857C466.361 38.9857 475.053 34.1406 479.839 41.7181C479.839 41.7181 487.416 35.1383 493 42.9142C493 42.9142 492.402 15.5965 464.884 10.412C437.366 5.22829 426 27.3616 426 27.3616Z" fill="#EF5451"/>
<path d="M436.968 32.5461C436.968 32.5461 444.313 9.1101 462.117 9.97664C462.117 9.97664 453.718 16.431 451.524 35.3375C451.524 35.3375 446.141 30.5154 436.968 32.5461Z" fill="#FFFAEF"/>
<path d="M466.361 38.9864C466.361 38.9864 469.917 18.1526 462.117 9.97656C462.117 9.97656 480.835 11.6457 479.839 41.7189C479.839 41.7189 476.929 37.628 466.361 38.9864Z" fill="#FFFAEF"/>
<path d="M154.279 46L204 61.2269C204 61.2269 190.715 83.5845 170.469 76.6268C150.538 69.778 154.279 46 154.279 46Z" fill="#83B044"/>
<path d="M156.819 46.769L201.765 60.5251C201.765 60.5251 190.027 79.8413 171.717 73.5809C153.693 67.4174 156.819 46.769 156.819 46.769Z" fill="#F5EFDB"/>
<path d="M158.837 47.3794L200.499 60.1268C200.499 60.1268 189.762 77.555 172.786 71.7672C156.076 66.0694 158.837 47.3794 158.837 47.3794Z" fill="#EE3A4C"/>
<path d="M167.381 55.1175C167.252 54.8116 167.578 54.6077 168.009 54.4277C168.439 54.2471 169.168 53.9709 169.297 54.278C169.427 54.5844 168.824 55.1653 168.393 55.3453C167.962 55.5253 167.509 55.4233 167.381 55.1175Z" fill="#9D3522"/>
<path d="M172.615 61.5188C172.325 61.3589 172.454 60.9971 172.679 60.5868C172.904 60.1777 173.303 59.5088 173.594 59.6686C173.886 59.8285 173.775 60.6573 173.551 61.0669C173.325 61.4754 172.907 61.6786 172.615 61.5188Z" fill="#9D3522"/>
<path d="M179.552 62.6724C179.259 62.5126 179.389 62.1507 179.615 61.7404C179.839 61.3307 180.238 60.6624 180.53 60.8216C180.823 60.9808 180.71 61.8109 180.486 62.2199C180.26 62.629 179.842 62.8322 179.552 62.6724Z" fill="#9D3522"/>
<path d="M187.561 62.0003C187.231 62.0374 187.126 61.6668 187.075 61.2036C187.023 60.7379 186.964 59.962 187.294 59.9248C187.624 59.8864 188.012 60.6284 188.065 61.0922C188.116 61.5573 187.89 61.9638 187.561 62.0003Z" fill="#9D3522"/>
<path d="M182.296 58.5863C181.972 58.5101 181.998 58.1281 182.104 57.6725C182.211 57.2169 182.417 56.4655 182.74 56.541C183.064 56.6159 183.18 57.4447 183.074 57.8991C182.967 58.3547 182.617 58.6624 182.296 58.5863Z" fill="#9D3522"/>
<path d="M174.144 55.7411C173.936 55.4819 174.194 55.1968 174.559 54.9041C174.925 54.614 175.549 54.1483 175.756 54.407C175.966 54.6669 175.544 55.3906 175.18 55.682C174.815 55.974 174.352 55.9998 174.144 55.7411Z" fill="#9D3522"/>
<path d="M356 62.2135C356 71.6022 348.389 79.2135 339 79.2135C329.611 79.2135 322 71.6029 322 62.2135C322 52.8256 329.611 45.2142 339 45.2142C348.389 45.2142 356 52.8256 356 62.2135Z" fill="#F2C365"/>
<path d="M332.096 46.676C332.096 46.676 342.784 49.379 344.38 60.2183L351.161 61.4351C351.161 61.4351 352.819 55.9411 349.966 49.2247C349.966 49.2247 342.709 41.7593 332.096 46.676Z" fill="#98D5CC"/>
<path d="M322.05 63.5098C322.05 63.5098 330.965 59.782 343.415 61.4351L345.601 66.4153C345.601 66.4153 343.582 73.1924 329.011 75.9687C329.011 75.9687 322.619 71.8591 322.05 63.5098Z" fill="#98D5CC"/>
<path d="M347.288 65.2181C347.288 65.2181 350.664 69.9016 348.726 76.1572C348.726 76.1572 354.145 73.0486 355.559 66.0775C355.559 66.0775 354.196 64.305 349.845 61.4365L347.288 65.2181Z" fill="#98D5CC"/>
<path d="M351.681 63.5098C351.681 65.9364 349.714 67.9029 347.288 67.9029C344.861 67.9029 342.895 65.9364 342.895 63.5098C342.895 61.084 344.861 59.1174 347.288 59.1174C349.714 59.1174 351.681 61.0847 351.681 63.5098Z" fill="#EF9E20"/>
<path d="M478.174 58.7121C478.174 58.7121 480.151 62.0431 476.265 65.5877C472.377 69.1323 469.685 56.9775 473.678 57C477.672 57.0241 478.174 58.7121 478.174 58.7121Z" fill="#F05757"/>
<path d="M483.852 68.0549C483.852 68.0549 481.178 70.8568 476.716 68.0696C472.255 65.2824 483.232 59.4113 484.288 63.2627C485.343 67.1149 483.852 68.0549 483.852 68.0549Z" fill="#F05757"/>
<path d="M476.919 75.4703C476.919 75.4703 473.374 73.9058 474.483 68.7625C475.591 63.62 484.84 71.9521 481.574 74.2523C478.309 76.5524 476.919 75.4703 476.919 75.4703Z" fill="#F05757"/>
<path d="M467.482 71.3625C467.482 71.3625 467.623 67.4924 472.811 66.617C477.998 65.7423 473.682 77.4186 470.335 75.2381C466.99 73.0552 467.482 71.3625 467.482 71.3625Z" fill="#F05757"/>
<path d="M467.432 61.8365C467.432 61.8365 471.036 60.4157 473.915 64.8186C476.795 69.2208 464.367 69.9433 465.025 66.0033C465.684 62.0641 467.432 61.8365 467.432 61.8365Z" fill="#F05757"/>
<path d="M476.442 63.2409C476.442 63.2409 477.276 64.6454 475.636 66.14C473.997 67.6346 472.861 62.5091 474.546 62.5192C476.23 62.5286 476.442 63.2409 476.442 63.2409Z" fill="#B32D2F"/>
<path d="M478.837 67.1801C478.837 67.1801 477.709 68.3617 475.828 67.1863C473.947 66.011 478.576 63.5353 479.021 65.1604C479.465 66.784 478.837 67.1801 478.837 67.1801Z" fill="#B32D2F"/>
<path d="M475.912 70.3068C475.912 70.3068 474.419 69.6473 474.886 67.4784C475.353 65.3096 479.253 68.8239 477.876 69.7933C476.5 70.7636 475.912 70.3068 475.912 70.3068Z" fill="#B32D2F"/>
<path d="M471.933 68.5761C471.933 68.5761 471.993 66.9424 474.181 66.5742C476.368 66.2053 474.548 71.1287 473.137 70.2097C471.726 69.2892 471.933 68.5761 471.933 68.5761Z" fill="#B32D2F"/>
<path d="M471.912 64.5584C471.912 64.5584 473.431 63.9595 474.645 65.8153C475.86 67.6727 470.619 67.9764 470.897 66.3155C471.175 64.6539 471.912 64.5584 471.912 64.5584Z" fill="#B32D2F"/>
<path d="M476.648 66.3762C476.648 67.2346 475.951 67.9314 475.091 67.9314C474.232 67.9314 473.535 67.2353 473.535 66.3762C473.535 65.5162 474.232 64.8187 475.091 64.8187C475.951 64.8187 476.648 65.5155 476.648 66.3762Z" fill="#F05A28"/>
<path d="M282.438 10.1144C282.438 10.1144 282.233 13.2152 278.053 13.7948C273.873 14.3738 277.611 5.11229 280.242 6.94054C282.872 8.76982 282.438 10.1144 282.438 10.1144Z" fill="#F05757"/>
<path d="M281.951 18.8716C281.951 18.8716 278.91 19.5104 277.224 15.6409C275.539 11.7718 285.466 12.8735 284.415 15.9001C283.364 18.9269 281.951 18.8716 281.951 18.8716Z" fill="#F05757"/>
<path d="M273.999 20.6279C273.999 20.6279 272.365 17.9837 275.433 15.0854C278.501 12.1872 280.835 21.8978 277.631 21.9362C274.426 21.9746 273.999 20.6279 273.999 20.6279Z" fill="#F05757"/>
<path d="M269.622 13.6262C269.622 13.6262 271.473 11.1308 275.302 12.9072C279.13 14.6842 270.973 20.4466 269.75 17.4849C268.529 14.5224 269.622 13.6262 269.622 13.6262Z" fill="#F05757"/>
<path d="M273.915 7.30295C273.915 7.30295 276.943 7.99955 276.848 12.2191C276.754 16.4382 268.206 11.2728 270.431 8.96608C272.655 6.65987 273.915 7.30295 273.915 7.30295Z" fill="#F05757"/>
<path d="M279.236 12.3231C279.236 12.3231 279.15 13.6305 277.387 13.8744C275.624 14.1186 277.2 10.2131 278.31 10.9848C279.42 11.7557 279.236 12.3231 279.236 12.3231Z" fill="#B32D2F"/>
<path d="M279.031 16.0157C279.031 16.0157 277.749 16.285 277.038 14.6537C276.328 13.0221 280.513 13.4866 280.07 14.7635C279.627 16.039 279.031 16.0157 279.031 16.0157Z" fill="#B32D2F"/>
<path d="M275.678 16.7558C275.678 16.7558 274.989 15.6414 276.283 14.4189C277.577 13.1968 278.56 17.2918 277.21 17.3079C275.859 17.3246 275.678 16.7558 275.678 16.7558Z" fill="#B32D2F"/>
<path d="M273.832 13.8044C273.832 13.8044 274.613 12.7511 276.227 13.5008C277.841 14.2501 274.402 16.6799 273.886 15.4312C273.371 14.1819 273.832 13.8044 273.832 13.8044Z" fill="#B32D2F"/>
<path d="M275.642 11.1374C275.642 11.1374 276.919 11.4312 276.879 13.21C276.839 14.99 273.235 12.8111 274.173 11.8389C275.111 10.8662 275.642 11.1374 275.642 11.1374Z" fill="#B32D2F"/>
<path d="M277.949 14.4901C277.559 15.0578 276.782 15.2023 276.213 14.8118C275.645 14.4217 275.5 13.645 275.89 13.0767C276.28 12.508 277.058 12.363 277.626 12.7531C278.195 13.1436 278.339 13.9208 277.949 14.4901Z" fill="#F05A28"/>
<path d="M193.591 40.389C193.591 40.389 194.003 42.9888 190.659 44.2514C187.314 45.5136 188.665 37.162 191.182 38.1789C193.697 39.1969 193.591 40.389 193.591 40.389Z" fill="#F05757"/>
<path d="M194.831 47.7143C194.831 47.7143 192.438 48.8122 190.32 45.9318C188.203 43.0516 196.609 42.1004 196.309 44.7976C196.008 47.495 194.831 47.7143 194.831 47.7143Z" fill="#F05757"/>
<path d="M188.591 50.6562C188.591 50.6562 186.745 48.7783 188.736 45.8087C190.727 42.8395 194.476 50.4234 191.836 51.0559C189.196 51.6885 188.591 50.6562 188.591 50.6562Z" fill="#F05757"/>
<path d="M183.663 45.6929C183.663 45.6929 184.724 43.2845 188.219 44.0341C191.715 44.7843 186.057 51.0738 184.492 48.8566C182.927 46.6383 183.663 45.6929 183.663 45.6929Z" fill="#F05757"/>
<path d="M186.023 39.6647C186.023 39.6647 188.655 39.6723 189.368 43.1757C190.081 46.6786 182.052 44.0144 183.457 41.6918C184.862 39.3696 186.023 39.6647 186.023 39.6647Z" fill="#F05757"/>
<path d="M191.36 42.8139C191.36 42.8139 191.534 43.9101 190.123 44.4422C188.713 44.9745 189.282 41.4527 190.344 41.8821C191.405 42.3108 191.36 42.8139 191.36 42.8139Z" fill="#B32D2F"/>
<path d="M191.883 45.9027C191.883 45.9027 190.874 46.3656 189.981 45.1512C189.088 43.9366 192.633 43.5355 192.506 44.6735C192.379 45.8103 191.883 45.9027 191.883 45.9027Z" fill="#B32D2F"/>
<path d="M189.251 47.1429C189.251 47.1429 188.473 46.3514 189.313 45.099C190.153 43.8468 191.733 47.0451 190.62 47.3117C189.507 47.5788 189.251 47.1429 189.251 47.1429Z" fill="#B32D2F"/>
<path d="M187.173 45.0509C187.173 45.0509 187.621 44.0343 189.095 44.351C190.569 44.6672 188.183 47.3193 187.523 46.3846C186.863 45.4491 187.173 45.0509 187.173 45.0509Z" fill="#B32D2F"/>
<path d="M188.168 42.5084C188.168 42.5084 189.278 42.5117 189.579 43.9885C189.88 45.4664 186.494 44.3423 187.086 43.3633C187.679 42.3839 188.168 42.5084 188.168 42.5084Z" fill="#B32D2F"/>
<path d="M190.703 44.8454C190.487 45.3874 189.872 45.6525 189.329 45.4366C188.787 45.2209 188.521 44.6064 188.737 44.0639C188.953 43.5208 189.568 43.2553 190.111 43.471C190.654 43.6869 190.919 44.3019 190.703 44.8454Z" fill="#F05A28"/>
<path d="M417.242 47.8921C417.393 39.2451 414.211 25.7009 402.628 27.911C391.045 30.123 403.173 46.0978 402.946 56.7131C402.72 67.3275 402.677 73.5566 409.589 73.6517C421.594 73.8179 417.091 56.5374 417.242 47.8921Z" fill="#EF9E20"/>
<path d="M416.282 47.4336C416.432 38.7877 413.251 25.2421 401.668 27.4535C390.085 29.6647 402.213 45.6398 401.986 56.255C401.759 66.8701 401.716 73.0985 408.628 73.1944C420.633 73.3604 416.131 56.0792 416.282 47.4336Z" fill="#F2C365"/>
<path d="M402.951 36.4544C402.951 36.4544 403.432 39.7948 404.306 40.2844C405.179 40.7735 405.179 40.7735 405.179 40.7735C405.179 40.7735 413.229 42.5021 417.241 47.892L417.296 50.3561C417.296 50.3561 409.425 42.7763 404.12 42.7437C398.815 42.7115 395.508 52.9254 403.414 58.7935C403.414 58.7935 404.143 61.1622 403.032 61.3229C401.921 61.4837 390.663 51.1747 401.08 40.4674C401.08 40.4674 401.584 35.0221 402.951 36.4544Z" fill="#EE3A4C"/>
<path d="M374.235 63.1068C368.68 56.4785 362.636 43.9469 373.032 38.3814C383.429 32.8174 384.045 52.865 390.896 60.976C397.747 69.0866 401.698 73.903 396.383 78.3234C387.155 86.0014 379.789 69.7339 374.235 63.1068Z" fill="#EF9E20"/>
<path d="M374.693 62.1467C369.139 55.519 363.095 42.9861 373.491 37.4217C383.888 31.8573 384.504 51.9047 391.356 60.0157C398.207 68.1268 402.157 72.9427 396.844 77.3634C387.614 85.0419 380.248 68.7738 374.693 62.1467Z" fill="#F2C365"/>
<path d="M378.153 45.2272C378.153 45.2272 379.879 48.1273 379.508 49.0571C379.137 49.9864 379.137 49.9864 379.137 49.9864C379.137 49.9864 373.965 56.3928 374.234 63.1068L375.742 65.0567C375.742 65.0567 377.095 54.2137 381.199 50.8527C385.304 47.4914 394.297 53.3539 391.841 62.8876C391.841 62.8876 392.764 65.1878 393.728 64.6143C394.693 64.0407 396.964 48.9459 382.131 47.1711C382.131 47.1711 378.315 43.2542 378.153 45.2272Z" fill="#EE3A4C"/>
<path d="M128.03 71.9962C128.03 71.9962 111.296 64.5738 118.082 55.6005C125.567 45.7038 145.605 43.3679 140.71 65.9738C140.71 65.9738 142.775 66.577 142.204 67.8741C140.813 71.0361 125.761 77.3666 128.03 71.9962Z" fill="#F5BBAF"/>
<path opacity="0.2" d="M128.716 69.858C128.716 69.858 122.236 65.784 119.347 59.2891C119.347 59.2891 126.15 67.5371 128.716 69.858Z" fill="#EE3A4C"/>
<path opacity="0.2" d="M130.34 68.4019C130.34 68.4019 125.099 62.8222 123.946 55.8088C123.946 55.8088 128.444 65.5076 130.34 68.4019Z" fill="#EE3A4C"/>
<path opacity="0.2" d="M133.049 66.8257C133.049 66.8257 128.231 60.8768 127.595 53.7974C127.595 53.7974 131.369 63.8004 133.049 66.8257Z" fill="#EE3A4C"/>
<path opacity="0.2" d="M135.643 66.25C135.643 66.25 132.123 59.4533 132.927 52.3905C132.927 52.3905 134.608 62.9487 135.643 66.25Z" fill="#EE3A4C"/>
<path opacity="0.2" d="M138.522 65.5493C138.522 65.5493 135.321 58.5962 136.451 51.5782C136.451 51.5782 137.641 62.2032 138.522 65.5493Z" fill="#EE3A4C"/>
<path d="M61.1504 21.9368C61.1504 21.9368 51.2228 11.3757 58.9338 6.9155C67.4382 1.99604 82.7772 6.45253 72.2542 21.4416C72.2542 21.4416 73.576 22.5169 72.7604 23.2877C70.7734 25.167 57.8442 25.158 61.1504 21.9368Z" fill="#FAB217"/>
<path d="M62.3092 20.588C62.3092 20.588 58.833 15.6231 58.7227 9.99573C58.7227 9.99573 61.1505 18.1058 62.3092 20.588Z" fill="#EF9E20"/>
<path d="M63.9414 20.0247C63.9414 20.0247 61.8325 14.3419 63.1475 8.8692C63.1475 8.8692 63.4473 17.3298 63.9414 20.0247Z" fill="#EF9E20"/>
<path d="M66.402 19.7075C66.402 19.7075 64.7154 13.8864 66.4284 8.52454C66.4284 8.52454 66.1064 16.9841 66.402 19.7075Z" fill="#EF9E20"/>
<path d="M68.4722 20.086C68.4722 20.086 67.9934 14.0442 70.7506 9.13739C70.7506 9.13739 68.732 17.3588 68.4722 20.086Z" fill="#EF9E20"/>
<path d="M70.7884 20.4592C70.7884 20.4592 70.5904 14.4016 73.573 9.62836C73.573 9.62836 71.1737 17.7469 70.7884 20.4592Z" fill="#EF9E20"/>
<path d="M217.492 38.7287V30.272L205 34.6989L217.492 38.7287Z" fill="#EF5451"/>
<path d="M234.5 49.8415C242.974 49.8415 249.844 42.9716 249.844 34.4972C249.844 26.0229 242.974 19.153 234.5 19.153C226.025 19.153 219.155 26.0229 219.155 34.4972C219.155 42.9716 226.025 49.8415 234.5 49.8415Z" fill="#FAB217"/>
<path d="M230.47 17.4926H238.928L234.499 5L230.47 17.4926Z" fill="#EF5451"/>
<path d="M238.928 51.5099H230.47L234.897 64.0015L238.928 51.5099Z" fill="#EF5451"/>
<path d="M251.508 30.272V38.7287L264 34.3018L251.508 30.272Z" fill="#EF5451"/>
<path d="M247.234 22.4539L251.39 29.8177L260.093 19.8218L247.234 22.4539Z" fill="#EF5451"/>
<path d="M221.768 46.5406L217.611 39.1768L208.908 49.1727L221.768 46.5406Z" fill="#EF5451"/>
<path d="M221.775 22.4458L217.614 29.8065L208.917 19.8036L221.775 22.4458Z" fill="#EF5451"/>
<path d="M247.225 46.5486L251.386 39.1868L260.083 49.1896L247.225 46.5486Z" fill="#EF5451"/>
<path d="M222.252 21.9655L229.548 17.6891L219.412 9.14911L222.252 21.9655Z" fill="#EF5451"/>
<path d="M246.748 47.0369L239.452 51.3124L249.587 59.8523L246.748 47.0369Z" fill="#EF5451"/>
<path d="M246.862 22.0759L239.605 17.7342L249.819 9.2865L246.862 22.0759Z" fill="#EF5451"/>
<path d="M222.137 46.9246L229.396 51.2663L219.182 59.714L222.137 46.9246Z" fill="#EF5451"/>
<path d="M373.022 10.8227C373.022 10.8227 331.867 26.0588 330.799 27.8816C329.731 29.7045 329.333 32.9558 330.146 33.0555C330.958 33.1553 332.709 32.9801 332.972 32.4522C333.234 31.9232 331.8 28.7041 335.552 27.6066C339.304 26.5086 371.832 13.0272 372.326 12.7363C372.82 12.4454 374.169 11.6277 373.022 10.8227Z" fill="#EF5451"/>
<path d="M333.166 17.8464C333.166 17.8464 377.049 18.0976 378.676 19.4454C380.303 20.7936 381.789 23.7129 381.059 24.0845C380.329 24.4562 378.624 24.8901 378.196 24.4831C377.768 24.0761 378.016 20.5603 374.116 20.811C370.215 21.0613 335.038 19.5114 334.474 19.4063C333.91 19.3023 332.363 18.9945 333.166 17.8464Z" fill="#EF5451"/>
<path d="M354.141 13.6015C354.141 13.6015 360.336 9.02942 375.181 10.1881C377.299 10.3534 373.73 12.9966 373.73 12.9966C373.73 12.9966 376.388 26.0356 366.999 28.3325C357.682 30.6103 353.738 21.5564 354.141 13.6015Z" fill="#9D3522"/>
<path d="M350.439 14.2534C350.439 14.2534 344.476 11.2085 329.5 18.2375C327.577 19.1396 331.823 20.3807 331.823 20.3807C331.823 20.3807 333.513 33.3326 343.39 32.4922C352.509 31.7173 353.536 21.5917 350.439 14.2534Z" fill="#9D3522"/>
<path d="M350.172 16.0879C350.172 16.0879 353.681 14.9334 355.6 15.1314C355.6 15.1314 356.379 16.174 355.827 16.4199C355.276 16.6659 351.519 16.733 349.527 17.5301C349.527 17.5301 348.814 16.7831 350.172 16.0879Z" fill="#9D3522"/>
<path d="M350.502 18.3864C350.502 18.3864 353.587 16.9289 355.649 17.9435C355.649 17.9435 357.026 20.2726 356.515 20.7456C356.003 21.2186 352.339 19.8407 350.252 22.2844C350.252 22.2844 349.267 19.7774 350.502 18.3864Z" fill="#9D3522"/>
<path d="M355.531 14.9054C355.531 14.9054 356.74 27.2877 363.783 26.6252C370.827 25.9622 373.372 21.9613 371.813 12.2696C371.813 12.2696 365.389 10.1929 355.531 14.9054Z" fill="#98D5CC"/>
<path d="M333.112 18.8557C333.112 18.8557 335.317 31.0622 342.361 30.4002C349.404 29.7372 351.266 25.6233 349.707 15.9316C349.707 15.9316 342.048 14.3881 333.112 18.8557Z" fill="#98D5CC"/>
<path d="M357.233 16.1972C357.233 16.1972 356.763 20.0525 358.866 19.5335C360.969 19.0141 359.591 14.7149 357.233 16.1972Z" fill="#FFFAEF"/>
<path d="M336.53 19.8455C336.53 19.8455 336.061 23.7007 338.164 23.1812C340.268 22.6618 338.888 18.3631 336.53 19.8455Z" fill="#FFFAEF"/>
<path d="M96.8562 21.1879C96.8562 21.1879 100.916 39.0241 98.2901 39.2082C95.6645 39.392 77.297 31.7536 96.8562 21.1879Z" fill="#EF5451"/>
<path d="M111.118 14.5935C111.118 14.5935 99.9148 12.4565 96.4507 22.6056L95.8204 22.9483C95.8204 22.9483 96.9393 12.5576 111.347 13.7522C111.347 13.7522 111.931 13.4041 111.118 14.5935Z" fill="#EF5451"/>
<path d="M112.817 15.5353C112.817 15.5353 120.566 23.904 113.795 32.2201L113.838 32.9365C113.838 32.9365 122.057 26.4819 113.41 14.8962C113.41 14.8962 113.395 14.2162 112.817 15.5353Z" fill="#EF5451"/>
<path d="M114.802 31.1358C114.802 31.1358 97.5225 37.143 98.758 39.4679C99.9952 41.7921 116.205 53.322 114.802 31.1358Z" fill="#EF5451"/>
<path d="M110.247 8.21796C107.873 6.93677 108.745 14.8683 112.548 15.0202C112.548 15.0202 112.621 9.49941 110.247 8.21796ZM110.305 9.68469C111.7 10.4385 111.746 13.5244 111.746 13.5244C109.543 13.3791 108.911 8.93011 110.305 9.68469Z" fill="#EF5451"/>
<path d="M111.518 14.4484C113.662 17.5935 120.851 14.1312 118.507 12.7966C116.161 11.4613 111.518 14.4484 111.518 14.4484ZM113.212 14.337C113.212 14.337 115.854 12.7413 117.232 13.5244C118.611 14.3075 114.503 16.1289 113.212 14.337Z" fill="#EF5451"/>
<path d="M104.591 49.2312C103.57 46.7331 99.2071 53.4153 102.049 55.948C102.049 55.948 105.611 51.7291 104.591 49.2312ZM103.704 50.401C104.303 51.8698 102.38 54.2822 102.38 54.2822C100.769 52.7699 103.106 48.9328 103.704 50.401Z" fill="#EF5451"/>
<path d="M101.615 54.8514C101.274 58.6422 109.027 60.5326 108.063 58.0128C107.099 55.4924 101.615 54.8514 101.615 54.8514ZM102.995 55.8402C102.995 55.8402 106.049 56.2845 106.616 57.7652C107.184 59.2464 102.855 58.045 102.995 55.8402Z" fill="#EF5451"/>
<path d="M81.6964 44.6655C85.3501 45.7336 88.7048 38.4934 86.0468 38.9514C83.3885 39.41 81.6964 44.6655 81.6964 44.6655ZM82.9346 43.5029C82.9346 43.5029 83.9617 40.5937 85.5241 40.3227C87.086 40.0528 85.0705 44.0677 82.9346 43.5029Z" fill="#EF5451"/>
<path d="M76.7589 40.6592C74.1115 41.1769 79.8232 46.7502 82.8573 44.4522C82.8573 44.4522 79.4082 40.1417 76.7589 40.6592ZM77.7361 41.756C79.2925 41.4529 81.2868 43.8066 81.2868 43.8066C79.4923 45.0942 76.1796 42.0592 77.7361 41.756Z" fill="#EF5451"/>
<path d="M82.2896 43.6853L102.379 54.8218L101.724 56.0039C101.724 56.0039 92.8993 56.9831 87.7863 62.5911L84.4764 60.7561C84.4764 60.7561 86.8845 49.0613 81.6347 44.8676L82.2896 43.6853Z" fill="#EF5451"/>
<path d="M303.423 35.4595L300.515 34.6804C300.515 34.6804 291.877 52.6158 295.181 54.5906C296.804 55.5615 301.6 59.1048 303.423 35.4595Z" fill="#FAB217"/>
<path d="M309.725 42.6752C308.907 43.1087 291.175 39.6649 291.405 37.6561C292.113 31.4596 294.969 13.4291 300.999 5.81475C305.451 0.194143 318.545 3.95183 317.565 15.8426C316.879 24.1765 310.31 42.3648 309.725 42.6752Z" fill="#EF5451"/>
<path d="M316.784 20.7133L296.558 14.4485C296.558 14.4485 293.687 22.1682 293.175 26.8066L313.639 32.29C313.639 32.29 316.123 24.4635 316.784 20.7133Z" fill="#FFFAEF"/>
<path d="M313.776 31.777C313.776 31.777 310.22 42.9107 309.607 42.9444C308.994 42.9781 297.011 41.3488 291.378 38.2697C291.378 38.2697 292.056 29.9469 293.241 26.2742C293.241 26.2742 311.298 31.8892 313.776 31.777Z" fill="#98D5CC"/>
<path d="M140.08 38.2304C140.08 38.2304 193.658 30.3513 194.618 27.2253C195.577 24.098 174.671 25.2928 174.671 25.2928C174.671 25.2928 169.944 9.90958 160.16 9.19206C150.376 8.47386 149.426 30.2219 149.426 30.2219C149.426 30.2219 115.855 42.9422 140.08 38.2304Z" fill="#EF9E20"/>
<path d="M149.426 30.2219C149.426 30.2219 163.499 26.138 174.671 25.2928C174.671 25.2928 173.165 21.1598 172.096 19.2891C172.096 19.2891 158.124 20.2037 150.182 23.7219C150.182 23.7219 149.475 28.6144 149.426 30.2219Z" fill="#EF5451"/>
</svg>
