<svg width="72" height="62" viewBox="0 0 72 62" fill="none" xmlns="http://www.w3.org/2000/svg">
    <g>
        <path d="M68.07 52.2947C67.9714 52.2981 67.8797 52.312 67.7793 52.312C65.3842 52.312 62.2555 51.3844 58.2424 49.9135C58.1887 49.8962 56.4444 49.3286 55.5826 49.0153C52.5109 48.87 50.9378 48.998 49.8926 49.0811C48.6432 49.1832 48.0184 49.2316 46.6323 48.6329C44.3826 47.6603 43.1574 45.9852 42.2645 44.7617C42.043 44.4589 41.8405 44.1803 41.6432 43.9449C40.3245 42.3753 40.4388 40.2295 41.908 38.9523C43.9863 37.1509 50.9638 36.72 53.2169 38.2515C54.1635 38.897 54.6429 39.4403 55.0288 39.8764C55.4562 40.361 55.6916 40.6275 56.4097 40.8473C56.6088 40.9078 57.4533 41.0895 57.9759 41.1968C60.0836 41.3007 62.7365 40.2658 63.6105 39.9232C66.741 38.698 66.8258 34.1173 66.8275 34.0723L66.831 33.7815C62.1291 29.3964 55.3853 27.6884 52.3292 26.92C51.431 26.6933 50.8877 26.5566 50.5779 26.4147C49.9999 26.1465 49.5794 25.6481 49.3579 24.9766C48.7522 23.125 49.7195 20.0498 50.9465 17.8227C51.3497 17.0907 54.7969 10.4922 51.8117 4.00098C51.3376 2.97132 50.4775 2.04376 49.3215 1.30829H37.4917C35.8408 2.4487 34.7886 4.07366 34.3612 6.14164C33.5374 10.1322 34.1846 12.259 34.8717 14.5104C35.3129 15.9589 35.7698 17.4575 35.9031 19.4978C36.1626 23.4642 34.4875 25.3383 33.4146 26.1222L33.2346 26.2451C32.9612 26.4251 32.7431 26.5341 32.6358 26.5791L32.4957 26.6501C20.3474 31.2186 13.4443 40.8109 13.3768 42.6107C15.0762 43.1592 20.5135 42.6332 22.2596 42.0984C23.0141 41.8683 23.2616 41.5879 23.7115 41.0792C24.1113 40.624 24.6114 40.0599 25.5961 39.3902C27.6813 37.9711 33.6361 38.1753 36.4464 39.5546C36.86 39.7449 37.2131 39.9578 37.4865 40.1931C39.0042 41.5101 39.1236 43.7269 37.7616 45.3518C37.554 45.5975 37.3429 45.89 37.111 46.2067C36.1817 47.4786 34.908 49.2195 32.5735 50.2284C31.1355 50.8497 30.5263 50.803 29.1904 50.6939C28.1071 50.6074 26.4804 50.4776 23.3152 50.623C20.8198 52.0645 19.1654 52.9713 14.4948 55.2591L12.8023 56.1226C12.522 56.6833 12.406 59.414 12.4701 61.9233L65.6819 61.9527C67.0196 61.9527 68.1098 60.885 68.1098 59.5732L68.07 52.2947Z" fill="#8FDCEC"></path>
        <path d="M7.93428 58.1871C6.88559 58.6058 6.00821 58.9191 5.25024 59.1631C5.41291 60.705 6.72292 61.9129 8.3323 61.9129H11.0752C11.025 60.0249 11.0544 57.9915 11.3088 56.6331C10.0957 57.2059 8.94318 57.7389 7.93428 58.1871Z" fill="#E42313"></path>
        <path d="M71.7889 43.0087C71.3407 40.8732 70.2885 38.9229 69.0045 37.1007V3.75177C69.0045 1.6838 67.2999 0 65.2042 0H8.47772C6.38205 0 4.67749 1.6838 4.67749 3.75177V37.7167C3.88491 38.8952 3.20482 40.1845 2.69085 41.6052C-0.797883 51.2685 -0.55388 57.3114 1.48987 58.2857C1.72349 58.3965 2.84833 58.6197 7.41345 56.7992C12.0201 54.7433 19.9926 50.8047 22.623 49.2835L22.7666 49.2005L22.9328 49.1918C26.2917 49.0274 28.0119 49.1659 29.1488 49.2576C30.3792 49.3562 30.753 49.3856 31.8778 48.9011C33.8714 48.0393 34.9703 46.5355 35.8546 45.3258C36.1055 44.9832 36.3357 44.6682 36.5589 44.4035C37.2978 43.5244 37.5055 42.088 36.4378 41.1622C36.3322 41.0705 36.2093 40.984 36.0709 40.9009C33.8403 39.6947 28.2212 39.4421 26.5098 40.6067C25.6687 41.1795 25.2517 41.6519 24.8831 42.069C24.3933 42.6245 23.9295 43.1488 22.8047 43.4932C21.1244 44.0072 14.493 44.8551 12.5739 43.7822C12.5548 43.7718 12.5341 43.758 12.5133 43.7441C12.4873 43.7303 12.4527 43.7216 12.4285 43.7078C12.1949 43.5763 11.809 43.2423 11.8678 42.4791C12.091 39.5147 19.496 30.2911 30.9572 25.6533C30.1058 24.634 28.8737 22.7321 29.2682 20.5915C29.4049 19.8491 29.8064 18.9873 30.2736 17.9905C31.7152 14.905 33.8939 10.243 31.0126 3.45066C30.6561 2.61136 30.0521 1.94338 29.462 1.3723H65.206C66.5437 1.3723 67.6339 2.44004 67.6339 3.7535V37.2183C67.1044 38.7516 66.0833 40.4267 64.1192 41.1951C62.4717 41.8406 60.0282 42.6868 57.8564 42.557L57.7595 42.5449C57.5259 42.4964 56.3422 42.2524 56.0152 42.1521C54.9301 41.8198 54.4819 41.3128 54.0095 40.778C53.6565 40.38 53.2584 39.9283 52.4537 39.3798C50.7215 38.203 44.4137 38.5958 42.8147 39.982C41.8041 40.8611 42.0014 42.2213 42.7023 43.0554C42.9168 43.3115 43.1383 43.6144 43.3806 43.9449C44.2268 45.1026 45.279 46.5424 47.186 47.3661C48.2572 47.8299 48.5808 47.8022 49.7922 47.707C50.5173 47.6482 51.4881 47.5721 53.0006 47.5721C53.7689 47.5721 54.6757 47.5928 55.7625 47.6447L55.8681 47.6499L55.9667 47.6863C56.7576 47.9805 58.6784 48.6052 58.6975 48.6121C64.3736 50.6922 68.2846 51.6924 70.3179 50.2734C71.3009 49.5881 71.8477 48.2816 71.9879 46.3088C71.9931 46.1409 72 45.9765 72 45.7965C72 44.8326 71.9256 43.9068 71.7889 43.0087ZM18.539 24.1391C18.2188 25.8505 16.1353 27.3994 13.4962 29.3583C11.0839 31.1494 8.30813 33.2122 6.04806 35.8997V3.75177C6.04806 2.44004 7.13829 1.37057 8.47772 1.37057H16.6025C14.8097 3.08552 13.7558 5.42519 13.5568 8.17153C13.1951 13.1641 15.1506 16.3465 16.7219 18.9025C17.8727 20.7715 18.8643 22.386 18.539 24.1391Z" fill="#E42313"></path>
    </g>
</svg>